<?xml version="1.0" encoding="utf-8"?>
<!-- Generator: Adobe Illustrator 21.0.0, SVG Export Plug-In . SVG Version: 6.00 Build 0)  -->
<svg version="1.1" id="Layer_1" xmlns="http://www.w3.org/2000/svg" xmlns:xlink="http://www.w3.org/1999/xlink" x="0px" y="0px"
	 viewBox="0 0 96 76.7" style="enable-background:new 0 0 96 76.7;" xml:space="preserve">
<style type="text/css">
	.st0{fill:#00ADCA;}
	.st1{fill:none;stroke:#111118;stroke-width:2;stroke-linejoin:round;}
	.st2{fill:#111118;}
</style>
<title>big_bubble</title>
<g>
	<g id="Calque_1">
		<path class="st0" d="M92.6,37C94.1,21.2,77.9,6.7,56.4,4.7c-18.1-1.7-34.1,6-39.6,17.9l0,0L0,26.1l14.9,8.4
			c0.4,2.6,1.2,5.2,2.4,7.6c3.8,0.5,8.8,0.5,12.7-1.2c-2,3.2-4.8,5.9-8.1,7.7c6.5,7.2,17,12.3,29.1,13.4c2.4,0.2,4.8,0.3,7.2,0.2
			l0,0c4.5,7.3,9.4,13.1,18,14.4c-6.7-8.5-7-12.4-3.3-17.4l0,0C83.9,55.2,91.7,47,92.6,37z"/>
		<path class="st1" d="M94.9,33.6C96.4,17.7,80.2,3.2,58.7,1.2c-18.1-1.7-34.1,6-39.6,17.9l0,0L2.3,22.7l14.9,8.4
			c0.4,2.6,1.2,5.2,2.4,7.6c3.8,0.5,8.8,0.5,12.7-1.2c-2,3.2-4.8,5.9-8.1,7.7c6.5,7.1,17,12.2,29.1,13.4c2.4,0.2,4.8,0.3,7.2,0.2
			l0,0c4.4,7.3,9.4,13.1,18,14.4c-6.7-8.5-7-12.4-3.3-17.4l0,0C86.2,51.7,94,43.6,94.9,33.6z"/>
		
			<ellipse transform="matrix(9.376074e-02 -0.9956 0.9956 9.376074e-02 5.2833 49.9044)" class="st2" cx="30.1" cy="22.1" rx="4.1" ry="2.1"/>
	</g>
</g>
</svg>
