<?xml version="1.0" encoding="utf-8"?>
<!-- Generator: Adobe Illustrator 17.1.0, SVG Export Plug-In . SVG Version: 6.00 Build 0)  -->
<!DOCTYPE svg PUBLIC "-//W3C//DTD SVG 1.1//EN" "http://www.w3.org/Graphics/SVG/1.1/DTD/svg11.dtd">
<svg version="1.1" id="Layer_1" xmlns="http://www.w3.org/2000/svg" xmlns:xlink="http://www.w3.org/1999/xlink" x="0px" y="0px" width="1029" height="105" viewBox="0 0 1029 105" enable-background="new 0 0 1029 105" xml:space="preserve">
<path opacity="0.3" fill-rule="evenodd" clip-rule="evenodd" fill="#3A5898" d="M57.5,68.4l3.9,3.7l7.7-7.4l7.7,7.6l11.5-11l3.7,3.6
	V54.3H81.1l3.3,3.1l-7.6,7.4L69,57.4L57.5,68.4z M53.4,76.4v2.8h41.3v-2.8H53.4z"/>
<g id="Your_Icon_2_" opacity="0.3">
	<g>
		<g>
			<path fill="#3A5898" d="M148.8,5.2l-21.1,14.3c-0.3,0.2-0.4,0.6-0.3,0.9l0.5,1.7c0.1,0.3,0.4,0.5,0.8,0.4h5.8l0.2,2.6
				c0,0.5,0.4,0.8,0.8,0.8l6.6,0c0.1,0,0.2,0,0.3,0c0.3-0.1,0.5-0.4,0.6-0.7l0.2-2.7h11.2c0.1,0,0.2,0,0.2,0c0.2,0,0.3-0.1,0.4-0.3
				c0.1-0.2,0.2-0.5,0.1-0.7l-5-15.9c-0.1-0.2-0.3-0.4-0.5-0.5C149.3,5,149,5.1,148.8,5.2z M141.3,24.3h-5l-0.1-1.8h5.2L141.3,24.3z
				"/>
			<path fill="#3A5898" d="M152.1,3.1c-0.6,0.2-0.9,0.9-0.7,1.6l5.5,17.3c0.2,0.7,0.9,1.1,1.5,0.9c0.6-0.2,0.9-0.9,0.7-1.6L153.5,4
				C153.3,3.3,152.7,2.9,152.1,3.1z"/>
		</g>
		<g>
			<path fill="#3A5898" d="M165.8,8.6c-0.2-0.6-0.9-0.9-1.5-0.7L161,9c-0.6,0.2-0.9,0.9-0.7,1.5c0.2,0.6,0.9,0.9,1.5,0.7l3.4-1.1
				C165.7,9.9,166,9.2,165.8,8.6z"/>
			<path fill="#3A5898" d="M166.8,16.3c0.2-0.6-0.1-1.3-0.7-1.5l-3.3-1.3c-0.3-0.1-0.6-0.1-0.9,0c-0.3,0.1-0.5,0.4-0.6,0.6
				c-0.1,0.2-0.1,0.5,0,0.8l0,0c0.1,0.3,0.4,0.6,0.7,0.7l3.3,1.3C165.9,17.1,166.6,16.8,166.8,16.3z"/>
			<path fill="#3A5898" d="M162.5,3.7c0.3-0.5,0.2-1.3-0.4-1.6c-0.5-0.3-1.3-0.2-1.6,0.4l-1.9,3c-0.2,0.3-0.2,0.6-0.1,1
				c0.1,0.3,0.3,0.5,0.5,0.6c0.3,0.2,0.6,0.2,0.9,0.1c0.3-0.1,0.6-0.3,0.7-0.5L162.5,3.7z"/>
		</g>
	</g>
</g>
<path opacity="0.3" fill-rule="evenodd" clip-rule="evenodd" fill="#3A5898" d="M855.8,90.2c-0.9,0-1.6,0.7-1.6,1.6v1.6
	c0,0.9,0.7,1.6,1.6,1.6h16.4c0.9,0,1.6-0.7,1.6-1.6v-1.6c0-0.9-0.7-1.6-1.6-1.6H855.8z M855.8,82c-0.9,0-1.6,0.7-1.6,1.6v1.6
	c0,0.9,0.7,1.6,1.6,1.6h16.4c0.9,0,1.6-0.7,1.6-1.6v-1.6c0-0.9-0.7-1.6-1.6-1.6H855.8z M855.8,73.8c-0.9,0-1.6,0.7-1.6,1.6v1.6
	c0,0.9,0.7,1.6,1.6,1.6h16.4c0.9,0,1.6-0.7,1.6-1.6v-1.6c0-0.9-0.7-1.6-1.6-1.6H855.8z M849.3,90.2c-0.9,0-1.6,0.7-1.6,1.6v1.6
	c0,0.9,0.7,1.6,1.6,1.6h1.6c0.9,0,1.6-0.7,1.6-1.6v-1.6c0-0.9-0.7-1.6-1.6-1.6H849.3z M849.3,82c-0.9,0-1.6,0.7-1.6,1.6v1.6
	c0,0.9,0.7,1.6,1.6,1.6h1.6c0.9,0,1.6-0.7,1.6-1.6v-1.6c0-0.9-0.7-1.6-1.6-1.6H849.3z M849.3,73.8c-0.9,0-1.6,0.7-1.6,1.6v1.6
	c0,0.9,0.7,1.6,1.6,1.6h1.6c0.9,0,1.6-0.7,1.6-1.6v-1.6c0-0.9-0.7-1.6-1.6-1.6H849.3z"/>
<path opacity="0.3" fill-rule="evenodd" clip-rule="evenodd" fill="#3A5898" d="M1007.5,26.5c0,0.4,0.1,0.8,0.2,1.2l-6.6,4.7
	c-0.8-0.6-1.8-1-2.9-1c-2.7,0-4.8,2.1-4.8,4.7c0,2.6,2.2,4.7,4.8,4.7c1.1,0,2.1-0.4,2.9-1l6.6,4.7c-0.1,0.4-0.2,0.8-0.2,1.2
	c0,2.6,2.2,4.7,4.8,4.7c2.7,0,4.8-2.1,4.8-4.7c0-2.6-2.2-4.7-4.8-4.7c-0.9,0-1.7,0.2-2.5,0.7l-7-4.9c0-0.2,0-0.4,0-0.6
	c0-0.2,0-0.4,0-0.6l7-4.9c0.7,0.4,1.6,0.7,2.5,0.7c2.7,0,4.8-2.1,4.8-4.7c0-2.6-2.2-4.7-4.8-4.7
	C1009.6,21.8,1007.5,23.9,1007.5,26.5z"/>
<path opacity="0.3" fill-rule="evenodd" clip-rule="evenodd" fill="#3A5898" d="M196.1,77.9v23.5l9.6-8.4l9.6,8.4V77.9H196.1z
	 M196.1,72.9v3.4h19.1v-3.4H196.1z"/>
<path opacity="0.3" fill="#3A5898" d="M99.2,67.3c-0.3-0.8,0.1-1.8,1-2.1l0,0c0.8-0.3,1.8,0.1,2.1,1l0,0c0.3,0.8-0.1,1.8-1,2.1l0,0
	c-0.2,0.1-0.4,0.1-0.6,0.1l0,0C100.1,68.4,99.4,68,99.2,67.3z M365,67.3c-0.8-0.3-1.3-1.2-1-2.1l0,0c0.3-0.8,1.2-1.3,2.1-1l0,0
	c0.8,0.3,1.3,1.2,1,2.1l0,0c-0.2,0.7-0.9,1.1-1.5,1.1l0,0C365.4,67.4,365.2,67.4,365,67.3z M107,64.7c-0.3-0.9,0.2-1.8,1.1-2l0,0
	c0.9-0.3,1.8,0.2,2,1.1l0,0c0.3,0.9-0.2,1.8-1.1,2l0,0c-0.2,0-0.3,0.1-0.5,0.1l0,0C107.8,65.8,107.2,65.4,107,64.7z M357.4,64.6
	c-0.8-0.3-1.3-1.2-1-2.1l0,0c0.3-0.9,1.2-1.3,2.1-1l0,0c0.9,0.3,1.3,1.2,1,2.1l0,0c-0.2,0.7-0.9,1.1-1.5,1.1l0,0
	C357.7,64.7,357.5,64.7,357.4,64.6z M114.8,62.4c-0.2-0.9,0.3-1.8,1.1-2l0,0c0.9-0.2,1.8,0.3,2,1.1l0,0c0.2,0.9-0.3,1.8-1.1,2l0,0
	c-0.1,0-0.3,0.1-0.4,0.1l0,0C115.7,63.6,115,63.1,114.8,62.4z M349.6,62.1c-0.9-0.3-1.3-1.2-1.1-2l0,0c0.3-0.9,1.2-1.3,2-1.1l0,0
	c0.9,0.3,1.3,1.2,1.1,2l0,0c-0.2,0.7-0.9,1.2-1.6,1.2l0,0C349.9,62.2,349.8,62.2,349.6,62.1z M122.7,60.2c-0.2-0.9,0.3-1.8,1.2-2
	l0,0c0.9-0.2,1.8,0.3,2,1.2l0,0c0.2,0.9-0.3,1.8-1.2,2l0,0c-0.1,0-0.3,0.1-0.4,0.1l0,0C123.5,61.4,122.9,61,122.7,60.2z M341.8,59.9
	L341.8,59.9c-0.9-0.2-1.4-1.1-1.1-2l0,0c0.2-0.9,1.1-1.4,2-1.1l0,0l0,0l0,0c0.9,0.2,1.4,1.2,1.1,2l0,0c-0.2,0.7-0.9,1.2-1.6,1.2l0,0
	C342.1,59.9,342,59.9,341.8,59.9z M130.6,58.2c-0.2-0.9,0.3-1.8,1.2-2l0,0c0.9-0.2,1.8,0.3,2,1.2l0,0c0.2,0.9-0.3,1.8-1.2,2l0,0
	c-0.1,0-0.3,0-0.4,0l0,0C131.5,59.5,130.8,59,130.6,58.2z M334,57.8c-0.9-0.2-1.4-1.1-1.2-2l0,0c0.2-0.9,1.1-1.4,2-1.2l0,0
	c0.9,0.2,1.4,1.1,1.2,2l0,0c-0.2,0.7-0.8,1.2-1.6,1.2l0,0C334.3,57.8,334.1,57.8,334,57.8z M138.6,56.4c-0.2-0.9,0.4-1.8,1.2-2l0,0
	c0.9-0.2,1.8,0.4,1.9,1.2l0,0c0.2,0.9-0.4,1.7-1.2,1.9l0,0c-0.1,0-0.2,0-0.4,0l0,0C139.4,57.7,138.7,57.1,138.6,56.4z M146.6,54.7
	c-0.2-0.9,0.4-1.7,1.3-1.9l0,0l0,0l0,0c0.9-0.2,1.7,0.4,1.9,1.3l0,0c0.2,0.9-0.4,1.7-1.3,1.9l0,0c-0.1,0-0.2,0-0.3,0l0,0
	C147.4,56,146.7,55.4,146.6,54.7z M326.1,55.9c-0.9-0.2-1.4-1.1-1.2-2l0,0c0.2-0.9,1.1-1.4,2-1.2l0,0l0,0l0,0c0.9,0.2,1.4,1.1,1.2,2
	l0,0c-0.2,0.8-0.8,1.3-1.6,1.3l0,0C326.3,55.9,326.2,55.9,326.1,55.9z M154.6,53.1c-0.2-0.9,0.4-1.7,1.3-1.9l0,0
	c0.9-0.2,1.7,0.4,1.9,1.3l0,0c0.2,0.9-0.4,1.7-1.3,1.9l0,0c-0.1,0-0.2,0-0.3,0l0,0C155.4,54.4,154.7,53.9,154.6,53.1z M318.2,54.1
	c-0.9-0.2-1.5-1-1.3-1.9l0,0c0.2-0.9,1-1.5,1.9-1.3l0,0l0,0l0,0c0.9,0.2,1.5,1,1.3,1.9l0,0c-0.2,0.8-0.8,1.3-1.6,1.3l0,0
	C318.4,54.2,318.3,54.2,318.2,54.1z M162.6,51.7c-0.1-0.9,0.5-1.7,1.3-1.9l0,0c0.9-0.1,1.7,0.4,1.9,1.3l0,0c0.1,0.9-0.5,1.7-1.3,1.9
	l0,0c-0.1,0-0.2,0-0.3,0l0,0C163.4,53,162.7,52.5,162.6,51.7z M310.2,52.6c-0.9-0.2-1.5-1-1.3-1.9l0,0c0.2-0.9,1-1.5,1.9-1.3l0,0
	l0,0l0,0c0.9,0.2,1.5,1,1.3,1.9l0,0c-0.1,0.8-0.8,1.3-1.6,1.3l0,0C310.4,52.6,310.3,52.6,310.2,52.6z M170.7,50.4
	c-0.1-0.9,0.5-1.7,1.4-1.9l0,0c0.9-0.1,1.7,0.5,1.9,1.4l0,0c0.1,0.9-0.5,1.7-1.4,1.9l0,0c-0.1,0-0.2,0-0.2,0l0,0
	C171.5,51.8,170.8,51.2,170.7,50.4z M302.2,51.3c-0.9-0.1-1.5-1-1.4-1.9l0,0c0.1-0.9,1-1.5,1.9-1.4l0,0c0.9,0.1,1.5,1,1.4,1.9l0,0
	c-0.1,0.8-0.8,1.4-1.6,1.4l0,0C302.3,51.3,302.2,51.3,302.2,51.3z M178.8,49.2c-0.1-0.9,0.5-1.7,1.4-1.8l0,0l0,0l0,0
	c0.9-0.1,1.7,0.5,1.8,1.4l0,0c0.1,0.9-0.5,1.7-1.4,1.8l0,0c-0.1,0-0.1,0-0.2,0l0,0C179.6,50.6,178.9,50,178.8,49.2z M294.1,50.1
	c-0.9-0.1-1.5-0.9-1.4-1.8l0,0c0.1-0.9,0.9-1.5,1.8-1.4l0,0c0.9,0.1,1.5,0.9,1.4,1.8l0,0c-0.1,0.8-0.8,1.4-1.6,1.4l0,0
	C294.3,50.1,294.2,50.1,294.1,50.1z M186.9,48.2c-0.1-0.9,0.5-1.7,1.4-1.8l0,0c0.9-0.1,1.7,0.5,1.8,1.4l0,0c0.1,0.9-0.5,1.7-1.4,1.8
	l0,0c-0.1,0-0.1,0-0.2,0l0,0C187.7,49.6,186.9,49,186.9,48.2z M286.1,49.1c-0.9-0.1-1.5-0.9-1.4-1.8l0,0c0.1-0.9,0.9-1.5,1.8-1.4
	l0,0c0.9,0.1,1.5,0.9,1.4,1.8l0,0c-0.1,0.8-0.8,1.4-1.6,1.4l0,0C286.2,49.1,286.1,49.1,286.1,49.1z M195,47.3
	c-0.1-0.9,0.6-1.7,1.5-1.8l0,0c0.9-0.1,1.7,0.6,1.8,1.5l0,0c0.1,0.9-0.6,1.7-1.5,1.8l0,0c-0.1,0-0.1,0-0.2,0l0,0
	C195.8,48.8,195.1,48.1,195,47.3z M278,48.3c-0.9-0.1-1.6-0.9-1.5-1.8l0,0c0.1-0.9,0.9-1.6,1.8-1.5l0,0c0.9,0.1,1.6,0.9,1.5,1.8l0,0
	c-0.1,0.8-0.8,1.5-1.6,1.5l0,0C278.1,48.3,278,48.3,278,48.3z M203.1,46.6c-0.1-0.9,0.6-1.7,1.5-1.8l0,0l0,0l0,0
	c0.9-0.1,1.7,0.6,1.8,1.5l0,0c0.1,0.9-0.6,1.7-1.5,1.8l0,0c0,0-0.1,0-0.1,0l0,0C203.9,48.1,203.2,47.4,203.1,46.6z M269.9,47.6
	c-0.9-0.1-1.6-0.8-1.5-1.7l0,0c0.1-0.9,0.8-1.6,1.7-1.5l0,0c0.9,0.1,1.6,0.8,1.5,1.7l0,0c-0.1,0.9-0.8,1.5-1.6,1.5l0,0
	C269.9,47.6,269.9,47.6,269.9,47.6z M211.2,45.9c-0.1-0.9,0.6-1.7,1.5-1.7l0,0c0.9-0.1,1.7,0.6,1.7,1.5l0,0c0.1,0.9-0.6,1.7-1.5,1.7
	l0,0c0,0-0.1,0-0.1,0l0,0C212,47.5,211.3,46.8,211.2,45.9z M261.8,47.1c-0.9,0-1.6-0.8-1.6-1.7l0,0c0-0.9,0.8-1.6,1.7-1.6l0,0l0,0
	l0,0c0.9,0,1.6,0.8,1.6,1.7l0,0C263.4,46.5,262.7,47.1,261.8,47.1L261.8,47.1C261.8,47.1,261.8,47.1,261.8,47.1z M219.4,45.5
	c0-0.9,0.7-1.7,1.6-1.7l0,0c0.9,0,1.7,0.7,1.7,1.6l0,0c0,0.9-0.7,1.7-1.6,1.7l0,0c0,0,0,0-0.1,0l0,0C220.2,47,219.4,46.4,219.4,45.5
	z M252,45.1c0-0.9,0.8-1.6,1.7-1.6l0,0c0.9,0,1.6,0.8,1.6,1.7l0,0c0,0.9-0.8,1.6-1.7,1.6l0,0C252.7,46.8,252,46,252,45.1z
	 M227.6,45.2c0-0.9,0.7-1.6,1.6-1.7l0,0c0.9,0,1.6,0.7,1.7,1.6l0,0c0,0.9-0.7,1.6-1.6,1.7l0,0c0,0,0,0,0,0l0,0
	C228.3,46.8,227.6,46.1,227.6,45.2z M245.5,46.6c-0.9,0-1.6-0.8-1.6-1.6l0,0c0-0.9,0.8-1.6,1.6-1.6l0,0c0.9,0,1.6,0.8,1.6,1.6l0,0
	C247.1,45.9,246.4,46.6,245.5,46.6L245.5,46.6C245.5,46.6,245.5,46.6,245.5,46.6z M235.7,45c0-0.9,0.7-1.6,1.6-1.6l0,0
	c0.9,0,1.6,0.7,1.6,1.6l0,0c0,0.9-0.7,1.6-1.6,1.6l0,0c0,0,0,0,0,0l0,0C236.5,46.6,235.7,45.9,235.7,45z"/>
<path opacity="0.3" fill="#3A5898" d="M660.1,67.4c-0.4-0.8,0-1.8,0.9-2.1l0,0l0,0l0,0c0.8-0.4,1.8,0,2.1,0.9l0,0
	c0.4,0.8,0,1.8-0.8,2.1l0,0c-0.2,0.1-0.4,0.1-0.6,0.1l0,0C660.9,68.4,660.3,68,660.1,67.4z M667.6,64.3c-0.3-0.8,0.1-1.8,0.9-2.1
	l0,0l0,0l0,0c0.8-0.3,1.8,0.1,2.1,0.9l0,0c0.3,0.8-0.1,1.8-0.9,2.1l0,0c-0.2,0.1-0.4,0.1-0.6,0.1l0,0
	C668.5,65.3,667.9,64.9,667.6,64.3z M675.3,61.4c-0.3-0.8,0.1-1.8,1-2.1l0,0c0.8-0.3,1.8,0.1,2.1,1l0,0c0.3,0.8-0.1,1.8-1,2.1l0,0
	c-0.2,0.1-0.4,0.1-0.6,0.1l0,0C676.1,62.4,675.5,62,675.3,61.4z M683,58.6c-0.3-0.9,0.2-1.8,1-2.1l0,0l0,0l0,0
	c0.8-0.3,1.8,0.1,2.1,1l0,0c0.3,0.8-0.2,1.8-1,2.1l0,0c-0.2,0.1-0.4,0.1-0.5,0.1l0,0C683.8,59.7,683.2,59.3,683,58.6z M690.7,55.9
	c-0.3-0.9,0.2-1.8,1-2.1l0,0c0.9-0.3,1.8,0.2,2.1,1l0,0c0.3,0.9-0.2,1.8-1,2.1l0,0c-0.2,0.1-0.4,0.1-0.5,0.1l0,0
	C691.6,57,690.9,56.6,690.7,55.9z M698.5,53.4c-0.3-0.9,0.2-1.8,1.1-2.1l0,0c0.9-0.3,1.8,0.2,2,1.1l0,0c0.3,0.9-0.2,1.8-1.1,2l0,0
	c-0.2,0.1-0.3,0.1-0.5,0.1l0,0C699.3,54.5,698.7,54.1,698.5,53.4z M706.3,50.9c-0.3-0.9,0.2-1.8,1.1-2l0,0c0.9-0.3,1.8,0.2,2,1.1
	l0,0c0.3,0.9-0.2,1.8-1.1,2l0,0c-0.2,0-0.3,0.1-0.5,0.1l0,0C707.1,52,706.5,51.6,706.3,50.9z M714.1,48.5c-0.3-0.9,0.2-1.8,1.1-2
	l0,0c0.9-0.3,1.8,0.2,2,1.1l0,0c0.3,0.9-0.2,1.8-1.1,2l0,0c-0.2,0-0.3,0.1-0.5,0.1l0,0C714.9,49.7,714.3,49.2,714.1,48.5z
	 M721.9,46.2c-0.2-0.9,0.3-1.8,1.1-2l0,0c0,0,0,0,0,0l0,0c0.9-0.2,1.8,0.3,2,1.1l0,0c0.2,0.9-0.3,1.8-1.1,2l0,0
	c-0.1,0-0.3,0.1-0.4,0.1l0,0C722.8,47.4,722.1,47,721.9,46.2z M729.8,44.1c-0.2-0.9,0.3-1.8,1.2-2l0,0c0.9-0.2,1.8,0.3,2,1.2l0,0
	c0.2,0.9-0.3,1.8-1.2,2l0,0c-0.1,0-0.3,0-0.4,0l0,0C730.6,45.3,730,44.8,729.8,44.1z M737.7,42c-0.2-0.9,0.3-1.8,1.2-2l0,0
	c0.9-0.2,1.8,0.3,2,1.2l0,0c0.2,0.9-0.3,1.8-1.2,2l0,0c-0.1,0-0.3,0-0.4,0l0,0C738.5,43.2,737.9,42.7,737.7,42z M745.6,40
	c-0.2-0.9,0.3-1.8,1.2-2l0,0c0.9-0.2,1.8,0.3,2,1.2l0,0c0.2,0.9-0.3,1.8-1.2,2l0,0c-0.1,0-0.3,0-0.4,0l0,0
	C746.4,41.2,745.8,40.7,745.6,40z M753.5,38c-0.2-0.9,0.3-1.8,1.2-2l0,0l0,0l0,0c0.9-0.2,1.8,0.3,2,1.2l0,0c0.2,0.9-0.3,1.8-1.2,2
	l0,0c-0.1,0-0.2,0-0.4,0l0,0C754.4,39.3,753.7,38.8,753.5,38z M761.5,36.2c-0.2-0.9,0.4-1.8,1.2-1.9l0,0c0.9-0.2,1.7,0.4,1.9,1.2
	l0,0c0.2,0.9-0.4,1.7-1.2,1.9l0,0c-0.1,0-0.2,0-0.4,0l0,0C762.3,37.5,761.7,37,761.5,36.2z M769.5,34.5c-0.2-0.9,0.4-1.7,1.3-1.9
	l0,0l0,0l0,0c0.9-0.2,1.8,0.4,1.9,1.3l0,0c0.2,0.9-0.4,1.7-1.3,1.9l0,0c-0.1,0-0.2,0-0.3,0l0,0C770.3,35.8,769.6,35.3,769.5,34.5z
	 M777.5,32.9c-0.2-0.9,0.4-1.7,1.3-1.9l0,0c0,0,0,0,0,0l0,0c0.9-0.2,1.7,0.4,1.9,1.3l0,0c0.2,0.9-0.4,1.7-1.3,1.9l0,0
	c-0.1,0-0.2,0-0.3,0l0,0C778.3,34.2,777.6,33.6,777.5,32.9z M785.5,31.3c-0.2-0.9,0.4-1.7,1.3-1.9l0,0c0.9-0.2,1.7,0.4,1.9,1.3l0,0
	c0.2,0.9-0.4,1.7-1.3,1.9l0,0c-0.1,0-0.2,0-0.3,0l0,0C786.3,32.7,785.7,32.1,785.5,31.3z M793.5,29.9c-0.2-0.9,0.4-1.7,1.3-1.9l0,0
	c0.9-0.2,1.7,0.4,1.9,1.3l0,0c0.2,0.9-0.4,1.7-1.3,1.9l0,0c-0.1,0-0.2,0-0.3,0l0,0C794.4,31.2,793.7,30.7,793.5,29.9z M981.6,30
	c-0.9-0.2-1.5-1-1.3-1.9l0,0c0.2-0.9,1-1.5,1.9-1.3l0,0c0.9,0.2,1.5,1,1.3,1.9l0,0c-0.1,0.8-0.8,1.3-1.6,1.3l0,0
	C981.8,30,981.7,30,981.6,30z M801.6,28.5c-0.1-0.9,0.5-1.7,1.4-1.9l0,0c0.9-0.1,1.7,0.5,1.9,1.4l0,0c0.1,0.9-0.5,1.7-1.4,1.9l0,0
	c-0.1,0-0.2,0-0.3,0l0,0C802.4,29.9,801.7,29.3,801.6,28.5z M809.7,27.3c-0.1-0.9,0.5-1.7,1.4-1.8l0,0c0,0,0,0,0,0l0,0
	c0.9-0.1,1.7,0.5,1.9,1.4l0,0c0.1,0.9-0.5,1.7-1.4,1.8l0,0c-0.1,0-0.2,0-0.2,0l0,0C810.5,28.7,809.8,28.1,809.7,27.3z M973.6,28.6
	c-0.9-0.1-1.5-1-1.3-1.9l0,0c0.1-0.9,1-1.5,1.9-1.3l0,0c0.9,0.1,1.5,1,1.3,1.9l0,0c-0.1,0.8-0.8,1.4-1.6,1.4l0,0
	C973.8,28.6,973.7,28.6,973.6,28.6z M817.8,26.1c-0.1-0.9,0.5-1.7,1.4-1.8l0,0c0.9-0.1,1.7,0.5,1.8,1.4l0,0c0.1,0.9-0.5,1.7-1.4,1.8
	l0,0c-0.1,0-0.1,0-0.2,0l0,0C818.6,27.6,817.9,27,817.8,26.1z M965.6,27.3c-0.9-0.1-1.5-1-1.4-1.9l0,0c0.1-0.9,1-1.5,1.9-1.4l0,0
	c0.9,0.1,1.5,1,1.4,1.9l0,0c-0.1,0.8-0.8,1.4-1.6,1.4l0,0C965.7,27.3,965.7,27.3,965.6,27.3z M825.9,25.1c-0.1-0.9,0.5-1.7,1.4-1.8
	l0,0c0.9-0.1,1.7,0.5,1.8,1.4l0,0c0.1,0.9-0.5,1.7-1.4,1.8l0,0c-0.1,0-0.1,0-0.2,0l0,0C826.7,26.5,825.9,25.9,825.9,25.1z
	 M957.5,26.2c-0.9-0.1-1.5-0.9-1.4-1.8l0,0c0.1-0.9,0.9-1.5,1.8-1.4l0,0c0.9,0.1,1.5,0.9,1.4,1.8l0,0c-0.1,0.8-0.8,1.4-1.6,1.4l0,0
	C957.7,26.2,957.6,26.2,957.5,26.2z M834,24.2c-0.1-0.9,0.6-1.7,1.5-1.8l0,0c0,0,0,0,0,0l0,0c0.9-0.1,1.7,0.6,1.8,1.4l0,0
	c0.1,0.9-0.6,1.7-1.5,1.8l0,0c-0.1,0-0.1,0-0.2,0l0,0C834.8,25.6,834.1,25,834,24.2z M949.4,25.2c-0.9-0.1-1.5-0.9-1.4-1.8l0,0
	c0.1-0.9,0.9-1.5,1.8-1.4l0,0c0.9,0.1,1.5,0.9,1.4,1.8l0,0c-0.1,0.8-0.8,1.4-1.6,1.4l0,0C949.6,25.2,949.5,25.2,949.4,25.2z
	 M842.1,23.3c-0.1-0.9,0.6-1.7,1.5-1.8l0,0c0.9-0.1,1.7,0.6,1.8,1.5l0,0c0.1,0.9-0.6,1.7-1.5,1.8l0,0c0,0-0.1,0-0.1,0l0,0
	C842.9,24.8,842.2,24.2,842.1,23.3z M941.4,24.4L941.4,24.4c-0.9-0.1-1.6-0.9-1.5-1.8l0,0c0.1-0.9,0.9-1.6,1.8-1.5l0,0
	c0.9,0.1,1.6,0.9,1.5,1.8l0,0c-0.1,0.8-0.8,1.5-1.6,1.5l0,0C941.5,24.4,941.4,24.4,941.4,24.4z M850.2,22.6
	c-0.1-0.9,0.6-1.7,1.5-1.8l0,0c0.9-0.1,1.7,0.6,1.8,1.5l0,0c0.1,0.9-0.6,1.7-1.5,1.8l0,0c0,0-0.1,0-0.1,0l0,0
	C851,24.1,850.3,23.5,850.2,22.6z M933.3,23.7c-0.9-0.1-1.6-0.8-1.5-1.7l0,0c0.1-0.9,0.8-1.6,1.7-1.5l0,0l0,0l0,0
	c0.9,0.1,1.6,0.8,1.5,1.7l0,0c-0.1,0.9-0.8,1.5-1.6,1.5l0,0C933.3,23.7,933.3,23.7,933.3,23.7z M858.4,22c-0.1-0.9,0.6-1.7,1.5-1.7
	l0,0c0.9-0.1,1.7,0.6,1.7,1.5l0,0c0.1,0.9-0.6,1.7-1.5,1.7l0,0c0,0-0.1,0-0.1,0l0,0C859.1,23.5,858.4,22.9,858.4,22z M925.1,23.2
	c-0.9-0.1-1.6-0.8-1.5-1.7l0,0c0-0.9,0.8-1.6,1.7-1.5l0,0c0.9,0.1,1.6,0.8,1.5,1.7l0,0C926.8,22.5,926.1,23.2,925.1,23.2L925.1,23.2
	C925.2,23.2,925.2,23.2,925.1,23.2z M866.5,21.5c0-0.9,0.6-1.7,1.6-1.7l0,0c0.9,0,1.7,0.6,1.7,1.5l0,0c0,0.9-0.7,1.7-1.6,1.7l0,0
	c0,0-0.1,0-0.1,0l0,0C867.3,23.1,866.6,22.4,866.5,21.5z M917,22.8c-0.9,0-1.6-0.8-1.6-1.7l0,0c0-0.9,0.8-1.6,1.7-1.6l0,0
	c0.9,0,1.6,0.8,1.6,1.7l0,0C918.7,22.1,918,22.8,917,22.8L917,22.8C917.1,22.8,917,22.8,917,22.8z M874.7,21.1
	c0-0.9,0.7-1.7,1.6-1.7l0,0c0.9,0,1.7,0.7,1.7,1.6l0,0c0,0.9-0.7,1.7-1.6,1.7l0,0c0,0,0,0-0.1,0l0,0C875.4,22.7,874.7,22,874.7,21.1
	z M908.9,22.5c-0.9,0-1.6-0.8-1.6-1.7l0,0c0-0.9,0.8-1.6,1.7-1.6l0,0l0,0l0,0c0.9,0,1.6,0.8,1.6,1.7l0,0
	C910.5,21.8,909.8,22.5,908.9,22.5L908.9,22.5C908.9,22.5,908.9,22.5,908.9,22.5z M882.8,20.9c0-0.9,0.7-1.6,1.6-1.7l0,0
	c0.9,0,1.6,0.7,1.7,1.6l0,0c0,0.9-0.7,1.6-1.6,1.7l0,0c0,0,0,0,0,0l0,0C883.6,22.5,882.8,21.8,882.8,20.9z M900.8,22.4
	c-0.9,0-1.6-0.7-1.6-1.6l0,0c0-0.9,0.7-1.6,1.6-1.6l0,0c0.9,0,1.6,0.8,1.6,1.6l0,0C902.4,21.7,901.7,22.4,900.8,22.4L900.8,22.4
	L900.8,22.4z M891,20.7c0-0.9,0.7-1.6,1.6-1.6l0,0c0.9,0,1.6,0.7,1.6,1.6l0,0c0,0.9-0.7,1.6-1.6,1.6l0,0c0,0,0,0,0,0l0,0
	C891.7,22.4,891,21.6,891,20.7z"/>
<path opacity="0.3" fill="#3A5898" d="M879.7,83.9c-0.7-0.6-0.7-1.6-0.1-2.3l0,0c0.6-0.7,1.6-0.7,2.3-0.1l0,0
	c0.7,0.6,0.7,1.6,0.1,2.3l0,0c-0.3,0.4-0.8,0.6-1.2,0.6l0,0C880.4,84.3,880,84.1,879.7,83.9z M885.2,77.8c-0.6-0.6-0.6-1.7,0-2.3
	l0,0c0.6-0.6,1.7-0.6,2.3,0l0,0c0.6,0.6,0.6,1.7,0,2.3l0,0c-0.3,0.3-0.7,0.5-1.2,0.5l0,0C885.9,78.3,885.5,78.2,885.2,77.8z
	 M891,72.2c-0.6-0.7-0.5-1.7,0.1-2.3l0,0c0.7-0.6,1.7-0.5,2.3,0.1l0,0c0.6,0.7,0.5,1.7-0.1,2.3l0,0c-0.3,0.3-0.7,0.4-1.1,0.4l0,0
	C891.8,72.7,891.4,72.5,891,72.2z M897.2,66.8c-0.6-0.7-0.4-1.7,0.3-2.3l0,0c0.7-0.6,1.7-0.4,2.3,0.3l0,0c0.6,0.7,0.4,1.7-0.3,2.3
	l0,0c-0.3,0.2-0.7,0.4-1,0.4l0,0C898,67.5,897.6,67.3,897.2,66.8z M903.7,61.9c-0.5-0.7-0.3-1.8,0.4-2.3l0,0
	c0.7-0.5,1.8-0.3,2.3,0.4l0,0c0.5,0.7,0.3,1.8-0.4,2.3l0,0l0,0l0,0c-0.3,0.2-0.6,0.3-0.9,0.3l0,0C904.6,62.6,904.1,62.4,903.7,61.9z
	 M910.6,57.5c-0.5-0.8-0.2-1.8,0.6-2.2l0,0c0.8-0.5,1.8-0.2,2.2,0.6l0,0c0.5,0.8,0.2,1.8-0.6,2.2l0,0c-0.3,0.2-0.5,0.2-0.8,0.2l0,0
	C911.4,58.3,910.9,58,910.6,57.5z M917.7,53.4c-0.4-0.8-0.1-1.8,0.7-2.2l0,0c0.8-0.4,1.8-0.1,2.2,0.7l0,0c0.4,0.8,0.1,1.8-0.7,2.2
	l0,0c-0.2,0.1-0.5,0.2-0.7,0.2l0,0C918.5,54.3,918,54,917.7,53.4z M925,49.9c-0.4-0.8,0-1.8,0.9-2.1l0,0c0.8-0.4,1.8,0,2.1,0.9l0,0
	c0.4,0.8,0,1.8-0.9,2.1l0,0l0,0l0,0c-0.2,0.1-0.4,0.1-0.6,0.1l0,0C925.9,50.9,925.3,50.5,925,49.9z M932.6,46.8
	c-0.3-0.8,0.1-1.8,1-2.1l0,0c0.8-0.3,1.8,0.1,2.1,1l0,0c0.3,0.8-0.1,1.8-1,2.1l0,0c-0.2,0.1-0.4,0.1-0.5,0.1l0,0
	C933.5,47.9,932.8,47.5,932.6,46.8z M940.3,44.3c-0.2-0.9,0.3-1.8,1.1-2l0,0c0.9-0.2,1.8,0.3,2,1.1l0,0c0.2,0.9-0.3,1.8-1.1,2l0,0
	c-0.1,0-0.3,0.1-0.4,0.1l0,0C941.2,45.5,940.6,45,940.3,44.3z M948.3,42.2c-0.2-0.9,0.4-1.7,1.2-1.9l0,0c0.9-0.2,1.8,0.4,1.9,1.3
	l0,0c0.2,0.9-0.4,1.7-1.3,1.9l0,0c-0.1,0-0.2,0-0.3,0l0,0C949.1,43.5,948.4,43,948.3,42.2z M956.3,40.7c-0.1-0.9,0.5-1.7,1.4-1.9
	l0,0c0.9-0.1,1.7,0.5,1.9,1.4l0,0c0.1,0.9-0.5,1.7-1.4,1.9l0,0c-0.1,0-0.2,0-0.2,0l0,0C957.1,42.1,956.4,41.5,956.3,40.7z
	 M964.4,39.6c-0.1-0.9,0.6-1.7,1.5-1.8l0,0c0.9-0.1,1.7,0.6,1.8,1.5l0,0c0.1,0.9-0.6,1.7-1.5,1.8l0,0c0,0-0.1,0-0.1,0l0,0
	C965.1,41.1,964.4,40.5,964.4,39.6z M982.1,41L982.1,41L982.1,41c-0.9-0.1-1.5-0.9-1.4-1.8l0,0c0.1-0.9,0.9-1.5,1.8-1.4l0,0
	c0.9,0.1,1.5,0.9,1.4,1.8l0,0c-0.1,0.8-0.8,1.4-1.6,1.4l0,0C982.2,41.1,982.2,41.1,982.1,41z M972.5,39.1c0-0.9,0.7-1.6,1.6-1.6h0
	c0.9,0,1.6,0.7,1.6,1.6l0,0c0,0.9-0.7,1.6-1.6,1.6l0,0c0,0,0,0,0,0l0,0C973.3,40.8,972.5,40,972.5,39.1z"/>
<path opacity="0.3" fill="#3A5898" d="M838.3,81c-0.8-0.3-1.3-1.3-0.9-2.1l0,0c0.3-0.8,1.3-1.3,2.1-0.9l0,0c0.8,0.3,1.3,1.3,0.9,2.1
	l0,0c-0.2,0.6-0.9,1-1.5,1l0,0C838.7,81.1,838.5,81,838.3,81z M660.2,79.7c-0.2-0.9,0.3-1.8,1.1-2l0,0c0.9-0.2,1.8,0.3,2,1.1l0,0
	c0.2,0.9-0.3,1.8-1.1,2l0,0c-0.1,0-0.3,0.1-0.4,0.1l0,0C661.1,80.9,660.4,80.5,660.2,79.7z M668.1,77.6c-0.2-0.9,0.3-1.8,1.2-2l0,0
	c0.9-0.2,1.8,0.3,2,1.2l0,0c0.2,0.9-0.3,1.8-1.2,2l0,0c-0.1,0-0.3,0-0.4,0l0,0C669,78.8,668.3,78.3,668.1,77.6z M830.7,78.5
	L830.7,78.5L830.7,78.5c-0.9-0.3-1.4-1.2-1.1-2l0,0c0.3-0.9,1.2-1.4,2-1.1l0,0c0.9,0.3,1.4,1.2,1.1,2l0,0c-0.2,0.7-0.9,1.2-1.6,1.2
	l0,0C831,78.5,830.8,78.5,830.7,78.5z M676,75.7c-0.2-0.9,0.3-1.8,1.2-2l0,0c0.9-0.2,1.8,0.3,2,1.2l0,0c0.2,0.9-0.4,1.8-1.2,2l0,0
	c-0.1,0-0.2,0-0.4,0l0,0C676.9,76.9,676.2,76.4,676,75.7z M822.9,76.4c-0.9-0.2-1.4-1.1-1.2-2l0,0c0.2-0.9,1.1-1.4,2-1.2l0,0
	c0.9,0.2,1.4,1.1,1.2,2l0,0c-0.2,0.7-0.8,1.2-1.6,1.2l0,0C823.1,76.4,823,76.4,822.9,76.4z M684,73.9c-0.2-0.9,0.4-1.7,1.3-1.9l0,0
	c0.9-0.2,1.7,0.4,1.9,1.3l0,0c0.2,0.9-0.4,1.7-1.3,1.9l0,0c-0.1,0-0.2,0-0.3,0l0,0C684.8,75.2,684.2,74.6,684,73.9z M815,74.5
	c-0.9-0.2-1.4-1.1-1.3-1.9l0,0c0.2-0.9,1.1-1.4,1.9-1.3l0,0c0.9,0.2,1.4,1.1,1.2,1.9l0,0c-0.2,0.8-0.8,1.3-1.6,1.3l0,0
	C815.2,74.6,815.1,74.5,815,74.5z M692,72.3c-0.2-0.9,0.4-1.7,1.3-1.9l0,0c0.9-0.2,1.7,0.4,1.9,1.3l0,0c0.2,0.9-0.4,1.7-1.3,1.9l0,0
	c-0.1,0-0.2,0-0.3,0l0,0C692.8,73.6,692.2,73.1,692,72.3z M807,72.9c-0.9-0.2-1.5-1-1.3-1.9l0,0c0.2-0.9,1-1.5,1.9-1.3l0,0
	c0.9,0.2,1.5,1,1.3,1.9l0,0c-0.1,0.8-0.8,1.3-1.6,1.3l0,0C807.2,73,807.1,73,807,72.9z M700.1,70.9c-0.1-0.9,0.5-1.7,1.4-1.9h0
	c0.9-0.1,1.7,0.5,1.9,1.4l0,0c0.1,0.9-0.5,1.7-1.4,1.9l0,0c-0.1,0-0.2,0-0.3,0l0,0C700.9,72.3,700.2,71.7,700.1,70.9z M799,71.6
	c-0.9-0.1-1.5-1-1.4-1.9l0,0c0.1-0.9,1-1.5,1.9-1.4l0,0c0.9,0.1,1.5,1,1.4,1.9l0,0c-0.1,0.8-0.8,1.4-1.6,1.4l0,0
	C799.2,71.6,799.1,71.6,799,71.6z M708.1,69.7c-0.1-0.9,0.5-1.7,1.4-1.8l0,0c0.9-0.1,1.7,0.5,1.8,1.4l0,0c0.1,0.9-0.5,1.7-1.4,1.8
	l0,0c-0.1,0-0.1,0-0.2,0l0,0C708.9,71.1,708.2,70.5,708.1,69.7z M791,70.5c-0.9-0.1-1.5-0.9-1.4-1.8l0,0c0.1-0.9,0.9-1.5,1.8-1.4
	l0,0c0.9,0.1,1.5,0.9,1.4,1.8l0,0c-0.1,0.8-0.8,1.4-1.6,1.4l0,0C791.1,70.5,791,70.5,791,70.5z M716.2,68.7
	c-0.1-0.9,0.6-1.7,1.5-1.8l0,0c0.9-0.1,1.7,0.5,1.8,1.4l0,0c0.1,0.9-0.6,1.7-1.5,1.8l0,0c-0.1,0-0.1,0-0.2,0l0,0
	C717,70.1,716.3,69.5,716.2,68.7z M782.9,69.6c-0.9-0.1-1.6-0.9-1.5-1.8l0,0c0.1-0.9,0.9-1.6,1.8-1.5l0,0c0.9,0.1,1.6,0.9,1.5,1.8
	l0,0c-0.1,0.8-0.8,1.5-1.6,1.5l0,0C783,69.6,782.9,69.6,782.9,69.6z M724.3,67.9c-0.1-0.9,0.6-1.7,1.5-1.8l0,0
	c0.9-0.1,1.7,0.6,1.8,1.5l0,0c0.1,0.9-0.6,1.7-1.5,1.8l0,0l0,0l0,0c0,0-0.1,0-0.1,0l0,0C725.1,69.4,724.4,68.7,724.3,67.9z
	 M774.8,69c-0.9-0.1-1.6-0.8-1.5-1.7l0,0c0.1-0.9,0.8-1.6,1.7-1.5l0,0c0.9,0.1,1.6,0.8,1.5,1.7l0,0c-0.1,0.9-0.8,1.5-1.6,1.5l0,0
	C774.9,69,774.8,69,774.8,69z M732.5,67.2c0-0.9,0.6-1.7,1.5-1.7l0,0c0.9-0.1,1.7,0.6,1.7,1.5l0,0c0,0.9-0.6,1.7-1.5,1.7l0,0
	c0,0-0.1,0-0.1,0l0,0C733.3,68.8,732.5,68.1,732.5,67.2z M766.7,68.5L766.7,68.5L766.7,68.5c-0.9,0-1.6-0.8-1.6-1.7l0,0
	c0-0.9,0.8-1.6,1.7-1.6l0,0c0.9,0,1.6,0.8,1.6,1.7l0,0C768.4,67.8,767.6,68.5,766.7,68.5L766.7,68.5
	C766.7,68.5,766.7,68.5,766.7,68.5z M740.6,66.8c0-0.9,0.7-1.6,1.6-1.7l0,0c0.9,0,1.7,0.7,1.7,1.6l0,0c0,0.9-0.7,1.7-1.6,1.7l0,0
	c0,0,0,0-0.1,0l0,0C741.4,68.4,740.7,67.7,740.6,66.8z M757,66.6c0-0.9,0.8-1.6,1.7-1.6l0,0c0.9,0,1.6,0.8,1.6,1.7l0,0
	c0,0.9-0.8,1.6-1.7,1.6l0,0l0,0l0,0C757.7,68.3,757,67.5,757,66.6z M748.8,66.6c0-0.9,0.7-1.6,1.6-1.6l0,0c0.9,0,1.6,0.7,1.6,1.6
	l0,0c0,0.9-0.7,1.6-1.6,1.6l0,0c0,0,0,0,0,0l0,0C749.5,68.2,748.8,67.5,748.8,66.6z"/>
<path opacity="0.3" fill="#3A5898" d="M224.7,80.8c-0.4-0.8,0-1.8,0.8-2.2l0,0c0.8-0.4,1.8,0,2.2,0.8l0,0c0.4,0.8,0,1.8-0.8,2.2l0,0
	l0,0l0,0c-0.2,0.1-0.5,0.2-0.7,0.2l0,0C225.5,81.7,225,81.3,224.7,80.8z M369.4,80.7c-0.9-0.3-1.3-1.2-1-2.1l0,0
	c0.3-0.9,1.2-1.3,2.1-1l0,0c0.9,0.3,1.3,1.2,1,2.1l0,0c-0.2,0.7-0.9,1.1-1.5,1.1l0,0C369.8,80.8,369.6,80.7,369.4,80.7z M232.1,77.4
	c-0.3-0.8,0.1-1.8,0.9-2.1l0,0c0.8-0.3,1.8,0.1,2.1,0.9l0,0c0.3,0.8-0.1,1.8-0.9,2.1l0,0c-0.2,0.1-0.4,0.1-0.6,0.1l0,0
	C233,78.4,232.4,78,232.1,77.4z M361.7,78.3c-0.9-0.2-1.4-1.1-1.1-2l0,0c0.2-0.9,1.1-1.4,2-1.1l0,0c0.9,0.2,1.4,1.1,1.1,2l0,0
	c-0.2,0.7-0.9,1.2-1.6,1.2l0,0C362,78.4,361.8,78.4,361.7,78.3z M353.8,76.3c-0.9-0.2-1.4-1.1-1.2-2l0,0c0.2-0.9,1.1-1.4,2-1.2l0,0
	c0.9,0.2,1.4,1.1,1.2,2l0,0c-0.2,0.8-0.8,1.2-1.6,1.2l0,0C354.1,76.3,354,76.3,353.8,76.3z M239.8,74.5c-0.3-0.9,0.2-1.8,1.1-2.1
	l0,0c0.9-0.3,1.8,0.2,2.1,1.1l0,0c0.3,0.9-0.2,1.8-1.1,2.1l0,0c-0.2,0.1-0.3,0.1-0.5,0.1l0,0C240.6,75.7,240,75.2,239.8,74.5z
	 M345.9,74.5L345.9,74.5L345.9,74.5c-0.9-0.2-1.4-1.1-1.2-1.9l0,0c0.2-0.9,1.1-1.4,1.9-1.3l0,0c0.9,0.2,1.4,1.1,1.3,1.9l0,0
	c-0.2,0.8-0.8,1.3-1.6,1.3l0,0C346.2,74.5,346,74.5,345.9,74.5z M247.6,72.2c-0.2-0.9,0.3-1.8,1.2-2l0,0c0.9-0.2,1.8,0.3,2,1.2l0,0
	c0.2,0.9-0.3,1.8-1.2,2l0,0c-0.1,0-0.3,0-0.4,0l0,0C248.4,73.4,247.8,72.9,247.6,72.2z M338,72.9C338,72.9,338,72.9,338,72.9
	L338,72.9c-0.9-0.2-1.5-1-1.3-1.9l0,0c0.2-0.9,1-1.5,1.9-1.3l0,0c0.9,0.2,1.5,1,1.3,1.9l0,0c-0.1,0.8-0.8,1.3-1.6,1.3l0,0
	C338.2,72.9,338.1,72.9,338,72.9z M255.5,70.3c-0.2-0.9,0.4-1.7,1.3-1.9l0,0c0.9-0.2,1.7,0.4,1.9,1.3l0,0c0.2,0.9-0.4,1.7-1.3,1.9
	l0,0c-0.1,0-0.2,0-0.3,0l0,0C256.3,71.6,255.7,71.1,255.5,70.3z M330,71.5c-0.9-0.1-1.5-1-1.4-1.9l0,0c0.1-0.9,1-1.5,1.9-1.4l0,0
	c0.9,0.1,1.5,1,1.4,1.9l0,0c-0.1,0.8-0.8,1.4-1.6,1.4l0,0C330.1,71.5,330,71.5,330,71.5z M321.9,70.4c-0.9-0.1-1.5-0.9-1.4-1.8l0,0
	c0.1-0.9,0.9-1.5,1.8-1.4l0,0c0.9,0.1,1.5,0.9,1.4,1.8l0,0c-0.1,0.8-0.8,1.4-1.6,1.4l0,0C322.1,70.4,322,70.4,321.9,70.4z
	 M263.5,68.9c-0.1-0.9,0.5-1.7,1.4-1.8l0,0c0.9-0.1,1.7,0.5,1.8,1.4l0,0c0.1,0.9-0.5,1.7-1.4,1.9l0,0c-0.1,0-0.2,0-0.2,0l0,0
	C264.4,70.3,263.7,69.7,263.5,68.9z M313.9,69.5c-0.9-0.1-1.6-0.9-1.5-1.8l0,0c0.1-0.9,0.9-1.6,1.8-1.5l0,0c0.9,0.1,1.6,0.9,1.5,1.8
	l0,0c-0.1,0.8-0.8,1.5-1.6,1.5l0,0C314,69.5,313.9,69.5,313.9,69.5z M271.6,67.8c-0.1-0.9,0.6-1.7,1.5-1.8l0,0
	c0.9-0.1,1.7,0.6,1.8,1.5l0,0c0.1,0.9-0.6,1.7-1.5,1.8l0,0c-0.1,0-0.1,0-0.2,0l0,0C272.4,69.3,271.7,68.7,271.6,67.8z M305.8,68.9
	L305.8,68.9L305.8,68.9c-0.9,0-1.6-0.8-1.5-1.7l0,0c0-0.9,0.8-1.6,1.7-1.5l0,0c0.9,0.1,1.6,0.8,1.5,1.7l0,0
	c-0.1,0.9-0.8,1.5-1.6,1.5l0,0C305.8,68.9,305.8,68.9,305.8,68.9z M279.8,67.1c0-0.9,0.6-1.7,1.6-1.7l0,0c0.9,0,1.7,0.6,1.7,1.6l0,0
	c0,0.9-0.6,1.7-1.6,1.7l0,0c0,0-0.1,0-0.1,0l0,0C280.5,68.7,279.8,68,279.8,67.1z M296.1,66.8c0-0.9,0.8-1.6,1.7-1.6l0,0
	c0.9,0,1.6,0.8,1.6,1.7l0,0c0,0.9-0.8,1.6-1.7,1.6l0,0l0,0l0,0C296.8,68.5,296.1,67.7,296.1,66.8z M287.9,66.8
	c0-0.9,0.7-1.6,1.6-1.6l0,0c0.9,0,1.6,0.7,1.6,1.6l0,0c0,0.9-0.7,1.6-1.6,1.6l0,0c0,0,0,0,0,0l0,0C288.7,68.4,287.9,67.7,287.9,66.8
	z"/>
<path opacity="0.3" fill="#3A5898" d="M79.3,46.2c-0.7-0.6-0.8-1.6-0.2-2.3l0,0c0.6-0.7,1.6-0.8,2.3-0.2l0,0
	c0.7,0.6,0.8,1.6,0.2,2.3l0,0c-0.3,0.4-0.8,0.6-1.3,0.6l0,0C80,46.6,79.6,46.5,79.3,46.2z M84.8,40.2c-0.6-0.7-0.6-1.7,0.1-2.3l0,0
	c0.7-0.6,1.7-0.6,2.3,0.1l0,0c0.6,0.7,0.6,1.7-0.1,2.3l0,0c-0.3,0.3-0.7,0.4-1.1,0.4l0,0C85.6,40.7,85.2,40.6,84.8,40.2z M91,34.8
	c-0.6-0.7-0.4-1.7,0.3-2.3l0,0l0,0l0,0c0.7-0.6,1.7-0.4,2.3,0.3l0,0c0.6,0.7,0.4,1.7-0.3,2.3l0,0c-0.3,0.2-0.7,0.3-1,0.3l0,0
	C91.8,35.4,91.3,35.2,91,34.8z M97.6,30c-0.5-0.8-0.2-1.8,0.5-2.2l0,0c0.8-0.5,1.8-0.2,2.2,0.5l0,0c0.5,0.8,0.2,1.8-0.5,2.2l0,0
	c-0.3,0.2-0.6,0.2-0.9,0.2l0,0C98.4,30.8,97.9,30.5,97.6,30z M104.7,26c-0.4-0.8,0-1.8,0.8-2.1l0,0c0.8-0.4,1.8,0,2.1,0.8l0,0
	c0.4,0.8,0,1.8-0.8,2.1l0,0c-0.2,0.1-0.4,0.1-0.6,0.1l0,0C105.6,27,105,26.6,104.7,26z M112.3,23.1c-0.2-0.9,0.3-1.8,1.2-2l0,0
	c0,0,0,0,0,0l0,0c0.9-0.2,1.8,0.3,2,1.2l0,0c0.2,0.9-0.4,1.8-1.2,2l0,0c-0.1,0-0.3,0-0.4,0l0,0C113.2,24.4,112.5,23.9,112.3,23.1z"
	/>
</svg>
