<?xml version="1.0" encoding="utf-8"?>
<!-- Generator: Adobe Illustrator 17.1.0, SVG Export Plug-In . SVG Version: 6.00 Build 0)  -->
<!DOCTYPE svg PUBLIC "-//W3C//DTD SVG 1.1//EN" "http://www.w3.org/Graphics/SVG/1.1/DTD/svg11.dtd">
<svg version="1.1" id="Layer_1" xmlns="http://www.w3.org/2000/svg" xmlns:xlink="http://www.w3.org/1999/xlink" x="0px" y="0px" viewBox="0 0 200 2672" enable-background="new 0 0 200 2672" xml:space="preserve" height="2672px">
<path opacity="0.5" fill="#133783" d="M165.6,529.2v111.9H75.1l-34.8,23.6v-23.6H15.8V529.2H165.6z M71.3,616.1h37.7h0h37.7
	c0.4-6.7-24.2-14.2-24.2-14.2l-1.2-5c-0.4-1.3-2.7-1.1-2.7-1.1v-6.2c2.8-1.3,3.6-8,3.6-8c1.7-1.4,1.5-6.7,1.5-7.5
	c0-0.9-1.2-0.7-1.2-0.7V562c0-2.8-1.1-4.4-2.1-5.5c-7.7-8.4-19.2-6.5-19.2-6.5l2.4,2.1c-2,1-4.1,2.4-5.9,4.4c-1,1.1-2.1,2.7-2.1,5.5
	v11.4c0,0-1.2-0.1-1.2,0.7c0,0.9-0.2,6.1,1.5,7.5c0,0,0.8,6.7,3.6,8v6.2c0,0-2.3-0.3-2.7,1.1l-1.2,5
	C95.5,601.9,70.8,609.4,71.3,616.1z M34.8,616.1h33.7c-0.1-4.1,4.2-8,13.6-12.2c0.2-0.1,0.5-0.2,0.7-0.3c-0.9-0.3-1.4-0.4-1.4-0.4
	l-1.1-4.6c-0.3-1.2-2.5-1-2.5-1v-5.6c2.6-1.2,3.3-7.3,3.3-7.3c1.6-1.3,1.4-6.1,1.4-6.9c0-0.8-1.1-0.6-1.1-0.6v-10.4c0-2.6-1-4-1.9-5
	c-7-7.7-17.5-6-17.5-6l2.2,1.9c-1.9,0.9-3.7,2.2-5.3,4c-0.9,1-1.9,2.5-1.9,5v10.4c0,0-1.1-0.1-1.1,0.6c0,0.8-0.2,5.6,1.4,6.9
	c0,0,0.7,6.1,3.3,7.3v5.6c0,0-2.1-0.3-2.5,1l-1.1,4.6C56.8,603.1,34.4,610,34.8,616.1z M88.5,650.9h85.1v-70.5h36.7V676h-25.1v21.3
	L156.9,676H88.5V650.9z"/>
<g>
	<path opacity="0.5" fill="#133783" d="M40.7,1054.7V1178h173.1v-123.3H40.7z M141.5,1159.3h-80v-56h80V1159.3z M204.9,1159.3h-53.3
		v-14.5h53.3V1159.3z M204.9,1139.1h-53.3v-14.5h53.3V1139.1z M204.9,1117.7h-53.3v-14.5h53.3V1117.7z M204.9,1090.5h-144v-18.8h144
		V1090.5z"/>
	<g>
		<polygon opacity="0.5" fill="#133783" points="170.3,1072.9 170.2,1071.9 162.7,1072.9 		"/>
		<polygon opacity="0.5" fill="#133783" points="32.5,1185.8 32.5,1090.2 1,1094.3 18,1222.5 187.2,1200.1 185.3,1185.8 		"/>
	</g>
</g>
<g opacity="0.5">
	<g>
		<path fill="#133783" d="M53.3,797.6c0-9,34.9-14.1-13-14.1v82.9c5.2,0,9.5,0.1,13,0.3L53.3,797.6z"/>
		<path fill="#133783" d="M155.8,802.6H97.7c-22,0-34.1-0.8-39.9-2.2v78.8c0,6.3,9.3,6.3,43,6.3h55L144.6,844L155.8,802.6z"/>
	</g>
	<rect x="24.2" y="783.9" fill="#133783" width="10.2" height="195.6"/>
	<circle fill="#133783" cx="29.3" cy="767.5" r="9"/>
	<polygon fill="#133783" points="76,943.8 60,959.8 44,943.8 28,959.8 12,943.8 -5.1,960.9 -12.3,960.9 -12.3,979.5 93,979.5 
		93,960.9 	"/>
</g>
<g opacity="0.5">
	<g>
		<path fill="#133783" d="M-20,1365.8h4.9c4.9,0,6.8-2.5,6.8-6.4V1316c0-18.7,8.9-28.2,26.7-28.2h16.5v21.6h-8.3
			c-5.1,0-7.6,2.1-7.6,7.9v38.8c0,12.1-5.3,19.5-18,19.9c12.7,0.4,18,7.9,18,19.9v38.8c0,5.9,2.5,7.9,7.6,7.9h8.3v21.6H18.4
			c-17.8,0-26.7-9.5-26.7-28.2v-43.3c0-4-1.9-6.4-6.8-6.4H-20V1376V1365.8z"/>
		<path fill="#133783" d="M51.2,1431.1l35.9-48.2l-36.9-46.4v-25.2H128v25.2H85.6l36.7,45.8l-36.9,48.8h45.8v25.2h-80V1431.1z"/>
		<path fill="#133783" d="M202.1,1376v10.2h-4.9c-4.9,0-6.8,2.5-6.8,6.4v43.3c0,18.7-8.9,28.2-26.7,28.2h-16.5v-21.6h8.3
			c5.1,0,7.6-2.1,7.6-7.9v-38.8c0-11.9,5.3-19.5,18-19.9c-12.7-0.4-18-7.8-18-19.9v-38.8c0-5.9-2.5-7.9-7.6-7.9h-8.3v-21.6h16.5
			c17.8,0,26.7,9.5,26.7,28.2v43.3c0,4,1.9,6.4,6.8,6.4h4.9V1376z"/>
	</g>
</g>
<g opacity="0.5">
	<path fill="#133783" d="M13.3,33c0-0.2,0-0.2,0-0.2c2.7-4.9,6.3-9.3,10.5-13.5l0,0.2c4.2,2.4,8.4,5,12.5,7.6c1.4-1.1,2.7-2,3.9-2.8
		c1.7-1.1,3.3-2.3,5.3-3c0.6-0.3,1.3-0.6,2-0.7c-0.2-5-0.4-10-0.5-15c2.2-0.8,4.4-1.1,6.9-1.6c0.7-0.1,1.3-0.2,1.8-0.2
		c0.7-0.1,1.3-0.2,1.8-0.2c2.3-0.1,4.3-0.4,6.4-0.2c1.3,4.6,2.4,9.5,3.3,14.4c0.9-0.1,1.6,0,2.5,0.1c0.2,0,0.4-0.1,0.7,0.1
		c1.9,0.2,3.8,0.9,5.7,1.5c1.7,0.5,3.1,0.9,4.6,1.7c3.4-3.7,6.6-7.1,9.9-10.7c0,0,0,0,0.2-0.3c1,0.6,2,1.1,2.7,1.7
		c1.7,0.9,3.2,2.1,4.6,3.3c2.3,1.5,4.1,3.5,6.2,5.5c0,0,0,0-0.2,0c-2.4,4.2-5,8.2-7.7,12.5c1.1,1.2,2.2,2.7,3,3.9
		c1.1,1.7,2.1,3.6,2.8,5.3c0.6,0.8,0.9,1.7,1,2.4c5-0.2,10-0.4,14.8-0.4c0.8,2.2,1.3,4.4,1.6,6.8c0.5,3.4,0.7,6.8,0.5,10
		c-4.6,1.1-9.3,2.2-14.1,3.3c0.1,0.9,0,1.8-0.3,2.6c-0.2,2.1-0.6,4-1.2,6.1c-0.7,1.7-1.1,3.4-2.1,4.8c3.7,3.4,7.3,6.5,10.7,9.9
		c-2.7,5.2-6.2,9.7-10.4,13.7l0-0.2c-4-2.4-8.2-5-12.2-7.7l-0.2,0c-1,0.8-2.3,1.7-3.3,2.5c-1.9,1.2-4,2.4-6,3.1
		c-0.9,0.3-1.5,0.7-2.1,1c0.2,4.8,0.4,9.8,0.4,14.8c-2,0.5-4,1-6.2,1.3c-0.4,0.1-1.8,0.2-3.4,0.5c-2.5,0.3-5,0.5-7.5,0.3
		c-1.1-4.6-2.2-9.5-3.3-14.4c-0.7-0.1-1.4-0.3-2.1-0.4l0,0c-2.1-0.2-4-0.6-5.9-1.2c-1.7-0.5-3.3-1.1-5.1-2c0,0.2,0,0.2-0.2,0.3
		c-3.2,3.6-6.5,7.3-9.9,10.7c-0.7-0.4-1.5-0.7-2.5-1.3c-1.5-0.9-3-2.1-4.3-3.3c-2.3-1.7-4.6-3.7-6.7-5.9c2.6-4.2,5.2-8.5,7.9-12.5
		c0-0.2,0-0.2,0-0.2c-0.8-1-1.7-2.3-2.5-3.5c-0.9-1.7-2.1-3.4-2.8-5.1c0-0.2-0.1-0.4-0.3-0.4c-0.1-0.9-0.4-1.5-0.7-2
		c-5,0.2-10,0.4-14.7,0.6c-0.8-2.2-1.1-4.4-1.6-6.6c-0.1-0.7-0.2-1.3-0.3-2c-0.1-0.4-0.2-1.1-0.2-1.8c-0.1-2.3-0.4-4.5-0.2-6.8
		c4.6-1.1,9.5-2.2,14.4-3.3c0.1-0.7,0.3-1.4,0.2-2.1c0.4-2.1,0.8-4.2,1.4-6.4c0.5-1.4,1.2-3.1,1.7-4.6C20.6,39.8,16.9,36.4,13.3,33z
		 M75.7,43.5c-4.6-3.7-9.8-5-15.4-4.1c-5.9,0.6-10.3,3.2-14,8.1c-3.5,4.6-4.8,9.8-4.1,15.4c0.8,5.8,3.5,10.2,8.1,14
		c4.8,3.4,9.8,4.8,15.6,4c5.6-0.8,10.2-3.5,13.7-8c3.5-4.8,4.8-9.8,4-15.6C82.9,51.6,80.3,46.9,75.7,43.5z"/>
	<path fill="#133783" d="M126,74.2c0.8-0.6,1.5-0.9,2.1-1c2.6-1,5.2-1.9,7.8-2.7c3.3,5.7,6.1,11.3,8.9,16.8c1.1-0.2,2.2-0.3,3.1-0.4
		c0.4-0.1,0.7-0.1,0.9-0.1c2.7-0.1,5.2-0.3,7.7-0.1c2,0,4.2,0.3,6.3,0.7c2.9-5.6,6-11.3,8.9-16.7c0.2-0.2,0.2-0.2,0.2-0.2
		c1.4,0.3,2.8,0.5,4,1c2.4,0.6,4.5,1.4,6.7,2.5c3.3,1.1,6.5,2.8,9.6,4.9c0,0,0,0,0,0.2c-1.9,6-3.6,11.9-5.5,17.9
		c1.8,1.4,3.3,2.5,4.9,4.1c2,1.5,3.9,3.6,5.6,5.6l0,0c0.8,0.8,1.4,1.6,2,2.7c6.1-2,12.2-3.9,18.4-5.7c1.5,2.5,3,5.1,4.3,7.9
		c1.5,4.4,3,8.5,4,12.7c-5.5,3-11,6.1-16.5,9.1c0.1,0.9,0.3,2,0.4,3.1c0.3,2.5,0.5,5.2,0.2,8c0.1,2.3-0.3,4.6-0.6,6.9
		c5.6,2.9,11.1,5.8,16.7,8.9c-1.8,7.1-4.7,13.9-8.4,20.3c0,0,0,0-0.2,0c-6-1.9-11.9-3.6-18.1-5.5l0,0c-1.2,1.5-2.3,2.8-3.5,4.4
		c-1.8,2.1-4,4-6.5,5.9c-0.6,0.5-1.4,1.1-2.2,1.9c1.9,5.9,3.7,12,5.5,18.2c-2.3,1.5-4.7,2.7-7.2,3.7c-0.6,0.3-1.9,0.9-4.1,1.7
		c-3,1.3-6.1,2.2-8.9,3c-3.3-5.7-6.3-11.2-9.2-17c-0.9,0.1-1.8,0.2-2.7,0.4l-0.2,0c-2.7,0.4-5.2,0.5-7.7,0.4c-2.3-0.1-4.6-0.5-7-0.9
		c0,0,0,0.2-0.2,0.3c-2.9,5.6-6,11.3-8.9,17c-1.2-0.5-2.4-0.8-3.4-1.1c-2.4-0.6-4.5-1.4-6.7-2.3c-3.6-1.6-7.1-3.4-10.3-5.4
		c1.7-6.2,3.6-12.1,5.5-18.3l0,0c-1.5-1.2-2.8-2.4-4.4-3.5c-1.8-1.8-3.7-3.8-5.3-5.7c0-0.2-0.3-0.4-0.3-0.6
		c-0.5-0.6-1.1-1.4-1.7-2.1c-6.1,2-12.3,3.7-18.4,5.7c-1.5-2.5-2.8-5.1-4-7.9c-0.3-0.6-0.6-1.3-1-2.1c-0.3-0.6-0.4-1.3-1-2.1
		c-0.8-2.9-1.9-5.7-2.5-8.3c5.5-3.3,11.3-6.1,16.8-9.1c-0.1-0.9-0.2-1.6-0.4-2.7c-0.4-2.7-0.5-5.6-0.2-8.4c-0.1-2,0.3-4.2,0.5-6.2
		c-5.6-2.9-11.3-6-16.8-9.1c0,0,0,0-0.2,0c1.8-7.1,4.5-13.8,8.6-20.3l0,0c6.2,1.7,12.1,3.6,18.1,5.5c1.4-1.8,2.7-3.6,4.1-5.1
		c1.8-1.8,3.6-3.7,5.7-5.1c0.6-0.8,1.4-1.3,2-1.9c-1.8-6.1-3.7-12.3-5.5-18.4c2.5-1.5,5.3-3,8.1-4.3C124.5,74.7,125.4,74.3,126,74.2
		z M179.1,152.3c2.9-7,2.9-13.9-0.1-20.7c-2.8-6.9-7.8-11.7-14.8-14.6c-6.8-2.7-13.8-2.7-20.5,0.1c-6.9,3-11.9,7.8-14.6,14.8
		c-2.9,7-2.9,13.9,0.1,20.7c2.8,6.9,7.8,11.7,14.5,14.4c7.2,2.9,14.1,2.9,20.7-0.1C171.4,164.1,176.4,159,179.1,152.3z"/>
</g>
<g opacity="0.5">
	<path fill="#133783" d="M175.7,270.4c-9.2,0-16.6,7.4-16.6,16.6c0,3.8,1.3,7.3,3.4,10.1L127.3,355c-1-0.2-1.9-0.3-2.9-0.3
		c-3.9,0-7.5,1.4-10.3,3.6l-47.3-27.7c0.1-0.9,0.2-1.7,0.2-2.6c0-9.2-7.4-16.6-16.6-16.6s-16.6,7.4-16.6,16.6c0,1.9,0.3,3.8,0.9,5.5
		l-55.5,47.4l7.8,9.1l55.5-47.4c2.3,1.3,5,2,7.9,2c3.9,0,7.5-1.4,10.3-3.6l47.3,27.7c-0.1,0.9-0.2,1.7-0.2,2.6
		c0,9.2,7.4,16.6,16.6,16.6s16.6-7.4,16.6-16.6c0-3.8-1.3-7.3-3.4-10.1l35.3-57.8c1,0.2,1.9,0.3,2.9,0.3c9.2,0,16.6-7.4,16.6-16.6
		C192.3,277.9,184.9,270.4,175.7,270.4z"/>
	<rect x="33.7" y="377.6" fill-rule="evenodd" clip-rule="evenodd" fill="#133783" width="33.2" height="75.3"/>
	<rect x="74.5" y="407.6" fill-rule="evenodd" clip-rule="evenodd" fill="#133783" width="33.2" height="45.3"/>
	<rect x="-7.3" y="399.5" fill-rule="evenodd" clip-rule="evenodd" fill="#133783" width="33.2" height="53.5"/>
	<path fill="none" stroke="#133783" stroke-width="12" stroke-miterlimit="10" d="M176.4,286.4"/>
</g>
<g>
	<g>
		<rect x="0.6" y="1527.9" fill="#53659B" width="5.3" height="8"/>
		<rect x="0.6" y="1526.3" fill="#6E7EAD" width="5.3" height="2.3"/>
		<path fill="#133783" d="M6,1536.4H0.5c-0.3,0-0.5-0.2-0.5-0.5v-9.9c0-0.3,0.2-0.5,0.5-0.5H6c0.3,0,0.5,0.2,0.5,0.5v9.9
			C6.5,1536.2,6.3,1536.4,6,1536.4z M1,1535.4h4.5v-8.8H1V1535.4z"/>
		<polygon fill="#E2E3E4" points="6.3,1532.9 10,1532.9 11.5,1533.9 17.1,1533.9 19.7,1531.6 19.5,1534.5 17.3,1536.5 11.7,1536.5 
			9.4,1534.7 6.3,1534.8 		"/>
		<polygon fill="#E2E3E4" points="15.1,1519.1 13.5,1521.3 13.2,1525.2 14.9,1525.5 		"/>
		<path fill="#133783" d="M17.6,1536.8h-6.1c-0.1,0-0.2,0-0.3-0.1l-2-1.5H6c-0.3,0-0.5-0.2-0.5-0.5v-7.3c0-0.3,0.2-0.5,0.5-0.5
			c0,0,3-0.4,3.7-2.5l2.3-5.9c0.1-0.2,0.3-0.3,0.5-0.3h2.9c0.3,0,0.5,0.2,0.5,0.5v2.1c0,0.1,0,0.2-0.1,0.2l-0.6,1.1v2.7h2.9
			c0.1,0,0.2,0,0.3,0.1l1.6,0.9c0.2,0.1,0.3,0.3,0.3,0.4v8.1c0,0.1-0.1,0.3-0.2,0.4l-2.1,1.9C17.9,1536.8,17.8,1536.8,17.6,1536.8z
			 M11.7,1535.8h5.7l1.8-1.6v-7.6l-1.2-0.7h-3.3c-0.3,0-0.5-0.2-0.5-0.5v-3.4c0-0.1,0-0.2,0.1-0.2l0.6-1v-1.5h-2.1l-2.1,5.5
			c-0.8,2.1-3.1,2.8-4.1,3v6.3h2.9c0.1,0,0.2,0,0.3,0.1L11.7,1535.8z"/>
	</g>
</g>
<g>
	<g>
		<rect x="103.6" y="2618.1" fill="#53659B" width="26.1" height="39.5"/>
		<rect x="103.6" y="2610" fill="#6E7EAD" width="26.1" height="11.2"/>
		<path fill="#133783" d="M130.1,2660.1h-27c-1.4,0-2.5-1.1-2.5-2.5v-48.5c0-1.4,1.1-2.5,2.5-2.5h27c1.4,0,2.5,1.1,2.5,2.5v48.5
			C132.6,2658.9,131.5,2660.1,130.1,2660.1z M105.6,2655h21.9v-43.4h-21.9V2655z"/>
		<polygon fill="#E2E3E4" points="131.7,2642.6 149.9,2642.6 157.3,2647.8 184.4,2647.8 197.5,2636.4 196.7,2650.6 185.9,2660.2 
			158.1,2660.2 146.8,2651.5 131.7,2652.3 		"/>
		<polygon fill="#E2E3E4" points="174.9,2574.8 166.8,2585.7 165.5,2604.6 173.6,2606.4 		"/>
		<path fill="#133783" d="M187.3,2662h-30c-0.5,0-1.1-0.2-1.5-0.5l-9.9-7.4h-15.8c-1.4,0-2.5-1.1-2.5-2.5v-35.8c0-1.3,1-2.4,2.3-2.5
			c0.2,0,14.6-1.8,18.4-12.1l11.1-28.9c0.4-1,1.3-1.6,2.4-1.6h14.5c1.4,0,2.5,1.1,2.5,2.5v10.3c0,0.4-0.1,0.8-0.3,1.2l-2.7,5.2v13.4
			h14.1c0.4,0,0.9,0.1,1.3,0.3l7.6,4.5c0.8,0.5,1.3,1.3,1.3,2.2v39.9c0,0.7-0.3,1.4-0.8,1.9l-10.2,9.5
			C188.6,2661.7,187.9,2662,187.3,2662z M158.2,2656.9h28.1l8.6-8.1v-37.3l-5.8-3.4h-16c-1.4,0-2.5-1.1-2.5-2.5v-16.5
			c0-0.4,0.1-0.8,0.3-1.2l2.7-5.2v-7.2h-10.2l-10.5,27.3c-3.9,10.5-15.4,13.9-20.3,15v31.2h14.1c0.6,0,1.1,0.2,1.5,0.5L158.2,2656.9
			z"/>
	</g>
</g>
<path fill="#6A7480" d="M21,1594.3H9.2c-0.4,0-0.7,0.3-0.7,0.7v11.8c0,0.4,0.3,0.7,0.7,0.7h6.4v-5.2h-1.7v-2h1.7v-1.5
	c0-1.7,1.1-2.7,2.6-2.7c0.7,0,1.4,0.1,1.6,0.1v1.8h-1.1c-0.8,0-1,0.4-1,1v1.3h2l-0.3,2h-1.7v5.2H21c0.4,0,0.7-0.3,0.7-0.7V1595
	C21.8,1594.6,21.4,1594.3,21,1594.3z"/>
<path fill-rule="evenodd" clip-rule="evenodd" fill="#6A7480" d="M6.2,1663.1l2.1,2l4.1-4l4.1,4.1l6.2-5.9l2,2v-5.6h-5.8l1.8,1.7
	l-4.1,4l-4.2-4L6.2,1663.1z M4,1667.4v1.5h22.2v-1.5H4z"/>
<g id="Your_Icon_1_">
	<g>
		<g>
			<path fill="#6A7480" d="M16.2,1838.1L2,1847.8c-0.2,0.1-0.3,0.4-0.2,0.6l0.4,1.1c0.1,0.2,0.3,0.3,0.5,0.3h3.9l0.1,1.8
				c0,0.3,0.3,0.6,0.6,0.6l4.5,0c0.1,0,0.1,0,0.2,0c0.2-0.1,0.4-0.3,0.4-0.5l0.1-1.8h7.6c0.1,0,0.1,0,0.2,0c0.1,0,0.2-0.1,0.3-0.2
				c0.1-0.1,0.1-0.3,0.1-0.5l-3.4-10.7c-0.1-0.2-0.2-0.3-0.3-0.3C16.5,1838,16.4,1838,16.2,1838.1z M11.2,1851H7.8l-0.1-1.2h3.5
				L11.2,1851z"/>
			<path fill="#6A7480" d="M18.4,1836.7c-0.4,0.1-0.6,0.6-0.5,1l3.7,11.7c0.1,0.5,0.6,0.7,1,0.6c0.4-0.1,0.6-0.6,0.5-1l-3.7-11.7
				C19.3,1836.8,18.8,1836.6,18.4,1836.7z"/>
		</g>
		<g>
			<path fill="#6A7480" d="M27.7,1840.4c-0.1-0.4-0.6-0.6-1-0.5l-2.3,0.8c-0.4,0.1-0.6,0.6-0.5,1c0.1,0.4,0.6,0.6,1,0.5l2.3-0.8
				C27.6,1841.2,27.9,1840.8,27.7,1840.4z"/>
			<path fill="#6A7480" d="M28.4,1845.5c0.2-0.4-0.1-0.9-0.4-1l-2.2-0.9c-0.2-0.1-0.4-0.1-0.6,0c-0.2,0.1-0.3,0.2-0.4,0.4
				c-0.1,0.2-0.1,0.4,0,0.5l0,0c0.1,0.2,0.2,0.4,0.5,0.5l2.2,0.9C27.8,1846.1,28.2,1845.9,28.4,1845.5z"/>
			<path fill="#6A7480" d="M25.5,1837.1c0.2-0.4,0.1-0.9-0.3-1.1c-0.4-0.2-0.9-0.1-1.1,0.3l-1.3,2c-0.1,0.2-0.2,0.4-0.1,0.7
				c0.1,0.2,0.2,0.3,0.3,0.4c0.2,0.1,0.4,0.1,0.6,0.1c0.2,0,0.4-0.2,0.5-0.4L25.5,1837.1z"/>
		</g>
	</g>
</g>
<path fill-rule="evenodd" clip-rule="evenodd" fill="#6A7480" d="M11.9,1787.3c-0.6,0-1.1,0.5-1.1,1.1v1.1c0,0.6,0.5,1.1,1.1,1.1
	h10.9c0.6,0,1.1-0.5,1.1-1.1v-1.1c0-0.6-0.5-1.1-1.1-1.1H11.9z M11.9,1781.9c-0.6,0-1.1,0.5-1.1,1.1v1.1c0,0.6,0.5,1.1,1.1,1.1h10.9
	c0.6,0,1.1-0.5,1.1-1.1v-1.1c0-0.6-0.5-1.1-1.1-1.1H11.9z M11.9,1776.4c-0.6,0-1.1,0.5-1.1,1.1v1.1c0,0.6,0.5,1.1,1.1,1.1h10.9
	c0.6,0,1.1-0.5,1.1-1.1v-1.1c0-0.6-0.5-1.1-1.1-1.1H11.9z M7.5,1787.3c-0.6,0-1.1,0.5-1.1,1.1v1.1c0,0.6,0.5,1.1,1.1,1.1h1.1
	c0.6,0,1.1-0.5,1.1-1.1v-1.1c0-0.6-0.5-1.1-1.1-1.1H7.5z M7.5,1781.9c-0.6,0-1.1,0.5-1.1,1.1v1.1c0,0.6,0.5,1.1,1.1,1.1h1.1
	c0.6,0,1.1-0.5,1.1-1.1v-1.1c0-0.6-0.5-1.1-1.1-1.1H7.5z M7.5,1776.4c-0.6,0-1.1,0.5-1.1,1.1v1.1c0,0.6,0.5,1.1,1.1,1.1h1.1
	c0.6,0,1.1-0.5,1.1-1.1v-1.1c0-0.6-0.5-1.1-1.1-1.1H7.5z"/>
<path fill-rule="evenodd" clip-rule="evenodd" fill="#6A7480" d="M16.5,1717.2c0,0.3,0,0.5,0.1,0.7l-4,2.8c-0.5-0.4-1.1-0.6-1.8-0.6
	c-1.6,0-2.9,1.3-2.9,2.9c0,1.6,1.3,2.9,2.9,2.9c0.7,0,1.3-0.2,1.8-0.6l4,2.9c-0.1,0.2-0.1,0.5-0.1,0.7c0,1.6,1.3,2.9,2.9,2.9
	s2.9-1.3,2.9-2.9c0-1.6-1.3-2.9-2.9-2.9c-0.5,0-1.1,0.1-1.5,0.4l-4.2-3c0-0.1,0-0.3,0-0.4c0-0.1,0-0.3,0-0.4l4.2-3
	c0.4,0.3,1,0.4,1.5,0.4c1.6,0,2.9-1.3,2.9-2.9c0-1.6-1.3-2.9-2.9-2.9S16.5,1715.6,16.5,1717.2z"/>
<path fill-rule="evenodd" clip-rule="evenodd" fill="#6A7480" d="M9.8,1899.9v13.2l5.4-4.7l5.4,4.7v-13.2H9.8z M9.8,1897.1v1.9h10.7
	v-1.9H9.8z"/>
<g>
	<path fill="#CE4D3A" d="M32,2433.2H-1.5v31.8h3.2c-0.9,0-1.7-0.8-1.7-1.7v-2.8c0.7-0.6,1.6-1.1,2.7-1.5c1.5-0.5,3.1-0.8,5-0.8
		c0.5,0,0.8,0,1.1,0c2,1.4,3.3,2.5,3.9,3.2c0.8,0.9,1.2,1.9,1.2,3.1c0,0.2,0,0.3,0,0.5H32V2433.2z M0,2458.2v-7.6
		c1.3,0.9,2.9,1.3,4.7,1.3h1.5c-0.3,0.7-0.5,1.3-0.5,1.8c0,0.9,0.5,2,1.4,3.2C4.2,2457.1,1.8,2457.6,0,2458.2z M10.1,2449.3
		c-0.9,0.9-2,1.3-3.2,1.3c-1.9,0-3.4-1-4.5-3c-0.9-1.7-1.4-3.5-1.4-5.4c0-1.2,0.2-2.2,0.7-3c0.8-1.4,2-2,3.6-2
		c1.8,0,3.3,0.9,4.5,2.9c1,1.8,1.5,3.6,1.5,5.6C11.3,2447.3,10.9,2448.5,10.1,2449.3z M28.7,2442.8h-4v3.6h-1.8v-3.6h-3.8v-1.8h3.8
		v-3.6h1.8v3.6h4V2442.8z"/>
	<rect x="1.7" y="2465" width="12.2" height="0"/>
</g>
<g>
	<path fill="#305992" d="M32,2303H-1.5v31.8h17.1v-12.3h-3.3v-4.7h3.3v-3.1c0-3.9,1.6-6.2,6.6-6.2h4.1v4.7h-2.4
		c-1.9,0-2.2,0.6-2.2,1.9v2.8h4.7l-0.6,4.7h-4.1v12.3H32V2303z"/>
</g>
<g>
	<path fill="#2CA8D3" d="M-1.5,2368.2v31.8H32v-31.8H-1.5z M24.8,2379.6c0,0.2,0,0.4,0,0.6c0,6-4.6,12.9-12.9,12.9
		c-2.6,0-4.9-0.8-7-2.1c0.4,0,0.7,0.1,1.1,0.1c2.1,0,4.1-0.7,5.6-1.9c-2,0-3.7-1.3-4.2-3.2c0.3,0.1,0.6,0.1,0.9,0.1
		c0.4,0,0.8-0.1,1.2-0.2c-2.1-0.4-3.6-2.2-3.6-4.5c0,0,0,0,0-0.1c0.6,0.3,1.3,0.5,2.1,0.6c-1.2-0.8-2-2.2-2-3.8
		c0-0.8,0.2-1.6,0.6-2.3c2.2,2.8,5.6,4.6,9.4,4.7c-0.1-0.3-0.1-0.7-0.1-1c0-2.5,2-4.5,4.5-4.5c1.3,0,2.5,0.6,3.3,1.4
		c1-0.2,2-0.6,2.9-1.1c-0.3,1.1-1.1,2-2,2.5c0.9-0.1,1.8-0.4,2.6-0.7C26.5,2378.1,25.7,2378.9,24.8,2379.6z"/>
</g>
<g>
	<path fill="#E75229" d="M-1.5,2499.2v31.8H32v-31.8H-1.5z M15.5,2511.4c-0.5,0-1,0.4-1,1v5.8c0,2.3-1.9,4.2-4.2,4.2
		c-2.3,0-4.2-1.9-4.2-4.2v-2.4h3.2v2.4c0,0.5,0.4,1,1,1s1-0.4,1-1v-5.8c0-2.3,1.9-4.2,4.2-4.2c2.3,0,4.2,1.9,4.2,4.2v1.1l-1.9,0.6
		l-1.3-0.6v-1.1C16.5,2511.8,16.1,2511.4,15.5,2511.4z M24.8,2518.2c0,2.3-1.9,4.2-4.2,4.2c-2.3,0-4.2-1.9-4.2-4.2v-2.5l1.3,0.6
		l1.9-0.6v2.5c0,0.5,0.4,1,1,1c0.5,0,1-0.4,1-1v-2.4h3.2V2518.2z"/>
</g>
<g>
	<path fill="#4498C8" d="M-1.5,2565v31.8H32V2565H-1.5z M11.1,2591.4H6.2V2579l4.9,0V2591.4z M8.7,2577.2c-1.4,0-2.5-1-2.5-2.2
		s1.1-2.2,2.5-2.2c1.4,0,2.5,1,2.5,2.2S10,2577.2,8.7,2577.2z M26.1,2591.4h-4v-7.5c0,0-0.2-2-2.2-2c-2,0-2.3,1.9-2.3,1.9v7.6h-4
		l0.1-12.5h3.9l0,1.6c0,0,0.8-2,3.9-2c3.1,0,4.4,1.8,4.7,5C26.1,2586.8,26.1,2591.4,26.1,2591.4z"/>
</g>
<g>
	<path fill="#C82928" d="M32,2630H-1.5v31.8H9.8c-0.1-1-0.4-3.5,0.1-5.5c0.3-1.3,2.1-8.6,2.1-8.6s-0.5-1-0.5-2.5
		c0-2.3,1.4-4.1,3.1-4.1c1.5,0,2.2,1.1,2.2,2.4c0,1.4-0.9,3.6-1.4,5.6c-0.4,1.7,0.9,3,2.6,3c3.1,0,5.2-3.8,5.2-8.4
		c0-3.5-2.4-6.1-6.8-6.1c-4.9,0-8,3.6-8,7.6c0,1.4,0.4,2.4,1.1,3.1c0.3,0.3,0.3,0.5,0.2,0.9c-0.1,0.3-0.3,1-0.3,1.3
		c-0.1,0.4-0.4,0.5-0.8,0.4c-2.3-0.9-3.3-3.3-3.3-6c0-4.5,3.9-9.9,11.6-9.9c6.2,0,10.3,4.4,10.3,9.1c0,6.2-3.5,10.8-8.8,10.8
		c-1.8,0-3.4-0.9-4-2c0,0-0.9,3.6-1.1,4.3c-0.5,1.9-1.8,3.7-2.5,4.6H32V2630z"/>
	<path d="M9.9,2662.3c0,0.2,0.3,0.2,0.4,0.1c0-0.1,0.2-0.3,0.4-0.6H9.8C9.8,2662.1,9.8,2662.2,9.9,2662.3z"/>
</g>
<path fill="#FFFFFF" d="M21.1,1947.8H9.3c-0.4,0-0.7,0.3-0.7,0.7v11.8c0,0.4,0.3,0.7,0.7,0.7h6.4v-5.2h-1.7v-2h1.7v-1.5
	c0-1.7,1.1-2.7,2.6-2.7c0.7,0,1.4,0.1,1.6,0.1v1.8h-1.1c-0.8,0-1,0.4-1,1v1.3h2l-0.3,2h-1.7v5.2h3.4c0.4,0,0.7-0.3,0.7-0.7v-11.8
	C21.9,1948.2,21.5,1947.8,21.1,1947.8z"/>
<path fill-rule="evenodd" clip-rule="evenodd" fill="#FFFFFF" d="M6.3,2016.6l2.1,2l4.1-4l4.1,4.1l6.2-5.9l2,2v-5.6H19l1.8,1.7
	l-4.1,4l-4.2-4L6.3,2016.6z M4.1,2020.9v1.5h22.2v-1.5H4.1z"/>
<g id="Your_Icon_2_">
	<g>
		<g>
			<path fill="#FFFFFF" d="M16.3,2191.6l-14.2,9.7c-0.2,0.1-0.3,0.4-0.2,0.6l0.4,1.1c0.1,0.2,0.3,0.3,0.5,0.3h3.9l0.1,1.8
				c0,0.3,0.3,0.6,0.6,0.6l4.5,0c0.1,0,0.1,0,0.2,0c0.2-0.1,0.4-0.3,0.4-0.5l0.1-1.8H20c0.1,0,0.1,0,0.2,0c0.1,0,0.2-0.1,0.3-0.2
				c0.1-0.1,0.1-0.3,0.1-0.5l-3.4-10.7c-0.1-0.2-0.2-0.3-0.3-0.3C16.6,2191.5,16.5,2191.5,16.3,2191.6z M11.3,2204.5H7.9l-0.1-1.2
				h3.5L11.3,2204.5z"/>
			<path fill="#FFFFFF" d="M18.5,2190.2c-0.4,0.1-0.6,0.6-0.5,1l3.7,11.7c0.1,0.5,0.6,0.7,1,0.6c0.4-0.1,0.6-0.6,0.5-1l-3.7-11.7
				C19.4,2190.4,18.9,2190.1,18.5,2190.2z"/>
		</g>
		<g>
			<path fill="#FFFFFF" d="M27.8,2193.9c-0.1-0.4-0.6-0.6-1-0.5l-2.3,0.8c-0.4,0.1-0.6,0.6-0.5,1c0.1,0.4,0.6,0.6,1,0.5l2.3-0.8
				C27.7,2194.8,28,2194.3,27.8,2193.9z"/>
			<path fill="#FFFFFF" d="M28.5,2199.1c0.2-0.4-0.1-0.9-0.4-1l-2.2-0.9c-0.2-0.1-0.4-0.1-0.6,0c-0.2,0.1-0.3,0.2-0.4,0.4
				c-0.1,0.2-0.1,0.4,0,0.5l0,0c0.1,0.2,0.2,0.4,0.5,0.5l2.2,0.9C27.9,2199.7,28.3,2199.5,28.5,2199.1z"/>
			<path fill="#FFFFFF" d="M25.6,2190.6c0.2-0.4,0.1-0.9-0.3-1.1c-0.4-0.2-0.9-0.1-1.1,0.3l-1.3,2c-0.1,0.2-0.2,0.4-0.1,0.7
				c0.1,0.2,0.2,0.3,0.3,0.4c0.2,0.1,0.4,0.1,0.6,0.1c0.2,0,0.4-0.2,0.5-0.4L25.6,2190.6z"/>
		</g>
	</g>
</g>
<path fill-rule="evenodd" clip-rule="evenodd" fill="#FFFFFF" d="M11.9,2140.9c-0.6,0-1.1,0.5-1.1,1.1v1.1c0,0.6,0.5,1.1,1.1,1.1
	h10.9c0.6,0,1.1-0.5,1.1-1.1v-1.1c0-0.6-0.5-1.1-1.1-1.1H11.9z M11.9,2135.4c-0.6,0-1.1,0.5-1.1,1.1v1.1c0,0.6,0.5,1.1,1.1,1.1h10.9
	c0.6,0,1.1-0.5,1.1-1.1v-1.1c0-0.6-0.5-1.1-1.1-1.1H11.9z M11.9,2130c-0.6,0-1.1,0.5-1.1,1.1v1.1c0,0.6,0.5,1.1,1.1,1.1h10.9
	c0.6,0,1.1-0.5,1.1-1.1v-1.1c0-0.6-0.5-1.1-1.1-1.1H11.9z M7.6,2140.9c-0.6,0-1.1,0.5-1.1,1.1v1.1c0,0.6,0.5,1.1,1.1,1.1h1.1
	c0.6,0,1.1-0.5,1.1-1.1v-1.1c0-0.6-0.5-1.1-1.1-1.1H7.6z M7.6,2135.4c-0.6,0-1.1,0.5-1.1,1.1v1.1c0,0.6,0.5,1.1,1.1,1.1h1.1
	c0.6,0,1.1-0.5,1.1-1.1v-1.1c0-0.6-0.5-1.1-1.1-1.1H7.6z M7.6,2130c-0.6,0-1.1,0.5-1.1,1.1v1.1c0,0.6,0.5,1.1,1.1,1.1h1.1
	c0.6,0,1.1-0.5,1.1-1.1v-1.1c0-0.6-0.5-1.1-1.1-1.1H7.6z"/>
<path fill-rule="evenodd" clip-rule="evenodd" fill="#FFFFFF" d="M16.6,2070.7c0,0.3,0,0.5,0.1,0.7l-4,2.8c-0.5-0.4-1.1-0.6-1.8-0.6
	c-1.6,0-2.9,1.3-2.9,2.9c0,1.6,1.3,2.9,2.9,2.9c0.7,0,1.3-0.2,1.8-0.6l4,2.9c-0.1,0.2-0.1,0.5-0.1,0.7c0,1.6,1.3,2.9,2.9,2.9
	s2.9-1.3,2.9-2.9c0-1.6-1.3-2.9-2.9-2.9c-0.5,0-1.1,0.1-1.5,0.4l-4.2-3c0-0.1,0-0.3,0-0.4c0-0.1,0-0.3,0-0.4l4.2-3
	c0.4,0.3,1,0.4,1.5,0.4c1.6,0,2.9-1.3,2.9-2.9c0-1.6-1.3-2.9-2.9-2.9S16.6,2069.2,16.6,2070.7z"/>
<path fill-rule="evenodd" clip-rule="evenodd" fill="#FFFFFF" d="M9.8,2253.5v13.2l5.4-4.7l5.4,4.7v-13.2H9.8z M9.8,2250.6v1.9h10.7
	v-1.9H9.8z"/>
</svg>
