<svg xmlns="http://www.w3.org/2000/svg" id="Layer_1" height="80" viewBox="38 19 42 42" width="114"><style>.st0{fill:#FFF}</style><switch><g><path class="st0" d="M132.6 32.7c1.4 0 2.6-1.2 2.6-3.2s-1.1-3.3-2.6-3.3c-1.3 0-2.6 1-2.6 3.3 0 1.7.9 3.2 2.6 3.2zM100.3 47.7c0-1-.6-1.8-1.8-1.8H96v3.6h2.6c1.1.1 1.7-.8 1.7-1.8zM148.8 49.4c-1.3 0-2.3.9-2.5 2.3h4.6c-.1-1.4-.9-2.3-2.1-2.3zM98.8 51.7H96v4.2h2.8c1.3 0 2.1-.9 2.1-2.1 0-1.3-.8-2.1-2.1-2.1zM75.1 39.3s5.6-3.4 5.6-7.6c0-2-.7-3.9-2-5.2-1.8-1.8-4.3-2.2-6.1-2.2h-9.9c-.4 0-.4.1-.4.4v30.5c0 .3.1.4.4.4h11.7c3.1 0 5.6-.9 7.3-2.5 1.5-1.4 2.3-3.5 2.3-5.9 0-1.5-.3-2.7-1-3.7-1.7-2.6-7.9-4.2-7.9-4.2z"/><path class="st0" d="M0 0v80h202V0H0zm104.1 21.1c0-.5.3-.9.8-.9h.9c.5 0 .9.3.9.9v.6c0 .5-.3.8-.9.8h-.9c-.5 0-.8-.3-.8-.8v-.6zM55.1 53c-.6 1.4-1.4 2.6-2.5 3.6s-2.4 1.9-4.1 2.5c-1.5.6-3.3.9-5.3.9-2.4 0-4.7-.4-6.8-1.2-2.1-.8-3.8-1.7-5.1-2.7-.3-.3-.6-.5-.7-.8-.1-.2-.2-.5-.2-.8v-.3c0-.4.2-.8.6-1.3l1.2-1.7c.4-.6.9-.9 1.4-1h.2c.4 0 .9.2 1.5.5 2.7 1.9 5.3 2.9 7.8 2.9 1.8 0 3.2-.4 4.2-1.2 1-.8 1.6-1.9 1.6-3.2 0-.8-.2-1.5-.6-2.1-.4-.6-1-1.2-1.7-1.7s-1.5-.9-2.4-1.4c-.9-.4-1.9-.9-2.9-1.3s-2-.9-3-1.4c-1-.5-1.9-1-2.8-1.7-.9-.6-1.7-1.3-2.4-2.1s-1.2-1.7-1.7-2.8c-.4-1.1-.6-2.3-.6-3.5 0-2.2.6-4.2 1.7-5.9 1.2-1.7 2.7-3 4.7-3.9 2-.9 4.2-1.4 6.6-1.4 2.1 0 4 .3 5.8.9 1.8.6 3.2 1.3 4.2 2 .7.5 1.1 1.1 1.1 1.8 0 .4-.1.8-.4 1.3l-1 1.8c-.4.8-1 1.2-1.7 1.2-.4 0-.9-.1-1.4-.4-.7-.4-1.3-.8-1.8-1-.5-.3-1.2-.5-2.2-.8-.9-.3-1.8-.4-2.8-.4-1.8 0-3.2.4-4.3 1.2-1.1.8-1.6 1.9-1.6 3.2 0 1 .3 1.8 1 2.6s1.5 1.4 2.6 1.9 2.2 1.1 3.5 1.6c1.3.5 2.6 1.1 3.8 1.8 1.3.6 2.4 1.4 3.5 2.2 1.1.8 1.9 1.9 2.6 3.2.7 1.3 1 2.8 1 4.5.3 1.5 0 3-.6 4.4zm29.2 3c-2.4 2.3-5.8 3.6-10 3.6H62.7c-2.4 0-4.3-1.8-4.3-4.3V24.7c0-2.5 1.8-4.3 4.3-4.3h9.9c3.6 0 6.7 1.2 8.9 3.4 2 2 3.1 4.8 3.1 7.8 0 2.6-.8 4.7-2.3 6.5 1.6.8 3 2 3.9 3.4 1.1 1.6 1.7 3.6 1.7 5.8-.2 3.4-1.4 6.5-3.6 8.7zm8.4-23.7l.4-.6c.3-.4.7-.5 1.2-.2s1.5 1.1 2.9 1.1c1.3 0 2.2-.7 2.2-1.6 0-2.7-6.7-2.2-6.7-6.7 0-2.5 2.1-4.2 4.9-4.2 1.7 0 3.1.6 3.7 1.1.4.3.5.7.3 1.2l-.4.7c-.3.6-.7.5-1.2.3-.6-.3-1.4-.8-2.5-.8-1.3 0-2.2.7-2.2 1.6 0 2.7 6.7 2 6.7 6.6 0 2.3-1.8 4.3-4.8 4.3-2.1 0-3.7-.9-4.4-1.5-.3-.4-.5-.8-.1-1.3zm5.9 25.8h-4.4c-.5 0-.8-.3-.8-.9V44.5c0-.5.3-.9.8-.9h4.3c2.6 0 4.5 1.3 4.5 3.7 0 1.3-.7 2.5-1.8 3.1 1.6.5 2.3 1.9 2.3 3.4.1 3-2.2 4.3-4.9 4.3zm5.5-24.3v-8.7c0-.5.3-.9.8-.9h.9c.5 0 .8.3.8.9v8.7c0 .6-.3.9-.8.9h-.9c-.5 0-.8-.3-.8-.9zm11.1 23.4c0 .6-.3.9-.9.9h-.8c-.5 0-.8-.3-.8-.9v-.6-.5c-.5 1.1-1.8 2.2-3.6 2.2-2.2 0-3.6-1.1-3.6-3.9v-5.8c0-.5.3-.9.9-.9h.9c.6 0 .9.3.9.9v5.3c0 1.3.3 2.1 1.6 2.1 1.9 0 2.9-1.6 2.9-3.5v-3.9c0-.5.3-.9.9-.9h.9c.5 0 .9.3.9.9v8.6zm5.8 1.1c-1.7 0-2.8-.6-3.5-1.1-.5-.3-.5-.7-.2-1.2l.2-.4c.3-.4.7-.5 1.2-.2s1.3.7 2.3.7c.9 0 1.4-.4 1.4-1.1 0-1.7-5.2-1.1-5.2-4.6 0-2 1.8-3.1 4-3.1 1.4 0 2.3.4 2.9.8.5.2.5.7.3 1.1l-.2.4c-.2.5-.6.5-1.1.3-.4-.2-1.1-.5-2-.5-.9 0-1.4.4-1.4 1 0 1.7 5.2 1 5.2 4.6 0 2-1.5 3.3-3.9 3.3zm4.1-24.5c0 .6-.3.9-.9.9h-.9c-.6 0-.9-.3-.9-.9v-5.3c0-1.2-.2-2.1-1.4-2.1-1.8 0-2.6 1.8-2.6 3.6v3.8c0 .6-.3.9-.8.9h-.9c-.5 0-.9-.3-.9-.9v-5.3c0-1.1-.2-2.1-1.4-2.1-1.8 0-2.7 1.9-2.7 3.6v3.8c0 .6-.3.9-.8.9h-.9c-.5 0-.8-.3-.8-.9v-8.7c0-.5.3-.9.8-.9h.8c.5 0 .8.3.8.9v1.1c.5-1 1.8-2.2 3.4-2.2 1.6 0 2.6.7 3 2.1.5-1.1 1.9-2.1 3.5-2.1 2.2 0 3.4 1.2 3.4 3.9v5.9zm4.3 23.4c0 .6-.3.9-.8.9h-.9c-.5 0-.8-.3-.8-.9v-8.7c0-.5.3-.9.8-.9h.9c.5 0 .8.3.8.9v8.7zm.1-12.1c0 .5-.3.8-.9.8h-.9c-.5 0-.8-.3-.8-.8v-.6c0-.5.3-.9.8-.9h.9c.5 0 .9.3.9.9v.6zm.6-10.9v3.7c0 .6-.3.9-.9.9h-.9c-.5 0-.9-.3-.9-.9V25.2c0-.5.3-.9.9-.9h.7c.5 0 .8.3.8.7v.9s.9-1.8 3.3-1.8c2.8 0 4.6 2.2 4.6 5.4 0 3.3-2 5.4-4.8 5.4-2.2 0-3-1.6-3-1.6.1 0 .2.4.2.9zm11.7 23c0 .6-.3.9-.9.9h-.9c-.5 0-.9-.3-.9-.9V52c0-1.3-.3-2.1-1.6-2.1-1.8 0-3 1.5-3 3.4v4c0 .6-.3.9-.8.9h-.9c-.5 0-.8-.3-.8-.9v-8.7c0-.5.3-.9.8-.9h.8c.5 0 .8.3.8.9v1.1c.4-.9 1.6-2.2 3.7-2.2 2.3 0 3.6 1.2 3.6 3.9v5.8zm1.1-22.4c-1.4 0-3.2-.4-3.2-3.3V21.1c0-.5.3-.9.8-.9h.9c.5 0 .8.3.8.9v10.1c0 1 .4 1.2.8 1.2s.6.3.6.7v.7c.2.6-.1 1-.7 1zm9.7 18.5h-6.3c.2 1.9 1.5 2.8 3.1 2.8 1 0 1.8-.4 2.2-.7.5-.2.9-.2 1.1.3l.2.4c.2.5.2.9-.3 1.1-.7.4-1.9 1-3.5 1-3.4 0-5.6-2.5-5.6-5.4 0-3.2 2.2-5.4 5.3-5.4 3 0 4.6 2.1 4.6 4.9 0 .6-.3 1-.8 1zm1.7-28L150 36.2c-.7 1.9-2.2 2.7-3.7 2.7-.6 0-1.1-.2-1.4-.3-.5-.2-.6-.6-.4-1.1l.2-.4c.2-.5.6-.5.9-.5.2.1.4.2.7.2.8 0 1.3-.6 1.6-1.4l.4-.9-3.9-9.2c-.3-.6 0-1 .7-1h1.1c.5 0 .8.2 1 .7l2 5.3c.2.5.4 1.4.4 1.4s.2-.8.3-1.4l1.8-5.3c.1-.5.4-.7 1-.7h1c.5 0 .8.4.6 1zm4.2 33c-1.7 0-2.8-.6-3.5-1.1-.5-.3-.5-.7-.2-1.2l.2-.4c.3-.4.7-.5 1.2-.2s1.3.7 2.3.7c.9 0 1.4-.4 1.4-1.1 0-1.7-5.2-1.1-5.2-4.6 0-2 1.8-3.1 4-3.1 1.4 0 2.3.4 2.9.8.5.2.5.7.3 1.1l-.2.4c-.2.5-.6.5-1.1.3-.4-.2-1.1-.5-2-.5-.9 0-1.4.4-1.4 1 0 1.7 5.2 1 5.2 4.6.1 2-1.5 3.3-3.9 3.3zm9.1 0c-1.7 0-2.8-.6-3.5-1.1-.5-.3-.5-.7-.2-1.2l.2-.4c.3-.4.7-.5 1.2-.2s1.3.7 2.3.7c.9 0 1.4-.4 1.4-1.1 0-1.7-5.2-1.1-5.2-4.6 0-2 1.8-3.1 4-3.1 1.4 0 2.3.4 2.9.8.5.2.5.7.3 1.1l-.2.4c-.2.5-.6.5-1.1.3-.4-.2-1.1-.5-2-.5-.9 0-1.4.4-1.4 1 0 1.7 5.2 1 5.2 4.6.1 2-1.5 3.3-3.9 3.3z"/></g></switch></svg>
