<?xml version="1.0" encoding="utf-8"?>
<!-- Generator: Adobe Illustrator 21.0.0, SVG Export Plug-In . SVG Version: 6.00 Build 0)  -->
<svg version="1.1" id="Artwork" xmlns="http://www.w3.org/2000/svg" xmlns:xlink="http://www.w3.org/1999/xlink" x="0px" y="0px"
	 viewBox="0 0 223 228" style="enable-background:new 0 0 223 228;" xml:space="preserve">
<style type="text/css">
	.st0{fill:none;}
	.st1{fill:none;stroke:#3cb9a6;stroke-width:1.4882;stroke-linecap:round;stroke-linejoin:round;}
	.st2{fill:#3cb9a6;}
	.st3{fill:#3cb9a6;stroke:#3cb9a6;stroke-width:1.4882;stroke-linecap:round;stroke-linejoin:round;}
	.st4{fill:none;stroke:#3cb9a6;stroke-width:1.4882;stroke-linecap:round;stroke-linejoin:round;}
	.st5{fill:#3cb9a6;stroke:#3cb9a6;stroke-width:1.4882;stroke-linejoin:round;}
	.st6{fill:url(#SVGID_1_);}
</style>
<pattern  x="-199.6" y="-1705.3" width="225" height="230" patternUnits="userSpaceOnUse" id="New_Pattern" viewBox="86.3 -261.5 225 230" style="overflow:visible;">
	<g>
		<rect x="86.3" y="-261.5" class="st0" width="225" height="230"/>
		<g>
			<g>
				<line class="st1" x1="93.5" y1="-230.7" x2="189.5" y2="-230.7"/>
				<path class="st2" d="M129.6-255.4v23.6c0,0.6-0.5,1.1-1.1,1.1h-12.4c-0.6,0-1.1-0.5-1.1-1.1v-23.6c0-0.6,0.5-1.1,1.1-1.1h12.4
					C129.2-256.4,129.6-256,129.6-255.4z M126.2-243.6c0-0.6-0.5-1.1-1.1-1.1h-1.6c-0.6,0-1.1,0.5-1.1,1.1s0.5,1.1,1.1,1.1h1.6
					C125.8-242.5,126.2-243,126.2-243.6z"/>
				<g>
					<g>
						<rect x="149.2" y="-245.8" class="st3" width="15.1" height="3.3"/>
						<line class="st4" x1="156.7" y1="-258.7" x2="156.7" y2="-245.8"/>
						<line class="st4" x1="162.9" y1="-252.3" x2="150.6" y2="-252.3"/>
					</g>
					<rect x="150.6" y="-258.7" class="st4" width="12.3" height="12.9"/>
				</g>
				<line class="st4" x1="93.5" y1="-230.7" x2="220" y2="-230.7"/>
				<g>
					<rect x="179.6" y="-245.8" class="st3" width="15.1" height="3.3"/>
					<g>
						<rect x="181.1" y="-258.7" class="st4" width="12.3" height="12.9"/>
						<line class="st4" x1="187.2" y1="-258.7" x2="187.2" y2="-245.8"/>
						<line class="st4" x1="193.3" y1="-252.3" x2="181.1" y2="-252.3"/>
					</g>
				</g>
				<rect x="107.7" y="-324.4" class="st4" width="98.1" height="93.6"/>
			</g>
		</g>
		<g>
			<g>
				<line class="st1" x1="225.7" y1="-188.1" x2="293" y2="-188.1"/>
				<rect x="232.7" y="-257.4" class="st5" width="74.7" height="3.7"/>
				<g>
					<g>
						<rect x="264.7" y="-240" class="st3" width="10.6" height="2.3"/>
						<line class="st4" x1="270" y1="-249" x2="270" y2="-240"/>
						<line class="st4" x1="274.3" y1="-244.5" x2="265.7" y2="-244.5"/>
					</g>
					<g>
						<rect x="243.4" y="-240" class="st3" width="10.6" height="2.3"/>
						<line class="st4" x1="248.7" y1="-249" x2="248.7" y2="-240"/>
						<line class="st4" x1="253" y1="-244.5" x2="244.4" y2="-244.5"/>
					</g>
				</g>
				<g>
					<rect x="244.4" y="-228.4" class="st4" width="8.6" height="9"/>
					<rect x="243.4" y="-219.4" class="st3" width="10.6" height="2.3"/>
					<line class="st4" x1="248.7" y1="-228.4" x2="248.7" y2="-219.4"/>
					<line class="st4" x1="253" y1="-223.9" x2="244.4" y2="-223.9"/>
				</g>
				<line class="st4" x1="283.1" y1="-233" x2="235.7" y2="-233"/>
				<line class="st4" x1="283.1" y1="-212.4" x2="235.7" y2="-212.4"/>
				<path class="st2" d="M251.1-204.7v16.5c0,0.4-0.3,0.7-0.7,0.7h-8.7c-0.4,0-0.7-0.3-0.7-0.7v-16.5c0-0.4,0.3-0.7,0.7-0.7h8.7
					C250.7-205.4,251.1-205.1,251.1-204.7z M248.7-196.4c0-0.4-0.3-0.7-0.7-0.7h-1.1c-0.4,0-0.7,0.3-0.7,0.7s0.3,0.7,0.7,0.7h1.1
					C248.3-195.7,248.7-196,248.7-196.4z"/>
				<rect x="265.7" y="-249" class="st4" width="8.6" height="9"/>
				<rect x="244.4" y="-249" class="st4" width="8.6" height="9"/>
				<g>
					<g>
						<rect x="264.7" y="-198.7" class="st3" width="10.6" height="2.3"/>
						<line class="st4" x1="270" y1="-207.7" x2="270" y2="-198.7"/>
						<line class="st4" x1="274.3" y1="-203.2" x2="265.7" y2="-203.2"/>
					</g>
					<rect x="265.7" y="-207.7" class="st4" width="8.6" height="9"/>
				</g>
				<g>
					<g>
						<rect x="264.7" y="-219.4" class="st3" width="10.6" height="2.3"/>
						<line class="st4" x1="270" y1="-228.4" x2="270" y2="-219.4"/>
						<line class="st4" x1="274.3" y1="-223.9" x2="265.7" y2="-223.9"/>
					</g>
					<rect x="265.7" y="-228.4" class="st4" width="8.6" height="9"/>
				</g>
				<line class="st4" x1="225.7" y1="-188.1" x2="314.3" y2="-188.1"/>
				<g>
					<rect x="286.1" y="-240" class="st3" width="10.6" height="2.3"/>
					<line class="st4" x1="291.4" y1="-249" x2="291.4" y2="-240"/>
					<line class="st4" x1="295.7" y1="-244.5" x2="287.1" y2="-244.5"/>
				</g>
				<line class="st4" x1="304.4" y1="-233" x2="235.7" y2="-233"/>
				<line class="st4" x1="304.4" y1="-212.4" x2="235.7" y2="-212.4"/>
				<rect x="287.1" y="-249" class="st4" width="8.6" height="9"/>
				<g>
					<rect x="286.1" y="-219.4" class="st3" width="10.6" height="2.3"/>
					<g>
						<rect x="287.1" y="-228.4" class="st4" width="8.6" height="9"/>
						<line class="st4" x1="291.4" y1="-228.4" x2="291.4" y2="-219.4"/>
						<line class="st4" x1="295.7" y1="-223.9" x2="287.1" y2="-223.9"/>
					</g>
				</g>
				<g>
					<rect x="286.1" y="-198.7" class="st3" width="10.6" height="2.3"/>
					<g>
						<rect x="287.1" y="-207.7" class="st4" width="8.6" height="9"/>
						<line class="st4" x1="291.4" y1="-207.7" x2="291.4" y2="-198.7"/>
						<line class="st4" x1="295.7" y1="-203.2" x2="287.1" y2="-203.2"/>
					</g>
				</g>
				<rect x="235.7" y="-253.7" class="st4" width="68.7" height="65.5"/>
			</g>
			<g>
				<line class="st1" x1="93.5" y1="-115.7" x2="189.5" y2="-115.7"/>
				<rect x="103.4" y="-214.7" class="st5" width="106.6" height="5.3"/>
				<g>
					<g>
						<rect x="149.2" y="-189.8" class="st3" width="15.1" height="3.3"/>
						<line class="st4" x1="156.7" y1="-202.7" x2="156.7" y2="-189.8"/>
						<line class="st4" x1="162.9" y1="-196.3" x2="150.6" y2="-196.3"/>
					</g>
					<g>
						<rect x="118.7" y="-189.8" class="st3" width="15.1" height="3.3"/>
						<line class="st4" x1="126.3" y1="-202.7" x2="126.3" y2="-189.8"/>
						<line class="st4" x1="132.4" y1="-196.3" x2="120.1" y2="-196.3"/>
					</g>
				</g>
				<g>
					<rect x="120.1" y="-173.2" class="st4" width="12.3" height="12.9"/>
					<rect x="118.7" y="-160.3" class="st3" width="15.1" height="3.3"/>
					<line class="st4" x1="126.3" y1="-173.2" x2="126.3" y2="-160.3"/>
					<line class="st4" x1="132.4" y1="-166.8" x2="120.1" y2="-166.8"/>
				</g>
				<line class="st4" x1="175.3" y1="-179.9" x2="107.7" y2="-179.9"/>
				<line class="st4" x1="175.3" y1="-150.4" x2="107.7" y2="-150.4"/>
				<path class="st2" d="M129.6-140.4v23.6c0,0.6-0.5,1.1-1.1,1.1h-12.4c-0.6,0-1.1-0.5-1.1-1.1v-23.6c0-0.6,0.5-1.1,1.1-1.1h12.4
					C129.2-141.4,129.6-141,129.6-140.4z M126.2-128.6c0-0.6-0.5-1.1-1.1-1.1h-1.6c-0.6,0-1.1,0.5-1.1,1.1s0.5,1.1,1.1,1.1h1.6
					C125.8-127.5,126.2-128,126.2-128.6z"/>
				<rect x="150.6" y="-202.7" class="st4" width="12.3" height="12.9"/>
				<rect x="120.1" y="-202.7" class="st4" width="12.3" height="12.9"/>
				<g>
					<g>
						<rect x="149.2" y="-130.8" class="st3" width="15.1" height="3.3"/>
						<line class="st4" x1="156.7" y1="-143.7" x2="156.7" y2="-130.8"/>
						<line class="st4" x1="162.9" y1="-137.3" x2="150.6" y2="-137.3"/>
					</g>
					<rect x="150.6" y="-143.7" class="st4" width="12.3" height="12.9"/>
				</g>
				<g>
					<g>
						<rect x="149.2" y="-160.3" class="st3" width="15.1" height="3.3"/>
						<line class="st4" x1="156.7" y1="-173.2" x2="156.7" y2="-160.3"/>
						<line class="st4" x1="162.9" y1="-166.8" x2="150.6" y2="-166.8"/>
					</g>
					<rect x="150.6" y="-173.2" class="st4" width="12.3" height="12.9"/>
				</g>
				<line class="st4" x1="93.5" y1="-115.7" x2="220" y2="-115.7"/>
				<g>
					<rect x="179.6" y="-189.8" class="st3" width="15.1" height="3.3"/>
					<line class="st4" x1="187.2" y1="-202.7" x2="187.2" y2="-189.8"/>
					<line class="st4" x1="193.3" y1="-196.3" x2="181.1" y2="-196.3"/>
				</g>
				<line class="st4" x1="205.8" y1="-179.9" x2="107.7" y2="-179.9"/>
				<line class="st4" x1="205.8" y1="-150.4" x2="107.7" y2="-150.4"/>
				<rect x="181.1" y="-202.7" class="st4" width="12.3" height="12.9"/>
				<g>
					<rect x="179.6" y="-160.3" class="st3" width="15.1" height="3.3"/>
					<g>
						<rect x="181.1" y="-173.2" class="st4" width="12.3" height="12.9"/>
						<line class="st4" x1="187.2" y1="-173.2" x2="187.2" y2="-160.3"/>
						<line class="st4" x1="193.3" y1="-166.8" x2="181.1" y2="-166.8"/>
					</g>
				</g>
				<g>
					<rect x="179.6" y="-130.8" class="st3" width="15.1" height="3.3"/>
					<g>
						<rect x="181.1" y="-143.7" class="st4" width="12.3" height="12.9"/>
						<line class="st4" x1="187.2" y1="-143.7" x2="187.2" y2="-130.8"/>
						<line class="st4" x1="193.3" y1="-137.3" x2="181.1" y2="-137.3"/>
					</g>
				</g>
				<rect x="107.7" y="-209.4" class="st4" width="98.1" height="93.6"/>
			</g>
		</g>
		<g>
			<g>
				<line class="st4" x1="0.7" y1="-188.1" x2="89.3" y2="-188.1"/>
			</g>
		</g>
		<g>
			<g>
				<line class="st1" x1="225.7" y1="-73.1" x2="293" y2="-73.1"/>
				<rect x="232.7" y="-142.4" class="st5" width="74.7" height="3.7"/>
				<g>
					<g>
						<rect x="264.7" y="-125" class="st3" width="10.6" height="2.3"/>
						<line class="st4" x1="270" y1="-134" x2="270" y2="-125"/>
						<line class="st4" x1="274.3" y1="-129.5" x2="265.7" y2="-129.5"/>
					</g>
					<g>
						<rect x="243.4" y="-125" class="st3" width="10.6" height="2.3"/>
						<line class="st4" x1="248.7" y1="-134" x2="248.7" y2="-125"/>
						<line class="st4" x1="253" y1="-129.5" x2="244.4" y2="-129.5"/>
					</g>
				</g>
				<g>
					<rect x="244.4" y="-113.4" class="st4" width="8.6" height="9"/>
					<rect x="243.4" y="-104.4" class="st3" width="10.6" height="2.3"/>
					<line class="st4" x1="248.7" y1="-113.4" x2="248.7" y2="-104.4"/>
					<line class="st4" x1="253" y1="-108.9" x2="244.4" y2="-108.9"/>
				</g>
				<line class="st4" x1="283.1" y1="-118" x2="235.7" y2="-118"/>
				<line class="st4" x1="283.1" y1="-97.4" x2="235.7" y2="-97.4"/>
				<path class="st2" d="M251.1-89.7v16.5c0,0.4-0.3,0.7-0.7,0.7h-8.7c-0.4,0-0.7-0.3-0.7-0.7v-16.5c0-0.4,0.3-0.7,0.7-0.7h8.7
					C250.7-90.4,251.1-90.1,251.1-89.7z M248.7-81.4c0-0.4-0.3-0.7-0.7-0.7h-1.1c-0.4,0-0.7,0.3-0.7,0.7c0,0.4,0.3,0.7,0.7,0.7h1.1
					C248.3-80.7,248.7-81,248.7-81.4z"/>
				<rect x="265.7" y="-134" class="st4" width="8.6" height="9"/>
				<rect x="244.4" y="-134" class="st4" width="8.6" height="9"/>
				<g>
					<g>
						<rect x="264.7" y="-83.7" class="st3" width="10.6" height="2.3"/>
						<line class="st4" x1="270" y1="-92.7" x2="270" y2="-83.7"/>
						<line class="st4" x1="274.3" y1="-88.2" x2="265.7" y2="-88.2"/>
					</g>
					<rect x="265.7" y="-92.7" class="st4" width="8.6" height="9"/>
				</g>
				<g>
					<g>
						<rect x="264.7" y="-104.4" class="st3" width="10.6" height="2.3"/>
						<line class="st4" x1="270" y1="-113.4" x2="270" y2="-104.4"/>
						<line class="st4" x1="274.3" y1="-108.9" x2="265.7" y2="-108.9"/>
					</g>
					<rect x="265.7" y="-113.4" class="st4" width="8.6" height="9"/>
				</g>
				<line class="st4" x1="225.7" y1="-73.1" x2="314.3" y2="-73.1"/>
				<g>
					<rect x="286.1" y="-125" class="st3" width="10.6" height="2.3"/>
					<line class="st4" x1="291.4" y1="-134" x2="291.4" y2="-125"/>
					<line class="st4" x1="295.7" y1="-129.5" x2="287.1" y2="-129.5"/>
				</g>
				<line class="st4" x1="304.4" y1="-118" x2="235.7" y2="-118"/>
				<line class="st4" x1="304.4" y1="-97.4" x2="235.7" y2="-97.4"/>
				<rect x="287.1" y="-134" class="st4" width="8.6" height="9"/>
				<g>
					<rect x="286.1" y="-104.4" class="st3" width="10.6" height="2.3"/>
					<g>
						<rect x="287.1" y="-113.4" class="st4" width="8.6" height="9"/>
						<line class="st4" x1="291.4" y1="-113.4" x2="291.4" y2="-104.4"/>
						<line class="st4" x1="295.7" y1="-108.9" x2="287.1" y2="-108.9"/>
					</g>
				</g>
				<g>
					<rect x="286.1" y="-83.7" class="st3" width="10.6" height="2.3"/>
					<g>
						<rect x="287.1" y="-92.7" class="st4" width="8.6" height="9"/>
						<line class="st4" x1="291.4" y1="-92.7" x2="291.4" y2="-83.7"/>
						<line class="st4" x1="295.7" y1="-88.2" x2="287.1" y2="-88.2"/>
					</g>
				</g>
				<rect x="235.7" y="-138.7" class="st4" width="68.7" height="65.5"/>
			</g>
			<g>
				<rect x="103.4" y="-99.7" class="st5" width="106.6" height="5.3"/>
				<g>
					<g>
						<rect x="149.2" y="-74.8" class="st3" width="15.1" height="3.3"/>
						<line class="st4" x1="156.7" y1="-87.7" x2="156.7" y2="-74.8"/>
						<line class="st4" x1="162.9" y1="-81.3" x2="150.6" y2="-81.3"/>
					</g>
					<g>
						<rect x="118.7" y="-74.8" class="st3" width="15.1" height="3.3"/>
						<line class="st4" x1="126.3" y1="-87.7" x2="126.3" y2="-74.8"/>
						<line class="st4" x1="132.4" y1="-81.3" x2="120.1" y2="-81.3"/>
					</g>
				</g>
				<g>
					<rect x="120.1" y="-58.2" class="st4" width="12.3" height="12.9"/>
					<rect x="118.7" y="-45.3" class="st3" width="15.1" height="3.3"/>
					<line class="st4" x1="126.3" y1="-58.2" x2="126.3" y2="-45.3"/>
					<line class="st4" x1="132.4" y1="-51.8" x2="120.1" y2="-51.8"/>
				</g>
				<line class="st4" x1="175.3" y1="-64.9" x2="107.7" y2="-64.9"/>
				<line class="st4" x1="175.3" y1="-35.4" x2="107.7" y2="-35.4"/>
				<rect x="150.6" y="-87.7" class="st4" width="12.3" height="12.9"/>
				<rect x="120.1" y="-87.7" class="st4" width="12.3" height="12.9"/>
				<g>
					<g>
						<rect x="149.2" y="-45.3" class="st3" width="15.1" height="3.3"/>
						<line class="st4" x1="156.7" y1="-58.2" x2="156.7" y2="-45.3"/>
						<line class="st4" x1="162.9" y1="-51.8" x2="150.6" y2="-51.8"/>
					</g>
					<rect x="150.6" y="-58.2" class="st4" width="12.3" height="12.9"/>
				</g>
				<g>
					<rect x="179.6" y="-74.8" class="st3" width="15.1" height="3.3"/>
					<line class="st4" x1="187.2" y1="-87.7" x2="187.2" y2="-74.8"/>
					<line class="st4" x1="193.3" y1="-81.3" x2="181.1" y2="-81.3"/>
				</g>
				<line class="st4" x1="205.8" y1="-64.9" x2="107.7" y2="-64.9"/>
				<line class="st4" x1="205.8" y1="-35.4" x2="107.7" y2="-35.4"/>
				<rect x="181.1" y="-87.7" class="st4" width="12.3" height="12.9"/>
				<g>
					<rect x="179.6" y="-45.3" class="st3" width="15.1" height="3.3"/>
					<g>
						<rect x="181.1" y="-58.2" class="st4" width="12.3" height="12.9"/>
						<line class="st4" x1="187.2" y1="-58.2" x2="187.2" y2="-45.3"/>
						<line class="st4" x1="193.3" y1="-51.8" x2="181.1" y2="-51.8"/>
					</g>
				</g>
				<rect x="107.7" y="-94.4" class="st4" width="98.1" height="93.6"/>
			</g>
		</g>
		<g>
			<g>
				<line class="st4" x1="0.7" y1="-73.1" x2="89.3" y2="-73.1"/>
			</g>
		</g>
	</g>
</pattern>
<pattern  id="SVGID_1_" xlink:href="#New_Pattern" patternTransform="matrix(0.9879 0 0 0.989 210.2717 21.7965)">
</pattern>
<rect x="0.4" y="-0.3" class="st6" width="223" height="228"/>
</svg>
