<svg xmlns="http://www.w3.org/2000/svg" width="233.416" height="52.205" viewBox="0 0 233.416 52.205"><path stroke="#00B878" stroke-miterlimit="10" d="M177.29 13.559s5.08-7.996 15.146-9.384" fill="none"/><path fill="#00B878" d="M199.499 4.32l-9.948 4.069 2.36-4.067-2.362-4.063z"/><path stroke="#F45125" stroke-miterlimit="10" d="M177.29 18.836c6.961 0 12.604 6.457 12.604 13.416 0 5.549-2.285 9.236-8.566 14.945" fill="none"/><path fill="#F45125" d="M176.103 51.946l4.627-9.7.988 4.596 4.48 1.42z"/><path stroke="#00B878" stroke-miterlimit="10" d="M1.577 23.309s6.773-10.658 20.184-11.684" fill="none"/><path fill="#00B878" d="M28.819 11.976l-10.064 3.768 2.48-3.994-2.24-4.133z"/><g fill="#333"><path d="M39.785 11.465v.819h-5.697v-.819h5.697zm0 2.81v.818h-5.697v-.818h5.697zM50.396 18.625c-.627 1.828-1.381 2.84-3.436 3.242l-.096-.723c1.685-.418 2.103-1.076 2.632-2.553h-.321l-2.921-8.394h1.012l2.536 7.704 2.486-7.704h.979l-2.871 8.428zM61.229 14.756h-5.601c.11 2.279 1.17 3.227 2.616 3.227.913 0 1.523-.289 2.262-.834l.434.592c-.786.643-1.637 1.027-2.744 1.027-2.216 0-3.563-1.604-3.563-4.3 0-2.682 1.3-4.446 3.354-4.446 2.184 0 3.275 1.589 3.275 4.061-.001.255-.019.513-.033.673zm-.882-.963c0-1.83-.739-3.002-2.328-3.002-1.301 0-2.295.964-2.391 3.242h4.719v-.24zM68.997 10.952l-.45.626c-.722-.529-1.348-.787-2.199-.787-1.106 0-1.861.547-1.861 1.414 0 .834.53 1.188 2.038 1.588 1.83.482 2.696 1.107 2.696 2.536 0 1.557-1.363 2.438-3.033 2.438-1.363 0-2.279-.465-3.001-1.074l.529-.609c.691.577 1.429.898 2.456.898 1.22 0 2.07-.578 2.07-1.59 0-1.027-.466-1.396-2.215-1.877-1.782-.465-2.503-1.123-2.503-2.311 0-1.269 1.203-2.184 2.792-2.184 1.076.001 1.894.322 2.681.932z"/></g><g fill="#333"><path d="M108.674 11.465v.819h-5.698v-.819h5.698zm0 2.81v.818h-5.698v-.818h5.698zM122.651 12.59v6.002h-.931v-5.873c0-1.381-.562-1.943-1.589-1.943-1.14 0-1.91.707-2.6 1.734v6.082h-.931v-8.394h.803l.096 1.428c.658-.961 1.589-1.604 2.809-1.604 1.526-.001 2.343.947 2.343 2.568zM132.73 14.371c0 2.713-1.348 4.396-3.563 4.396-2.23 0-3.547-1.668-3.547-4.365 0-2.695 1.364-4.381 3.563-4.381 2.231 0 3.547 1.605 3.547 4.35zm-6.115.031c0 2.359.948 3.58 2.552 3.58 1.605 0 2.585-1.203 2.585-3.611 0-2.359-.948-3.564-2.568-3.564-1.589 0-2.569 1.189-2.569 3.595z"/></g><path stroke="#F45125" stroke-miterlimit="10" d="M90.356 6.332c3.547 0 6.424 3.292 6.424 6.839 0 2.828-1.164 4.709-4.367 7.619" fill="none"/><path fill="#F45125" d="M87.188 25.538l4.629-9.699.987 4.597 4.48 1.419z"/><path stroke="#F45125" stroke-miterlimit="10" d="M142.988 18.836c6.961 0 12.604 6.458 12.604 13.417 0 5.549-2.285 9.236-8.566 14.945" fill="none"/><path fill="#F45125" d="M141.799 51.947l4.629-9.7.988 4.596 4.48 1.42z"/><g stroke="#00B878" stroke-miterlimit="10" fill="none"><path d="M142.988 13.56s.742-1.17 2.223-2.692"/><path stroke-dasharray="5.6003,2.4001" d="M146.965 9.235c2.918-2.459 7.436-5.083 13.537-5.256"/><path d="M161.715 3.978c1.111.027 2.271.137 3.482.342"/></g><path stroke="#00B878" stroke-miterlimit="10" d="M210.052 13.559s.743-1.17 2.225-2.693" fill="none"/><path stroke="#00B878" stroke-miterlimit="10" stroke-dasharray="6.0914,2.6106" d="M214.191 9.099c1.635-1.353 3.751-2.741 6.349-3.731" fill="none"/><path stroke="#00B878" stroke-miterlimit="10" d="M221.78 4.938c1.066-.334 2.206-.596 3.418-.764" fill="none"/><path fill="#00B878" d="M232.261 4.319l-9.949 4.07 2.36-4.067-2.362-4.064z"/></svg>