<svg xmlns="http://www.w3.org/2000/svg" width="812" height="394.963" viewBox="0 0 812 394.963"><g fill="#fff"><path d="M269.393 211.716v20.068h-1.874v-20.068h-6.445v-1.683h14.924l-.223 1.683h-6.382zM292.286 219.908v11.876h-1.842v-11.622c0-2.699-1.143-3.843-3.143-3.843-2.255 0-3.779 1.396-5.145 3.431v12.034h-1.842v-23.37l1.842-.224v9.748c1.334-1.873 3.111-3.11 5.494-3.11 2.986 0 4.636 1.937 4.636 5.08zM311.212 224.194h-11.082c.223 4.51 2.318 6.384 5.176 6.384 1.811 0 3.018-.572 4.478-1.652l.857 1.177c-1.556 1.27-3.239 2.03-5.43 2.03-4.382 0-7.05-3.175-7.05-8.51 0-5.304 2.572-8.795 6.637-8.795 4.318 0 6.479 3.144 6.479 8.032-.001.509-.033 1.017-.065 1.334zm-1.746-1.904c0-3.62-1.461-5.938-4.604-5.938-2.572 0-4.541 1.905-4.732 6.414h9.336v-.476zM338.076 212.099l-1.144 1.237c-1.588-1.43-3.049-2.032-5.049-2.032-2.667 0-4.509 1.396-4.509 3.684 0 2.223 1.175 3.238 5.081 4.414 3.905 1.207 6.287 2.604 6.287 6.445 0 3.715-2.826 6.286-7.209 6.286-2.984 0-5.176-1.047-6.953-2.729l1.143-1.238c1.524 1.43 3.239 2.35 5.779 2.35 3.049 0 5.303-1.683 5.303-4.604 0-2.637-1.302-3.715-5.176-4.922-4.318-1.334-6.191-2.826-6.191-5.971 0-3.08 2.572-5.334 6.382-5.334 2.826 0 4.541.886 6.256 2.414zM364.971 219.908v11.876h-1.841v-11.622c0-2.699-1.111-3.843-2.826-3.843-2.001 0-3.398 1.396-4.668 3.431v12.034h-1.842v-11.622c0-2.699-1.111-3.843-2.826-3.843-2 0-3.43 1.396-4.668 3.431v12.034h-1.842v-16.605h1.588l.158 2.824c1.238-1.904 2.985-3.175 5.113-3.175 2.127 0 3.619 1.237 4.127 3.303 1.238-1.969 3.018-3.303 5.208-3.303 2.667 0 4.319 1.937 4.319 5.08zM382.499 228.101c0 1.842.509 2.383 1.398 2.731l-.414 1.301c-1.46-.284-2.317-1.016-2.571-2.793-1.175 1.904-2.953 2.793-5.176 2.793-3.207 0-5.144-2-5.144-4.952 0-3.492 2.635-5.398 6.891-5.398h3.175v-1.588c0-2.635-1.079-3.811-3.843-3.811-1.333 0-2.857.35-4.509.952l-.476-1.396c1.842-.73 3.492-1.111 5.238-1.111 3.779 0 5.43 1.873 5.43 5.271l.001 8.001zm-1.841-.381v-4.572h-2.89c-3.334 0-5.207 1.303-5.207 3.938 0 2.287 1.301 3.557 3.492 3.557 2.096-.001 3.557-1.049 4.605-2.923zM391.518 228.926c0 1.08.381 1.62 1.365 1.62.382 0 .763-.062 1.111-.222l.509 1.364c-.572.254-1.271.443-1.969.443-1.779 0-2.858-1.016-2.858-3.207v-20.512l1.842-.223v20.737zM401.171 228.926c0 1.08.381 1.62 1.365 1.62.381 0 .762-.062 1.11-.222l.509 1.364c-.571.254-1.271.443-1.97.443-1.776 0-2.856-1.016-2.856-3.207v-20.512l1.842-.223v20.737zM432.544 225.751c0 4.159-3.049 6.033-7.812 6.033h-5.938v-21.751h4.858c4.954 0 7.875 1.745 7.875 5.43 0 2.795-1.715 4.382-4.001 4.795 2.636.285 5.018 1.746 5.018 5.493zm-11.845-6.16h4.382c2.636 0 4.51-1.46 4.51-4.001 0-2.922-2.096-3.969-5.748-3.969h-3.144v7.97zm4.032 10.605c3.524 0 5.844-1.206 5.844-4.445 0-3.302-2.318-4.636-5.271-4.636h-4.604v9.081h4.031zM448.325 231.784l-.097-2.953c-1.174 1.969-2.856 3.302-5.43 3.302-2.983 0-4.699-1.809-4.699-5.079v-11.875h1.843v11.684c0 2.637 1.11 3.748 3.271 3.748 2.19 0 3.716-1.43 4.858-3.397v-12.034h1.842v16.606l-1.588-.002zM466.647 216.67l-.89 1.238c-1.43-1.05-2.668-1.558-4.352-1.558-2.19 0-3.684 1.08-3.684 2.795 0 1.65 1.049 2.351 4.032 3.145 3.62.952 5.335 2.189 5.335 5.018 0 3.08-2.699 4.825-6.001 4.825-2.699 0-4.51-.92-5.938-2.127l1.048-1.207c1.365 1.144 2.826 1.779 4.857 1.779 2.413 0 4.098-1.144 4.098-3.146 0-2.031-.922-2.762-4.383-3.715-3.524-.921-4.953-2.223-4.953-4.572 0-2.508 2.381-4.317 5.524-4.317 2.132 0 3.751.635 5.307 1.842zM474.935 209.207c0 .729-.538 1.334-1.396 1.334-.826 0-1.365-.604-1.365-1.334s.539-1.334 1.365-1.334c.857 0 1.396.605 1.396 1.334zm-2.287 22.577v-16.605h1.842v16.605h-1.842zM493.828 219.908v11.876h-1.842v-11.622c0-2.729-1.111-3.843-3.145-3.843-2.254 0-3.779 1.396-5.145 3.431v12.034h-1.842v-16.605h1.588l.19 2.824c1.301-1.904 3.144-3.175 5.558-3.175 3.019 0 4.638 1.873 4.638 5.08zM512.753 224.194h-11.082c.223 4.51 2.318 6.384 5.176 6.384 1.812 0 3.019-.572 4.479-1.652l.856 1.177c-1.556 1.27-3.238 2.03-5.43 2.03-4.382 0-7.05-3.175-7.05-8.51 0-5.304 2.572-8.795 6.637-8.795 4.318 0 6.479 3.144 6.479 8.032-.001.509-.033 1.017-.065 1.334zm-1.746-1.904c0-3.62-1.461-5.938-4.604-5.938-2.572 0-4.541 1.905-4.732 6.414h9.336v-.476zM528.122 216.67l-.889 1.238c-1.431-1.05-2.668-1.558-4.352-1.558-2.189 0-3.683 1.08-3.683 2.795 0 1.65 1.047 2.351 4.032 3.145 3.619.952 5.335 2.189 5.335 5.018 0 3.08-2.699 4.825-6.002 4.825-2.699 0-4.51-.92-5.938-2.127l1.047-1.207c1.366 1.144 2.826 1.779 4.859 1.779 2.412 0 4.096-1.144 4.096-3.146 0-2.031-.921-2.762-4.382-3.715-3.524-.921-4.954-2.223-4.954-4.572 0-2.508 2.382-4.317 5.525-4.317 2.13 0 3.75.635 5.306 1.842zM543.491 216.67l-.89 1.238c-1.43-1.05-2.668-1.558-4.352-1.558-2.189 0-3.683 1.08-3.683 2.795 0 1.65 1.048 2.351 4.031 3.145 3.62.952 5.335 2.189 5.335 5.018 0 3.08-2.698 4.825-6 4.825-2.699 0-4.511-.92-5.938-2.127l1.048-1.207c1.365 1.144 2.826 1.779 4.858 1.779 2.413 0 4.097-1.144 4.097-3.146 0-2.031-.922-2.762-4.383-3.715-3.524-.921-4.953-2.223-4.953-4.572 0-2.508 2.381-4.317 5.525-4.317 2.129 0 3.749.635 5.305 1.842z"/></g><g fill="#fff"><path d="M231.305 254.987l-1.765 1.812c-2.353-1.812-4.46-2.646-7.498-2.646-5.294 0-10.881 4.068-10.881 14.705 0 10.291 4.166 14.947 10.782 14.947 2.745 0 4.95-.588 7.058-1.764v-11.91h-6.567l-.343-2.451h9.802v15.881c-2.94 1.715-6.273 2.744-10.097 2.744-8.185 0-13.723-5.832-13.723-17.447 0-11.52 6.91-17.203 13.919-17.203 4.019 0 6.568 1.128 9.313 3.332zM256.839 285.769l-.146-4.56c-1.813 3.039-4.411 5.099-8.381 5.099-4.607 0-7.254-2.795-7.254-7.843v-18.33h2.843v18.035c0 4.067 1.716 5.783 5.048 5.783 3.382 0 5.734-2.205 7.499-5.244v-18.574h2.843v25.634h-2.452zM274.188 250.92c0 1.127-.833 2.06-2.156 2.06-1.274 0-2.107-.933-2.107-2.06s.833-2.06 2.107-2.06c1.323 0 2.156.933 2.156 2.06zm-3.528 34.849v-25.634h2.843v25.634h-2.843zM303.154 285.769h-2.45l-.344-3.922c-1.52 2.549-3.97 4.461-7.695 4.461-5.979 0-9.605-5.099-9.605-13.233 0-7.892 3.773-13.478 10.047-13.478 3.48 0 5.734 1.666 7.205 3.479v-13.723l2.843.344-.001 36.072zm-2.842-6.57v-13.38c-1.52-2.156-3.578-3.873-6.715-3.873-4.509 0-7.547 3.873-7.498 11.076 0 7.156 2.695 10.931 7.008 10.931 3.382 0 5.44-1.716 7.205-4.754zM332.119 274.054h-17.104c.343 6.961 3.578 9.852 7.988 9.852 2.794 0 4.656-.883 6.91-2.549l1.324 1.813c-2.402 1.96-5 3.138-8.381 3.138-6.764 0-10.881-4.902-10.881-13.136 0-8.187 3.97-13.575 10.243-13.575 6.665 0 9.999 4.852 9.999 12.398.001.783-.049 1.568-.098 2.059zm-2.695-2.942c0-5.588-2.255-9.165-7.106-9.165-3.971 0-7.009 2.94-7.303 9.899h14.409v-.734zM367.7 284.688c-1.568 1.029-3.332 1.617-5.391 1.617-3.872 0-6.273-2.305-6.273-6.764v-17.105h-4.312v-2.303h4.312v-6.127l2.843-.344v6.471h6.616l-.343 2.303h-6.273v16.959c0 2.988 1.176 4.459 3.773 4.459 1.421 0 2.647-.393 3.921-1.176l1.127 2.01zM392.892 272.877c0 8.283-4.116 13.431-10.88 13.431-6.812 0-10.831-5.099-10.831-13.332s4.166-13.379 10.88-13.379c6.812 0 10.831 4.899 10.831 13.28zm-18.673.099c0 7.205 2.892 10.93 7.793 10.93s7.891-3.676 7.891-11.027c0-7.205-2.892-10.881-7.842-10.881-4.853-.002-7.842 3.625-7.842 10.978zM434.062 283.121l-.394 2.646h-16.565v-33.572h2.94v30.927h14.019zM444.599 250.92c0 1.127-.834 2.06-2.155 2.06-1.274 0-2.107-.933-2.107-2.06s.833-2.06 2.107-2.06c1.321 0 2.155.933 2.155 2.06zm-3.53 34.849v-25.634h2.843v25.634h-2.843zM473.76 267.438v18.33h-2.843v-17.938c0-4.216-1.715-5.931-4.852-5.931-3.48 0-5.832 2.156-7.94 5.293v18.576h-2.843v-25.634h2.451l.294 4.361c2.009-2.94 4.853-4.899 8.577-4.899 4.657.001 7.156 2.889 7.156 7.842zM484.886 285.769v-36.072l2.843-.344v36.416h-2.843zm18.33 0h-3.431l-11.763-14.019 10.781-11.615h3.284l-10.783 11.47 11.912 14.164zM527.378 274.054h-17.104c.344 6.961 3.577 9.852 7.988 9.852 2.794 0 4.656-.883 6.911-2.549l1.322 1.813c-2.4 1.96-4.998 3.138-8.381 3.138-6.764 0-10.88-4.902-10.88-13.136 0-8.187 3.97-13.575 10.242-13.575 6.666 0 9.998 4.852 9.998 12.398.002.783-.047 1.568-.096 2.059zm-2.695-2.942c0-5.588-2.255-9.165-7.106-9.165-3.969 0-7.008 2.94-7.303 9.899h14.409v-.734zM554.923 285.769h-2.451l-.344-3.922c-1.519 2.549-3.969 4.461-7.694 4.461-5.979 0-9.605-5.099-9.605-13.233 0-7.892 3.773-13.478 10.048-13.478 3.479 0 5.734 1.666 7.204 3.479v-13.723l2.844.344-.002 36.072zm-2.844-6.57v-13.38c-1.521-2.156-3.577-3.873-6.714-3.873-4.509 0-7.548 3.873-7.499 11.076 0 7.156 2.694 10.931 7.009 10.931 3.382 0 5.44-1.716 7.204-4.754zM566.538 285.769v-33.574h2.938v33.574h-2.938zM599.571 267.438v18.33h-2.845v-17.938c0-4.216-1.715-5.931-4.852-5.931-3.479 0-5.832 2.156-7.939 5.293v18.576h-2.843v-25.634h2.45l.295 4.361c2.009-2.94 4.852-4.899 8.576-4.899 4.658.001 7.158 2.889 7.158 7.842z"/></g><path fill="#fff" d="M47.607 310.509l-1.563-1.248 157.396-197.042 1.563 1.248z"/><circle fill="#fff" cx="46.779" cy="309.858" r="11.279"/><path fill="#fff" d="M15.657 188.806l-.738-1.86 188.967-75.005.738 1.86z"/><circle fill="#fff" cx="204.27" cy="112.869" r="11.28"/><path fill="#fff" d="M228.243 356.368l-213.569-167.706 1.235-1.572 213.569 167.706z"/><circle fill="#fff" cx="15.279" cy="187.865" r="11.28"/><path fill="#fff" d="M665.434 341.146l-1.922-.55 59.604-208.148 1.922.55z"/><circle fill="#fff" cx="664.459" cy="340.884" r="11.28"/><path fill="#fff" d="M723.5 133.498l-107.965-93.511 1.309-1.511 107.965 93.511z"/><circle fill="#fff" cx="724.129" cy="132.764" r="11.279"/><path fill="#fff" d="M465.736 151.17l-1.185-1.611 151.03-111.111 1.185 1.611z"/><circle fill="#fff" cx="616.17" cy="39.25" r="11.279"/><path fill="#fff" d="M465.863 154.88l-85.547-138.1 1.701-1.054 85.547 138.1z"/><circle fill="#fff" cx="466.721" cy="154.352" r="11.279"/><path fill="#fff" d="M723.86 133.731l-342.959-116.529.644-1.895 342.959 116.529z"/><circle fill="#fff" cx="381.17" cy="16.25" r="11.279"/><path fill="#fff" d="M204.762 113.759l-.959-1.756 176.866-96.647.959 1.756zM724.112 133.733l-519.891-19.874.076-1.998 519.891 19.874zM426.453 339.15l237.994 2.734.024-2-238.143-2.734zM434.451 337.917c0-15.741-12.761-28.502-28.5-28.502-14.653 0-26.718 11.06-28.316 25.286l-330.778-25.84-.156 1.994 330.779 25.84c-.017.405-.031.812-.031 1.222 0 .615.026 1.225.065 1.83l-137.603 13.727c-.989-5.221-5.567-9.17-11.075-9.17-6.229 0-11.279 5.05-11.279 11.279s5.05 11.279 11.279 11.279 11.279-5.05 11.279-11.279l-.006-.119 137.602-13.727c1.868 13.933 13.795 24.681 28.24 24.681l.431-.011v28.556h2v-28.655c14.6-1.235 26.069-13.47 26.069-28.391zm-35.136 12.937h-5.79v-18.616h5.79v18.616zm-2.894-21.163c-1.854 0-3.354-1.504-3.354-3.357 0-1.85 1.5-3.354 3.354-3.354 1.849 0 3.354 1.504 3.354 3.354-.002 1.854-1.505 3.357-3.354 3.357zm24.565 21.163h-5.78v-9.054c0-2.161-.044-4.937-3.008-4.937-3.013 0-3.472 2.351-3.472 4.778v9.211h-5.783v-18.616h5.552v2.541h.08c.771-1.463 2.658-3.004 5.474-3.004 5.854 0 6.938 3.853 6.938 8.868v10.213z"/></svg>