<svg xmlns="http://www.w3.org/2000/svg" width="33" height="1551.168" viewBox="0 0 33 1551.168"><g stroke="#fff" stroke-width="1.4" stroke-miterlimit="10"><circle cx="16.5" cy="16.205" r="14.999" fill="none"/><path d="M14.416 21v3"/><path d="M12.071 10.587c0-1.452 1.247-2.271 4.15-2.271 2.42 0 4.011 1.525 4.011 3.461l-3.391 3.423s-2.424 1.006-2.424 3.909v-.109" fill="none"/></g><g stroke="#fff" stroke-width="1.4" stroke-miterlimit="10" fill="none"><path d="M12.416 218.002v2.498h10v-2.639c3-1.721 4.419-4.76 4.419-8.278 0-5.396-4.491-9.747-9.887-9.747s-9.477 4.386-9.477 9.78c0 3.52 1.945 6.667 4.945 8.386zM14.97 220.328l-1.395-9.305M19.648 220.328l1.396-9.305M13.764 211.331l1.882 1.554 1.552-1.554 1.553 1.554 2.071-1.554"/><path d="M12.416 220.5h10v3h-10zM13.416 223.5h8v3h-8zM14.416 226.5h6v2h-6z"/></g><g stroke="#fff" stroke-width="1.4" stroke-miterlimit="10" fill="none"><circle cx="16.975" cy="345.847" r="14.244"/><path d="M17.416 332v28M30.916 345.5h-28M16.059 331.655s-6.409 5.035-6.409 14.191l6.409 14.192M17.89 331.655s6.41 5.035 6.41 14.191l-6.41 14.192M5.987 336.69s2.289 4.578 10.987 4.578 10.987-4.578 10.987-4.578M5.987 355.003s2.289-4.578 10.987-4.578 10.987 4.578 10.987 4.578"/></g><g stroke="#fff" stroke-width="1.4" stroke-miterlimit="10" fill="none"><path d="M11.916 408.5h12M11.916 412.5h12M11.916 416.5h12M11.916 420.5h12M9.916 408.5h-2M9.916 412.5h-2M9.916 416.5h-2M9.916 420.5h-2M11.916 400.5h-6.5v27h22v-27h-6.5"/><path d="M18.416 398.5v-1h-4v1h-1.96l-.968 4h9.677l-.968-4z"/></g><g stroke="#fff" stroke-width="1.4" stroke-miterlimit="10" fill="none"><path d="M17.062 265.5h-2.646v4.3l-2.996.96-2.939-2.88-3.869 3.84 2.866 2.889-.975 2.891h-5.087v6h5.087l.96 2.748-2.88 2.815 3.84 3.806 2.997-2.895 2.996.943v4.583h5v-4.583l3.143-.96 3.011 2.88 3.905-3.839-2.847-2.75.993-2.748h3.795v-6h-3.795l-.96-2.891 2.88-2.884-3.84-3.844-3.142 2.879-3.143-.96v-4.3z"/><circle cx="17.062" cy="280.358" r="2.88"/></g><g stroke="#fff" stroke-width="1.4" stroke-miterlimit="10" fill="none"><path d="M16.416 552v7M16.416 529v8M8.916 544.5h-7M31.916 544.5h-8"/><circle cx="16.5" cy="544.205" r="11.25"/></g><g stroke="#fff" stroke-width="1.4" stroke-miterlimit="10" fill="none"><path d="M13.546 617.5h12.87v-16h-24v16h6v5.804zM26.916 615.5h3.5v-18h-24v4.5"/></g><g stroke="#fff" stroke-width="1.4" stroke-miterlimit="10" fill="none"><circle cx="25.61" cy="733.331" r="5.806"/><circle cx="6.255" cy="747.363" r="4.839"/><circle cx="24.158" cy="753.653" r="3.871"/><path d="M20.287 753.17l-9.678-3.871M10.125 743.976l10.646-6.774"/></g><g stroke="#fff" stroke-width="1.4" stroke-miterlimit="10" fill="none"><path d="M5.416 926v30M17.508 929.057l-3.092 2.243v11.2h14.964l-2.813-5.5 2.813-5.5h-14.464M14.916 940.5h-9.5v-12h12v2.5"/></g><path stroke="#fff" stroke-width="1.4" stroke-miterlimit="10" fill="none" d="M2.416 867.5h28v17h-28zM2.916 872.5h27M14.416 873v2.5h4v-2.5M12.393 867.306s0-3.681 3.998-3.681 3.998 3.681 3.998 3.681"/><g stroke="#fff" stroke-width="1.4" stroke-miterlimit="10" fill="none"><circle cx="16.5" cy="1204.929" r="14.999"/><circle cx="16.501" cy="1204.929" r="9.622"/><circle cx="16.5" cy="1204.93" r="3.387"/></g><g stroke="#fff" stroke-width="1.4" stroke-linejoin="bevel" stroke-miterlimit="10" fill="none"><path d="M31.5 1281.836c0-6.486-2.322-12.431-6.181-17.045M25.319 1264.791c-4.877-5.834-12.211-9.546-20.41-9.546M26.046 1281.836c0-11.673-9.464-21.136-21.137-21.136M20.591 1281.836c0-8.66-7.022-15.682-15.682-15.682M15.136 1281.836c0-5.648-4.579-10.228-10.228-10.228"/><circle cx="4.909" cy="1281.836" r="3.409"/></g><g stroke="#fff" stroke-width="1.4" stroke-miterlimit="10" fill="none"><path d="M18.257 1402.984l2.449 2.449"/><path d="M31.487 1413.276l-2.937 2.937-9.303-9.303 2.937-2.937zM6.507 1394.172l2.937-2.939-4.896-2.937-.979.979zM14.34 1399.067l-6.364-6.365"/><path d="M29.029 1392.418l-3.917 1.856-1.958-2.011 1.548-3.942c-4.896 0-6.286 2.423-6.286 4.871v1.958l-16.236 16.648-.775 2.938 1.082.979 2.989-.773 16.699-16.441h1.958c2.448-.001 4.896-1.187 4.896-6.083z"/></g><g stroke="#fff" stroke-width="1.4" stroke-miterlimit="10" fill="none"><path d="M11.916 804.5h9M16.416 800v9"/><path d="M9.416 794.5h14v29.066l-7.265-6.825-6.735 6.825z"/></g><g stroke="#fff" stroke-width="1.4" stroke-miterlimit="10" fill="none"><path d="M2.416 1126.5h28v23h-28z"/><path stroke-linejoin="round" d="M16.657 1142.271l-2.919 1.907 1.013-3.553-2.859-2.125h3.437l1.328-3.812 1.429 3.812h3.336l-2.86 2.125.924 3.441z"/><path d="M2.916 1130.5h28M6.916 1128.5h-2M10.916 1128.5h-2M14.916 1128.5h-2"/></g><g stroke="#fff" stroke-width="1.4" stroke-miterlimit="10" fill="none"><path d="M2.416 136.5h28v23h-28zM2.916 140.5h28M6.916 138.5h-2M10.916 138.5h-2M14.916 138.5h-2M16.416 146v9M20.916 150.5h-9"/></g><g stroke="#fff" stroke-width="1.4" stroke-miterlimit="10" fill="none"><path d="M22.916 666.5h-12M7.916 666.5h-5.5v21h29v-21h-4.5"/><path d="M7.416 664.5h3v3h-3zM23.416 664.5h3v3h-3zM2.916 669.5h28"/><path d="M11.947 677.416c0 3.01 4.516 5.42 4.516 5.42s4.516-2.41 4.516-5.42c0-1.248-.903-2.259-2.258-2.259-1.248 0-2.258 1.011-2.258 2.259 0-1.248-1.011-2.259-2.258-2.259-1.354 0-2.258 1.011-2.258 2.259z"/></g><g stroke="#fff" stroke-width="1.4" stroke-miterlimit="10" fill="none"><path d="M4.416 88.5h6v8h-6zM22.416 75.5h6v21h-6zM13.416 81.5h6v15h-6zM4.416 83.667l22-15.855M21.916 67.5h4.5v4.5"/></g><g stroke="#fff" stroke-width="1.4" stroke-miterlimit="10" fill="none"><circle cx="28.487" cy="479.054" r="1.377"/><circle cx="12.88" cy="465.282" r="1.377"/><circle cx="21.143" cy="486.396" r="1.377"/><circle cx="5.995" cy="477.677" r="1.377"/><path d="M6.454 476.299l5.508-10.098M22.52 485.479l5.049-5.507"/><path d="M2.416 490.5h29v2h-29zM13.798 466.201l6.427 18.82"/></g><g stroke="#fff" stroke-width="1.4" stroke-miterlimit="10" fill="none"><path d="M2.416 1005.538v2.709l3.022 3.253h17.387l7 5h.591v-22h-.591l-7 6h-17.387l-3.022 2.328zM10.857 1011.164l-3.161 8.336h2.71l4.516-8.232M22.416 1000v11M18.416 1011v-11"/></g><g stroke="#fff" stroke-width="1.4" stroke-miterlimit="10" fill="none"><path d="M20.849 1464.271s0-2.903-4.355-2.903l-3.871 3.387s0 3.388 3.871 3.388c4.355 0 4.844 2.902 4.844 3.387 0 .968.479 3.871-4.844 3.871-4.355 0-4.349-1.936-4.349-2.42"/><circle cx="16.5" cy="1468.626" r="14.999"/></g><g stroke="#fff" stroke-width="1.4" stroke-miterlimit="10" fill="none"><path d="M9.416 1333.58c0 2.139 2.689 3.871 7.5 3.871s7.5-1.732 7.5-3.871v-12.08h-15v12.08zM10.916 1351.5h12M16.416 1337v14M8.916 1323.5h-4.513s.079 4.354 4.434 4.354M24.916 1323.5h3.681s.337 4.354-4.018 4.354"/></g><path stroke="#fff" stroke-width="1.4" stroke-miterlimit="10" fill="none" d="M10.693 1083.479l-4.838-4.839"/><path stroke="#fff" stroke-width="1.4" stroke-miterlimit="10" fill="none" d="M5.855 1078.64l-4.355 8.71.484.484 8.709-4.355 20.807-20.807-4.839-4.838zM27.145 1067.026l-4.838-4.838M29.081 1065.091l-4.839-4.839M3.436 1083.479l1.935.483.484 1.935"/><g stroke="#fff" stroke-width="1.4" stroke-miterlimit="10" fill="none"><path d="M12.416 1545.5h8v3h-8zM11.416 1541.5h11v4h-11zM20.416 1541v-1.755l3.427-5.981-7.258-13.342-7.375 13.342 3.206 5.981v1.755"/><circle cx="16.689" cy="1532.747" r="1.84"/><path d="M16.416 1520v11"/></g><path stroke="#fff" stroke-width="1.4" stroke-miterlimit="10" fill="none" d="M15.416 1459v19M18.416 1459v19"/></svg>