<svg xmlns="http://www.w3.org/2000/svg" xmlns:xlink="http://www.w3.org/1999/xlink" width="307" height="126" viewBox="0 0 307 126"><style>.style0{clip-path: url(#SVGID_2_);fill: #F5B403;}.style1{fill: #FFFFFF;}.style2{fill: #4385F5;}.style3{fill: #77A7FB;}.style4{fill: #A0C2FF;}.style5{clip-path: url(#SVGID_4_);}</style><defs><path d="M144 14h129v112h-129z"/></defs><clipPath><use xlink:href="#SVGID_3_" overflow="visible"/></clipPath><circle cx="209.5" cy="86.5" r="56.5" class="style0"/><circle cx="253.5" cy="72.8" r="27.2" class="style1"/><circle cx="282.5" cy="79.8" r="19.5" class="style1"/><circle cx="223.8" cy="81.3" r="15.8" class="style1"/><circle cx="92.8" cy="28.8" r="23.2" class="style1"/><circle cx="117.6" cy="34.8" r="16.6" class="style1"/><circle cx="67.5" cy="36" r="13.4" class="style1"/><path class="style1" d="M132 94h52v32h-52z"/><path d="M129 58v68h34v-30h16v30h10v-68h-60zm28 52h-22v-14h22v14z" class="style2"/><path d="M121.445 82l-.014.527c0 4.1 3.3 7.5 7.4 7.5 4.096 0 7.414-3.52 7.414-7.615l-.012-.459h-14.788zM136.273 82l-.014.527c0 4.1 3.3 7.5 7.4 7.5 4.094 0 7.414-3.52 7.414-7.615l-.014-.459h-14.786zM151.102 82l-.014.527c0 4.1 3.3 7.5 7.4 7.5 4.096 0 7.414-3.52 7.414-7.615l-.014-.459h-14.786zM165.928 82l-.014.527c0 4.1 3.3 7.5 7.4 7.5 4.096 0 7.416-3.52 7.416-7.615l-.014-.459h-14.788zM180.754 82l-.012.527c0 4.1 3.3 7.5 7.4 7.547s7.414-3.52 7.414-7.615l-.014-.459h-14.788z" class="style3"/><path class="style4" d="M188.7 68h-60.9l-6.1 14h73.6z"/><defs><path d="M4 73h109v53h-109z"/></defs><clipPath><use xlink:href="#SVGID_5_" overflow="visible"/></clipPath><g class="style5"><circle cx="56" cy="105.5" r="29.8" class="style1"/><circle cx="87.8" cy="113.1" r="21.4" class="style1"/><circle cx="23.3" cy="114.7" r="17.3" class="style1"/></g></svg>