<svg xmlns="http://www.w3.org/2000/svg" width="135" height="1879.407" viewBox="0 0 135 1879.407"><g><path fill="#A0C2FF" d="M105.783 273.876h-77v-77h62.807l14.193 15.019z"/><path fill="#4385F5" d="M99.062 210.876h-30.279v-12h22.696zM31.783 198.876h34v39h-34zM68.783 213.876h33v24h-33zM68.783 240.876h33v30h-33zM31.783 240.876h34v13h-34zM31.783 256.876h34v14h-34z"/><path fill="#BDD6F9" d="M91.443 211.396h14.369l-14.369-14.366z"/><path fill="#2B75E0" d="M105.791 211.396h-14.308l14.308 14.438z"/><g fill="#A0C2FF"><path d="M56.912 212.455v-3.095h-1.314v3.095h-3.096v1.305h3.096v3.116h1.314v-3.116h3.096v-1.305zM51.352 221.488c-.188-.259-.412-.504-.664-.735l-.781-.699-.887-.688c-.133-.117-.273-.253-.422-.412-.146-.157-.223-.37-.223-.654 0-.279.076-.511.223-.699.148-.174.305-.354.469-.514.265-.199.52-.409.768-.633.246-.229.471-.472.668-.745.199-.273.354-.581.47-.925.114-.347.171-.753.171-1.215 0-.461-.066-.87-.199-1.239-.13-.357-.287-.677-.467-.95-.181-.271-.371-.501-.57-.691-.199-.191-.373-.341-.52-.46h1.534l1.581-.867h-5.091c-.677 0-1.404.085-2.188.248-.786.167-1.529.538-2.239 1.111-.525.467-.922.991-1.186 1.574-.266.585-.395 1.162-.395 1.736 0 .486.09.958.273 1.421.182.473.441.891.789 1.254.346.362.773.657 1.286.873.512.224 1.091.338 1.755.338l.395-.014.396-.037-.171.436c-.053.139-.076.312-.076.529 0 .38.08.699.234.953.158.254.326.499.506.729-.279.014-.606.041-.99.071-.379.032-.783.096-1.211.178-.426.081-.857.192-1.295.333-.436.141-.846.321-1.223.551-.727.434-1.224.931-1.498 1.497-.27.577-.406 1.076-.406 1.521 0 .462.106.897.322 1.321.215.42.543.799.986 1.123.446.331 1.003.596 1.669.789.666.202 1.444.298 2.337.298 1.054 0 1.986-.125 2.805-.404.816-.273 1.496-.63 2.041-1.062.543-.437.956-.938 1.235-1.502.278-.562.419-1.134.419-1.707 0-.429-.055-.812-.174-1.136-.112-.33-.265-.628-.456-.896zm-4.686-4.261c-.523 0-.984-.159-1.368-.468-.388-.306-.713-.676-.967-1.124-.253-.445-.44-.926-.567-1.441-.124-.507-.184-.974-.184-1.384 0-.332.036-.654.109-.971.074-.312.221-.601.436-.867.193-.252.448-.449.764-.593.316-.151.633-.224.965-.224.511 0 .959.152 1.346.46.389.307.713.688.979 1.152.264.465.461.957.591 1.486.134.529.198 1.019.198 1.465 0 .231-.032.522-.098.87-.067.346-.239.654-.52.938-.199.196-.451.367-.754.494-.305.137-.612.207-.93.207zm2.732 9.177c-.615.502-1.52.753-2.705.753-1.333 0-2.394-.279-3.176-.841-.785-.559-1.174-1.282-1.174-2.172 0-.442.086-.816.258-1.114.173-.295.373-.546.605-.739.23-.194.465-.352.704-.455.243-.112.425-.191.554-.234.266-.083.535-.159.817-.213.282-.056.546-.094.792-.121l.645-.052.345-.016h.312l.258.029c.461.33.864.625 1.213.888.345.267.626.523.839.769s.375.495.479.753c.111.255.164.538.164.852 0 .775-.309 1.413-.93 1.913z"/></g><path fill="#ccc" d="M50.783 388.876h61v12h-61zM50.783 445.876h61v12h-61zM50.783 416.876h61v12h-61z"/><path fill="#4385F5" d="M28.84 381.998h1.014s0 3.042 2.029 3.042c2.027 0 2.027-3.042 2.027-3.042h1.016s0 3.042 1.014 4.057c0 1.145-1.014 4.001-1.014 6.085s3.041 9.127 3.041 12.997c-.729.55-11.398.55-12.17.023 0-4.907 3.043-10.937 3.043-12.965s-1.014-5.126-1.014-6.141c1.014-1.014 1.014-4.056 1.014-4.056z"/><g fill="#4385F5"><path d="M39.682 418.451c0-1.157-.936-2.094-2.094-2.094 0-1.157-.938-2.095-2.092-2.095-1.727 0-4.189-2.094-4.189-2.094s-2.463 2.094-4.188 2.094c-1.156 0-2.094.938-2.094 2.095-1.156 0-2.094.937-2.094 2.094-1.156 0-2.094.937-2.094 2.093 0 1.157.938 2.095 2.094 2.095h16.75c1.158 0 2.094-.938 2.094-2.095 0-1.156-.935-2.093-2.093-2.093zM23.566 423.895l2.664 6.77h10.465l2.664-6.77z"/></g><path fill="#4385F5" d="M37.883 442.292c-6.271-.208-11.41 2.106-11.41 2.106l-.004 11.74c-.639-.254-1.414-.314-2.203-.123-1.701.414-2.814 1.838-2.488 3.184.328 1.346 1.971 2.102 3.672 1.689 1.604-.391 2.684-1.68 2.529-2.953v-8.771s3.633-1.271 8.344-1.59v6.525c-.631-.242-1.393-.297-2.168-.109-1.699.414-2.814 1.84-2.486 3.186.326 1.344 1.969 2.1 3.67 1.688 1.484-.361 2.521-1.494 2.545-2.67-.001-.001-.001-11.519-.001-13.902zM50.643 546.996c-1.37-.93-1.729-2.8-.8-4.17.93-1.37 2.79-1.73 4.16-.81 1.37.93 1.73 2.8.81 4.17-.579.86-1.529 1.32-2.489 1.32-.581 0-1.161-.17-1.681-.51zm-8.28-5.6c-1.38-.93-1.74-2.8-.811-4.17.931-1.37 2.8-1.73 4.17-.81 1.37.93 1.73 2.8.8 4.17-.579.86-1.52 1.32-2.489 1.32-.57 0-1.16-.17-1.67-.51zM77.953 544.856c-.87-1.4-.44-3.25.97-4.13 1.41-.87 3.26-.44 4.13.97.87 1.4.44 3.26-.96 4.13-.5.3-1.05.45-1.59.45-1 0-1.981-.5-2.55-1.42zm8.5-5.27c-.88-1.41-.44-3.26.96-4.13 1.41-.88 3.26-.45 4.14.96.87 1.41.44 3.26-.97 4.13-.49.31-1.04.45-1.58.45-1 0-1.981-.5-2.55-1.41z"/><g fill="#B2B2B2"><circle cx="31.5" cy="528.5" r="4.195"/><path d="M31.5 537.021c-4.7 0-8.523-3.822-8.523-8.521s3.823-8.523 8.523-8.523 8.524 3.824 8.524 8.523-3.824 8.521-8.524 8.521zm0-14.857c-3.494 0-6.338 2.842-6.338 6.336 0 3.492 2.844 6.336 6.338 6.336s6.338-2.844 6.338-6.336c0-3.495-2.844-6.336-6.338-6.336z"/></g><g fill="#B2B2B2"><circle cx="65.5" cy="551.5" r="4.195"/><path d="M65.5 560.021c-4.7 0-8.523-3.822-8.523-8.521s3.823-8.523 8.523-8.523 8.524 3.824 8.524 8.523-3.824 8.521-8.524 8.521zm0-14.857c-3.494 0-6.338 2.842-6.338 6.336 0 3.492 2.844 6.336 6.338 6.336s6.338-2.844 6.338-6.336c0-3.495-2.844-6.336-6.338-6.336z"/></g><g fill="#B2B2B2"><circle cx="101.5" cy="528.5" r="4.195"/><path d="M101.5 537.021c-4.7 0-8.523-3.822-8.523-8.521s3.823-8.523 8.523-8.523 8.524 3.824 8.524 8.523-3.824 8.521-8.524 8.521zm0-14.857c-3.494 0-6.338 2.842-6.338 6.336 0 3.492 2.844 6.336 6.338 6.336s6.338-2.844 6.338-6.336c0-3.495-2.844-6.336-6.338-6.336z"/></g><path fill="#DD4B39" d="M31.652 475.832c-8.117 0-14.695 6.58-14.695 14.695 0 2.078.434 4.055 1.213 5.848.683 2.08 2.664 5.4 4.938 8.475 0 0 7.58 11.23 7.627 23.102 0 0 .041.764.918.764.927 0 .848-.969.837-1.021.155-11.775 7.622-22.844 7.622-22.844 2.022-3.027 3.914-5.727 4.672-7.73.998-1.982 1.562-4.221 1.562-6.592 0-8.117-6.579-14.697-14.694-14.697zm0 19.818c-2.83 0-5.124-2.295-5.124-5.123 0-2.83 2.294-5.123 5.124-5.123 2.828 0 5.122 2.293 5.122 5.123 0 2.828-2.294 5.123-5.122 5.123zM100.986 475.832c-8.117 0-14.695 6.58-14.695 14.695 0 2.078.434 4.055 1.213 5.848.682 2.08 2.664 5.4 4.938 8.475 0 0 7.58 11.23 7.627 23.102 0 0 .041.764.918.764.926 0 .848-.969.836-1.021.156-11.775 7.623-22.844 7.623-22.844 2.021-3.027 3.914-5.727 4.672-7.73.998-1.982 1.562-4.221 1.562-6.592 0-8.117-6.58-14.697-14.694-14.697zm0 19.818c-2.83 0-5.125-2.295-5.125-5.123 0-2.83 2.295-5.123 5.125-5.123 2.828 0 5.121 2.293 5.121 5.123 0 2.828-2.293 5.123-5.121 5.123zM65.318 499.365c-8.117 0-14.695 6.578-14.695 14.695 0 2.078.434 4.055 1.213 5.848.683 2.08 2.664 5.398 4.938 8.475 0 0 7.58 11.23 7.627 23.102 0 0 .041.764.918.764.927 0 .848-.969.837-1.023.155-11.773 7.622-22.842 7.622-22.842 2.022-3.027 3.914-5.727 4.672-7.73.998-1.984 1.562-4.221 1.562-6.592 0-8.119-6.579-14.697-14.694-14.697zm0 19.818c-2.83 0-5.124-2.295-5.124-5.123 0-2.83 2.294-5.125 5.124-5.125 2.828 0 5.122 2.295 5.122 5.125 0 2.828-2.294 5.123-5.122 5.123z"/><path fill="#B2B2B2" d="M27.92 630.224c14.312 0 14.52 12.652 14.52 12.652h-29.038s1.452-12.652 14.518-12.652z"/><path fill="#DD4B39" d="M48.676 578.974c-9.619 0-17.416 7.797-17.416 17.416 0 2.463.514 4.805 1.438 6.93.809 2.465 3.158 6.398 5.852 10.043 0 0 8.984 13.311 9.039 27.379 0 0 .049.904 1.088.904 1.098 0 1.004-1.148.992-1.211.184-13.955 9.033-27.072 9.033-27.072 2.396-3.588 4.639-6.785 5.535-9.16 1.184-2.352 1.854-5.002 1.854-7.812-.001-9.62-7.798-17.417-17.415-17.417zm0 23.486c-3.354 0-6.072-2.719-6.072-6.07 0-3.354 2.719-6.072 6.072-6.072 3.352 0 6.07 2.719 6.07 6.072 0 3.352-2.719 6.07-6.07 6.07z"/><path fill="#B2B2B2" d="M34.83 615.964c-2.42-3.287-4.396-6.535-5.598-9.146-.324-.037-.652-.062-.986-.062-4.646 0-8.416 3.768-8.416 8.414s3.77 8.414 8.416 8.414c3.611 0 6.684-2.279 7.875-5.477-.666-1.174-1.152-1.93-1.291-2.143zM82.92 630.224c14.312 0 14.52 12.652 14.52 12.652h-29.038s1.452-12.652 14.518-12.652z"/><path fill="#DD4B39" d="M103.676 578.974c-9.619 0-17.416 7.797-17.416 17.416 0 2.463.514 4.805 1.438 6.93.809 2.465 3.158 6.398 5.852 10.043 0 0 8.984 13.311 9.039 27.379 0 0 .049.904 1.088.904 1.098 0 1.004-1.148.992-1.211.184-13.955 9.033-27.072 9.033-27.072 2.396-3.588 4.639-6.785 5.535-9.16 1.184-2.352 1.854-5.002 1.854-7.812-.001-9.62-7.798-17.417-17.415-17.417zm0 23.486c-3.354 0-6.072-2.719-6.072-6.07 0-3.354 2.719-6.072 6.072-6.072 3.352 0 6.07 2.719 6.07 6.072 0 3.352-2.719 6.07-6.07 6.07z"/><path fill="#B2B2B2" d="M89.83 615.964c-2.42-3.287-4.396-6.535-5.598-9.146-.324-.037-.652-.062-.986-.062-4.646 0-8.416 3.768-8.416 8.414s3.77 8.414 8.416 8.414c3.611 0 6.684-2.279 7.875-5.477-.666-1.174-1.152-1.93-1.291-2.143z"/><path fill="#A0C2FF" d="M121.783 360.876h-111v-64h96.804l14.196 14.686z"/><path fill="#4385F5" d="M23.783 308.876h47v8h-47zM23.783 319.876h47v8h-47zM23.783 330.876h47v8h-47zM75.783 308.876h5v41h-5zM107.783 328.876v15h-15v-15h15m5-5h-25v25h25v-25zM23.783 341.876h40v8h-40zM115.337 327.22l-3.608-3.611-14.816 14.818-4.366-4.361-3.609 3.605 7.869 7.872.106-.1.101.1z"/><path fill="#A0C2FF" d="M111.729 323.609l3.607 3.61-18.323 18.323-.101-.1-.106.1-7.869-7.872 3.609-3.604 4.366 4.36 14.817-14.817m.001-4.243l-2.122 2.123-12.696 12.697-2.245-2.242-2.12-2.117-2.12 2.117-3.609 3.604-2.124 2.121 2.122 2.123 7.869 7.872 2.053 2.053.117-.11.169.168 2.111-2.111 18.323-18.323 2.12-2.12-2.119-2.122-3.607-3.61-2.122-2.123z"/><path fill="#BDD6F9" d="M107.464 311.229h14.369l-14.369-14.366z"/><path fill="#2B75E0" d="M121.812 311.229h-14.308l14.308 14.438z"/><path stroke="#C5C7C6" stroke-width="2" stroke-linecap="round" stroke-miterlimit="10" fill="none" d="M8.783 902.876h116M8.783 915.876h116"/><path fill="#ED9C98" d="M8.658 930.5l5.938-3.983 6.968-1.328 4.986 1.328 7.992-15.935 5.995 14.607 5.999 3.982 6.999-13.277 7 8.468 5.999-3.486h6l7-12.45 6 17.011 7-6.764 6 6.578 6-1.359 7 2.641 6.124 1.319 7.125-3.991v6.306z"/><path stroke="#DD4B39" stroke-width="3" stroke-linecap="round" stroke-miterlimit="10" fill="none" d="M8.534 929.5l6-2.983 7-1.328 5 1.328 8-15.935 6 14.607 6 2.982 7-12.277 7 7.967 6-3.985h6l7-11.949 6 17.262 7-6.641 6 6.641 6-1.328 7 2.656 6 1.328 6-3.984"/><path stroke="#C5C7C6" stroke-width="2" stroke-linecap="round" stroke-miterlimit="10" fill="none" d="M8.783 857.876h115M8.783 871.876h115"/><path fill="#ED9C98" d="M8.408 884.467l6.063-2.862 7.031-1.428 5.017 1.276 8.007-2.682 6.003-3.996 6.003 3.977 7.001 1.326 7 1.326 6.002-6.643 5.999 2.656 7-3.982 6 5.311 7-9.295 6-6.639 6-2.656 7 6.64 5.624-9.296 7.625 10.623v16.753h-116"/><path stroke="#DD4B39" stroke-width="3" stroke-linecap="round" stroke-miterlimit="10" fill="none" d="M8.534 884.058l6-2.656 7-1.328 5 1.328 8-2.656 6-3.985 6 3.985 7 1.328 7 1.328 6-6.641 6 2.656 7-3.982 6 5.311 7-9.295 6-6.639 6-2.656 7 6.64 6-9.296 6 10.623"/><path fill="#E57368" d="M6.783 664.876h37v24h-37z"/><path fill="#DD4B39" d="M48.783 664.876h37v24h-37z"/><path fill="#ED9C98" d="M127.783 688.876h-37v-3.876l4.122-3.108 3.79-.892 4.73-3.286 5.186-5.714 5.132-.512 4.878-4.488 4.785-.088 4.377-1.912zM6.783 688.876h37v16h-37zM48.783 693.876h37v24h-37z"/><path fill="#E57368" d="M90.783 693.876h37v24h-37z"/><path fill="#DD4B39" d="M48.783 721.876h37v24h-37z"/><path fill="#ED9C98" d="M90.783 708.876h37v37h-37z"/><circle fill="#DC4437" cx="26.002" cy="689" r="7.333"/><path stroke="#DD4B39" stroke-width="3" stroke-linecap="round" stroke-miterlimit="10" fill="none" d="M92.125 685l3.653-3.108 4.017-.892 4.775-3.286 5.145-5.714 5.052-.512 4.784-4.488 3.058-.088 4.391-2.287"/><path fill="#ED9C98" d="M24.783 728.876h-17.367c0-10 8.367-17.861 17.367-17.861v17.861z"/><path fill="#E57368" d="M24.783 728.876v17.373c-9 0-17.367-7.373-17.367-17.373h17.367z"/><path fill="#DD4B39" d="M24.783 728.666v-17.582c10 0 17.583 7.873 17.583 17.582 0 9.711-7.583 17.584-17.583 17.584v-17.584z"/><path fill="#B2B2B2" d="M62.783 971.876h7v41h-7zM82.783 971.876h7v41h-7zM42.783 971.876h7v41h-7z"/><path fill="#ED9C98" d="M33.783 1009.876h65v8h-65z"/><path fill="#E57368" d="M33.783 1017.876h65v7h-65z"/><path fill="#fff" d="M57.42 1011.005l1.348 4.149h4.361l-3.527 2.564 1.345 4.147-3.527-2.563-3.529 2.563 1.349-4.147-3.529-2.564h4.361zM77.42 1011.005l1.348 4.149h4.361l-3.527 2.564 1.345 4.147-3.527-2.563-3.529 2.563 1.349-4.147-3.529-2.564h4.361zM33.09 971.676l.008.2h13.627l.012-.103c0 3.771-3.057 6.581-6.826 6.581s-6.826-2.907-6.826-6.677l.005-.001m0-2.8h-3l-.006 2.854c0 5.362 4.408 9.628 9.826 9.628 5.51 0 9.826-4.11 9.826-9.536 0-1.932-1.531-2.946-3.012-2.946h-11.727l-.002.003-1.905-.003zM46.74 971.676l.008.2h13.627l.012-.103c0 3.771-3.057 6.581-6.826 6.581s-6.824-2.907-6.824-6.677l.002-.002m.001-2.799h-3l-.004 2.854c0 5.362 4.407 9.628 9.824 9.628 5.51 0 9.826-4.299 9.826-9.725 0-1.211-.624-2.082-1.67-2.605l-.634-.152h-14.342zM60.391 971.676l.008.2h13.625l.014-.103c0 3.771-3.057 6.581-6.826 6.581s-6.824-2.907-6.824-6.677l.002-.002m.001-2.799h-3l-.004 2.854c0 5.362 4.407 9.628 9.824 9.628 5.51 0 9.826-4.11 9.826-9.536 0-1.73-1.324-2.946-3.014-2.946h-13.632000000000001zM74.041 971.676l.008.2h13.627l.012-.103c0 3.771-3.057 6.581-6.828 6.581-3.766 0-6.822-2.907-6.822-6.677l.002-.002m.001-2.799h-3l-.004 2.854c0 5.362 4.406 9.628 9.822 9.628 5.511 0 9.828-4.299 9.828-9.725 0-1.211-.624-2.082-1.67-2.605l-.634-.152h-14.342zM87.691 971.676l.006.2h13.627l.012-.103c0 3.771-3.057 6.581-6.824 6.581-3.77 0-6.824-2.907-6.824-6.677l.002-.002m.001-2.799h-3l-.004 2.854c0 5.362 4.407 9.628 9.824 9.628 5.509 0 9.824-4.11 9.824-9.536 0-1.932-1.531-2.946-3.012-2.946h-11.51l-.002.002-2.12-.002z"/><path fill="#DD4B39" d="M33.098 971.876l-.014.349c0 3.77 3.057 6.88 6.826 6.88s6.826-3.138 6.826-6.909l-.01-.319h-13.628z"/><path fill="#E57368" d="M46.748 971.876l-.012.349c0 3.77 3.055 6.88 6.824 6.88s6.826-3.138 6.826-6.909l-.012-.319h-13.626z"/><path fill="#DD4B39" d="M60.398 971.876l-.012.349c0 3.77 3.055 6.88 6.824 6.88s6.826-3.138 6.826-6.909l-.012-.319h-13.626z"/><path fill="#E57368" d="M74.049 971.876l-.012.349c0 3.77 3.057 6.88 6.822 6.88 3.771 0 6.828-3.138 6.828-6.909l-.012-.319h-13.626z"/><path fill="#DD4B39" d="M87.697 971.876l-.01.349c0 3.77 3.055 6.88 6.824 6.88 3.768 0 6.824-3.138 6.824-6.909l-.012-.319h-13.626z"/><path fill="#ED9C98" d="M69.205 947.876h-4.459l-31.424 24h67.78z"/><path fill="#4385F5" d="M7.417 1180l1.418 4.365h4.589l-3.713 2.697 1.419 4.365-3.713-2.697-3.713 2.697 1.419-4.365-3.713-2.697h4.589zM19.273 1180l1.418 4.365h4.59l-3.713 2.697 1.418 4.365-3.713-2.697-3.712 2.697 1.418-4.365-3.713-2.697h4.589zM31.602 1180l1.418 4.365h4.589l-3.713 2.697 1.418 4.365-3.712-2.697-3.713 2.697 1.418-4.365-3.713-2.697h4.59zM42.986 1180l1.418 4.365h4.59l-3.713 2.697 1.418 4.365-3.713-2.697-3.713 2.697 1.418-4.365-3.712-2.697h4.589z"/><path fill="#C5C7C6" d="M54.844 1180l1.418 4.365h4.589l-3.713 2.697 1.419 4.365-3.713-2.697-3.713 2.697 1.418-4.365-3.713-2.697h4.59z"/><g fill="#4385F5"><path d="M25.311 1163.621h-3.904v6.32h-4.537v-6.32h-13.235v-3.586l13.234-19.141h4.537v18.863h3.904v3.864zm-8.442-3.864v-7.271c0-2.59.066-4.709.199-6.361h-.159c-.37.873-.951 1.93-1.743 3.172l-7.193 10.461h8.896zM28.658 1167.464c0-.963.251-1.703.754-2.219.502-.516 1.229-.773 2.179-.773.964 0 1.697.268 2.2.803.501.535.752 1.266.752 2.189 0 .938-.254 1.682-.763 2.229-.509.549-1.238.822-2.189.822-.95 0-1.677-.27-2.179-.811-.503-.542-.754-1.288-.754-2.24zM42.251 1169.941l11.452-24.826h-15.058v-4.102h20.031v3.25l-11.393 25.678h-5.032z"/></g><g fill="#C5C7C6"><path d="M5.053 1199.412c.812 0 1.455.186 1.928.559s.709.873.709 1.498c0 .879-.527 1.578-1.582 2.098.672.336 1.15.689 1.434 1.061s.424.785.424 1.242c0 .707-.26 1.273-.779 1.699s-1.223.639-2.109.639c-.93 0-1.65-.199-2.162-.598s-.768-.963-.768-1.693c0-.477.135-.906.402-1.287s.705-.719 1.314-1.016c-.523-.312-.896-.643-1.119-.99s-.334-.738-.334-1.172c0-.621.244-1.117.732-1.486s1.125-.554 1.91-.554zm-1.588 6.457c0 .406.143.721.428.945s.672.338 1.16.338c.504 0 .896-.117 1.176-.35s.418-.547.418-.945c0-.316-.129-.605-.387-.867s-.648-.504-1.172-.727l-.17-.076c-.516.227-.887.475-1.113.746s-.34.584-.34.936zm1.576-5.397c-.391 0-.705.096-.943.289s-.357.457-.357.789c0 .203.043.385.129.545s.211.305.375.436.441.289.832.473c.469-.207.801-.426.994-.654s.289-.494.289-.799c0-.332-.119-.596-.359-.789s-.562-.29-.96-.29zM14.814 1203.806c0 1.488-.238 2.594-.717 3.316s-1.211 1.084-2.195 1.084c-.953 0-1.676-.373-2.168-1.119s-.738-1.84-.738-3.281c0-1.512.24-2.627.719-3.344s1.207-1.074 2.188-1.074c.957 0 1.682.375 2.174 1.125s.737 1.848.737 3.293zm-4.423 0c0 1.168.121 2.002.361 2.502s.623.75 1.15.75.914-.254 1.158-.762.365-1.338.365-2.49c0-1.148-.121-1.98-.365-2.494s-.631-.77-1.158-.77-.91.252-1.15.756-.361 1.34-.361 2.508zM22.719 1201.492c.277 0 .506.02.686.059l-.135 1.283c-.195-.047-.398-.07-.609-.07-.551 0-.996.18-1.338.539s-.514.826-.514 1.4v3.387h-1.377v-6.48h1.078l.182 1.143h.07c.215-.387.496-.693.842-.92s.716-.341 1.115-.341zM27.436 1208.207c-1.008 0-1.795-.295-2.363-.883s-.854-1.396-.854-2.428c0-1.059.264-1.891.791-2.496s1.252-.908 2.174-.908c.855 0 1.531.26 2.027.779s.744 1.234.744 2.145v.744h-4.318c.02.629.189 1.111.51 1.449s.771.508 1.354.508c.383 0 .74-.037 1.07-.109s.684-.191 1.062-.359v1.119c-.336.16-.676.273-1.02.34s-.736.099-1.177.099zm-.252-5.672c-.438 0-.787.139-1.051.416s-.422.682-.473 1.213h2.941c-.008-.535-.137-.941-.387-1.217s-.593-.412-1.03-.412zM32.996 1208.089l-2.461-6.48h1.453l1.318 3.768c.227.633.363 1.145.41 1.535h.047c.035-.281.172-.793.41-1.535l1.318-3.768h1.465l-2.473 6.48h-1.487zM37.859 1199.892c0-.246.068-.436.203-.568s.326-.199.576-.199c.242 0 .432.066.566.199s.201.322.201.568c0 .234-.066.418-.201.553s-.324.203-.566.203c-.25 0-.441-.068-.576-.203s-.203-.319-.203-.553zm1.459 8.197h-1.377v-6.48h1.377v6.48zM44.117 1208.207c-1.008 0-1.795-.295-2.363-.883s-.854-1.396-.854-2.428c0-1.059.264-1.891.791-2.496s1.252-.908 2.174-.908c.855 0 1.531.26 2.027.779s.744 1.234.744 2.145v.744h-4.318c.02.629.189 1.111.51 1.449s.771.508 1.354.508c.383 0 .74-.037 1.07-.109s.684-.191 1.062-.359v1.119c-.336.16-.676.273-1.02.34s-.735.099-1.177.099zm-.252-5.672c-.438 0-.787.139-1.051.416s-.422.682-.473 1.213h2.941c-.008-.535-.137-.941-.387-1.217s-.592-.412-1.03-.412zM53.516 1208.089l-.838-3.023c-.102-.32-.285-1.064-.551-2.232h-.053c-.227 1.055-.406 1.803-.539 2.244l-.861 3.012h-1.524l-1.816-6.48h1.406l.826 3.193c.188.789.32 1.465.398 2.027h.036c.039-.285.1-.613.18-.982s.148-.645.207-.828l.984-3.41h1.512l.955 3.41c.059.191.133.484.221.879s.139.701.154.92h.047c.059-.48.195-1.152.41-2.016l.838-3.193h1.383l-1.828 6.48h-1.547zM62.357 1206.244c0 .633-.23 1.117-.691 1.455s-1.121.508-1.98.508c-.863 0-1.557-.131-2.08-.393v-1.189c.762.352 1.471.527 2.127.527.848 0 1.271-.256 1.271-.768 0-.164-.047-.301-.141-.41s-.248-.223-.463-.34-.514-.25-.896-.398c-.746-.289-1.25-.578-1.514-.867s-.396-.664-.396-1.125c0-.555.225-.986.672-1.293s1.055-.459 1.824-.459c.762 0 1.482.154 2.162.463l-.445 1.037c-.699-.289-1.287-.434-1.764-.434-.727 0-1.09.207-1.09.621 0 .203.096.375.285.516s.602.334 1.238.58c.535.207.924.396 1.166.568s.422.369.539.594.176.494.176.807z"/></g><path fill="#A0C2FF" d="M71.41 1141h61v10h-61zM71.41 1155h40v10h-40zM71.41 1170h9v10h-9zM71.41 1184h4v10h-4z"/><path fill="#4385F5" d="M129.41 1141h3v10h-3zM108.41 1155h3v10h-3zM77.41 1170h3v10h-3zM72.41 1184h3v10h-3zM71.41 1198h3v10h-3z"/><path fill="#A0C2FF" d="M103.783 1383.144c0 2.82-1.379 4.732-4.199 4.732h-39.902l-17.957 15.391-.285-15.391h-5.986c-2.82 0-5.67-1.912-5.67-4.732v-53.014c0-2.822 2.85-5.254 5.67-5.254h64.131c2.82 0 4.199 2.432 4.199 5.254v53.014z"/><path fill="#4385F5" d="M62.865 1372.654c0-1.59.424-2.791 1.275-3.604.852-.814 2.092-1.221 3.719-1.221 1.57 0 2.787.416 3.648 1.248.859.832 1.291 2.025 1.291 3.576 0 1.496-.438 2.672-1.307 3.533-.871.861-2.082 1.291-3.633 1.291-1.59 0-2.82-.42-3.689-1.262-.87-.84-1.304-2.03-1.304-3.561zm8.487-9.707h-6.926l-1.449-27.73h9.822l-1.447 27.73z"/><path stroke="#C5C7C6" stroke-width="3" stroke-miterlimit="10" fill="none" d="M88.537 1081.333l31.5-25.833M88.871 1083.333l30.166 22.167M87.537 1081.998l-32.334 31.335M85.204 1080.667l-30.167-25.167M11.87 1091.333l75.667-9.335"/><g fill="#A0C2FF"><circle cx="55.037" cy="1111.5" r="5.179"/><path d="M55.037 1122.021c-5.803 0-10.523-4.719-10.523-10.521s4.721-10.523 10.523-10.523 10.523 4.721 10.523 10.523-4.72 10.521-10.523 10.521zm0-18.344c-4.314 0-7.824 3.51-7.824 7.822s3.51 7.822 7.824 7.822 7.824-3.51 7.824-7.822-3.509-7.822-7.824-7.822z"/></g><circle fill="#4385F5" cx="87.537" cy="1082" r="12.807"/><path fill="#4385F5" d="M87.537 1108.019c-14.35 0-26.023-11.672-26.023-26.02 0-14.35 11.674-26.023 26.023-26.023s26.023 11.674 26.023 26.023c.001 14.348-11.673 26.02-26.023 26.02zm0-45.365c-10.67 0-19.349 8.68-19.349 19.346 0 10.664 8.679 19.342 19.349 19.342s19.349-8.678 19.349-19.342c0-10.667-8.679-19.346-19.349-19.346z"/><g fill="#A0C2FF"><circle cx="55.037" cy="1055.5" r="5.179"/><path d="M55.037 1066.021c-5.803 0-10.523-4.719-10.523-10.521s4.721-10.523 10.523-10.523 10.523 4.721 10.523 10.523-4.72 10.521-10.523 10.521zm0-18.344c-4.314 0-7.824 3.51-7.824 7.822s3.51 7.822 7.824 7.822 7.824-3.51 7.824-7.822-3.509-7.822-7.824-7.822z"/></g><g fill="#A0C2FF"><circle cx="120.037" cy="1055.5" r="5.179"/><path d="M120.037 1066.021c-5.803 0-10.523-4.719-10.523-10.521s4.721-10.523 10.523-10.523 10.523 4.721 10.523 10.523-4.72 10.521-10.523 10.521zm0-18.344c-4.314 0-7.824 3.51-7.824 7.822s3.51 7.822 7.824 7.822 7.824-3.51 7.824-7.822-3.509-7.822-7.824-7.822z"/></g><g fill="#A0C2FF"><circle cx="119.037" cy="1105.5" r="5.179"/><path d="M119.037 1116.021c-5.803 0-10.523-4.719-10.523-10.521s4.721-10.523 10.523-10.523 10.523 4.721 10.523 10.523-4.72 10.521-10.523 10.521zm0-18.344c-4.314 0-7.824 3.51-7.824 7.822s3.51 7.822 7.824 7.822 7.824-3.51 7.824-7.822-3.509-7.822-7.824-7.822z"/></g><g fill="#4385F5"><circle cx="11.037" cy="1091.5" r="3.775"/><path d="M11.037 1099.169c-4.23 0-7.672-3.439-7.672-7.67s3.441-7.67 7.672-7.67 7.672 3.439 7.672 7.67-3.441 7.67-7.672 7.67zm0-13.373c-3.145 0-5.704 2.559-5.704 5.703 0 3.143 2.56 5.701 5.704 5.701s5.704-2.559 5.704-5.701c0-3.144-2.559-5.703-5.704-5.703z"/></g><path fill="#4385F5" d="M59.693 1861.577c-1.44-.83-1.931-2.66-1.11-4.101.83-1.43 2.67-1.93 4.1-1.1 1.44.83 1.931 2.66 1.101 4.1-.55.96-1.561 1.5-2.601 1.5-.5 0-1.02-.13-1.49-.399zm-8.671-4.991c-1.43-.83-1.93-2.66-1.1-4.101.83-1.43 2.66-1.93 4.09-1.1 1.44.83 1.931 2.66 1.11 4.1-.561.96-1.57 1.5-2.601 1.5-.508.001-1.028-.129-1.499-.399zm-8.669-4.99c-1.43-.83-1.92-2.66-1.1-4.09.83-1.44 2.66-1.94 4.1-1.11 1.44.83 1.931 2.66 1.101 4.101-.55.96-1.561 1.5-2.601 1.5-.51 0-1.02-.13-1.5-.401z"/><g fill="#C5C7C6"><circle cx="31.281" cy="1841.5" r="4.195"/><path d="M31.281 1850.021c-4.701 0-8.523-3.822-8.523-8.521s3.822-8.523 8.523-8.523c4.699 0 8.523 3.824 8.523 8.523s-3.824 8.521-8.523 8.521zm0-14.857c-3.494 0-6.338 2.842-6.338 6.336 0 3.492 2.844 6.336 6.338 6.336s6.338-2.844 6.338-6.336c0-3.495-2.844-6.336-6.338-6.336z"/></g><g fill="#C5C7C6"><circle cx="75.281" cy="1864.5" r="4.195"/><path d="M75.281 1873.021c-4.701 0-8.523-3.822-8.523-8.521s3.822-8.523 8.523-8.523c4.699 0 8.523 3.824 8.523 8.523s-3.824 8.521-8.523 8.521zm0-14.857c-3.494 0-6.338 2.842-6.338 6.336 0 3.492 2.844 6.336 6.338 6.336s6.338-2.844 6.338-6.336c0-3.495-2.844-6.336-6.338-6.336z"/></g><path fill="#C5C7C6" d="M11.783 1792.876v34h17v-15h8v15h5v-34h-30zm14 26h-11v-7h11v7z"/><g fill="#E57368"><path d="M8.219 1804.876l-.006.325c0 2.047 1.66 3.804 3.707 3.804s3.707-1.806 3.707-3.853l-.006-.276h-7.402zM15.633 1804.876l-.006.325c0 2.047 1.658 3.804 3.707 3.804 2.047 0 3.707-1.806 3.707-3.853l-.006-.276h-7.402zM23.047 1804.876l-.006.325c0 2.047 1.658 3.804 3.705 3.804 2.049 0 3.707-1.806 3.707-3.853l-.006-.276h-7.4zM30.461 1804.876l-.008.325c0 2.047 1.66 3.804 3.707 3.804s3.707-1.806 3.707-3.853l-.006-.276h-7.4zM37.873 1804.876l-.006.325c0 2.047 1.66 3.804 3.707 3.804s3.707-1.806 3.707-3.853l-.006-.276h-7.402z"/></g><path fill="#ED9C98" d="M41.83 1797.876h-30.422l-3.066 7h36.81z"/><path fill="#C5C7C6" d="M92.783 1836.876v34h17v-15h8v15h5v-34h-30zm14 26h-11v-7h11v7z"/><g fill="#E57368"><path d="M89.219 1848.876l-.006.325c0 2.047 1.66 3.804 3.707 3.804s3.707-1.806 3.707-3.853l-.006-.276h-7.402zM96.633 1848.876l-.006.325c0 2.047 1.658 3.804 3.707 3.804 2.047 0 3.707-1.806 3.707-3.853l-.006-.276h-7.402zM104.047 1848.876l-.006.325c0 2.047 1.658 3.804 3.705 3.804 2.049 0 3.707-1.806 3.707-3.853l-.006-.276h-7.4zM111.461 1848.876l-.008.325c0 2.047 1.66 3.804 3.707 3.804s3.707-1.806 3.707-3.853l-.006-.276h-7.4zM118.873 1848.876l-.006.325c0 2.047 1.66 3.804 3.707 3.804s3.707-1.806 3.707-3.853l-.006-.276h-7.402z"/></g><path fill="#ED9C98" d="M122.83 1841.876h-30.422l-3.066 7h36.81z"/><path fill="#C5C7C6" d="M73.238 1603.884l10.198 31.389h33l-26.702 19.396 10.205 31.387-26.701-19.396-26.699 19.396 10.195-31.387-26.699-19.396h33.006z"/><path fill="#DC4437" d="M16.059 1657.996v-21.926l10.545-24.385h13.216l-5.955 20.537h7.967v25.774z"/><path fill="#fff" d="M37.158 1613.685l-5.955 20.537h8.629v21.773h-21.773v-19.512l9.859-22.799h9.24m5.324-3.999h-17.192l-1.044 2.412-9.859 22.799-.328.76v24.34h29.773v-29.773h-7.305l4.473-15.424 1.482-5.114z"/><path fill="#DC4437" d="M43.346 1657.996v-21.926l10.545-24.385h13.218l-5.957 20.537h7.965v25.774z"/><path fill="#fff" d="M64.447 1613.685l-5.957 20.537h8.627v21.773h-21.771v-19.512l9.859-22.799h9.242m5.325-3.999h-17.195l-1.044 2.412-9.859 22.799-.328.76v24.34h29.771v-29.773h-7.302l4.474-15.423 1.483-5.115z"/><path fill="#C5C7C6" d="M85.187 1416.113c-12.615 0-22.84 10.227-22.84 22.84 0 3.229.676 6.301 1.887 9.088 1.06 3.23 4.141 8.389 7.674 13.166 0 0 11.779 17.455 11.853 35.904 0 0 .063 1.186 1.427 1.186 1.439 0 1.316-1.504 1.301-1.588.24-18.295 11.846-35.502 11.846-35.502 3.143-4.701 6.082-8.898 7.26-12.012 1.551-3.08 2.43-6.559 2.43-10.242-.003-12.614-10.228-22.84-22.838-22.84zm0 30.801c-4.398 0-7.963-3.568-7.963-7.961 0-4.4 3.564-7.967 7.963-7.967 4.395 0 7.96 3.566 7.96 7.967-.001 4.392-3.566 7.961-7.96 7.961z"/><path fill="#DC4437" d="M24.471 1492.996v-21.926l10.545-24.385h13.217l-5.956 20.537h7.967v25.774z"/><path fill="#fff" d="M45.571 1448.685l-5.956 20.537h8.629v21.773h-21.773v-19.512l9.859-22.799h9.241m5.325-3.999h-17.194l-1.044 2.412-9.859 22.799-.328.76v24.34h29.773v-29.773h-7.304l4.473-15.423 1.483-5.115z"/><path fill="#DC4437" d="M51.758 1492.996v-21.926l10.546-24.385h13.218l-5.957 20.537h7.964v25.774z"/><path fill="#fff" d="M72.86 1448.685l-5.957 20.537h8.626v21.773h-21.771v-19.512l9.86-22.799h9.242m5.326-3.999h-17.196l-1.043 2.412-9.861 22.799-.328.76v24.34h29.771v-29.773h-7.301l4.474-15.423 1.484-5.115z"/><g fill="#C5C7C6"><path d="M102.757 1527.433v14.287h-14.284v-12.801l6.466-14.959h6.065l-3.908 13.473zM120.659 1527.433v14.287h-14.284v-12.801l6.469-14.959h6.064l-3.909 13.473z"/></g><g fill="#C5C7C6"><path d="M28.758 1569.433v14.287h-14.285v-12.801l6.468-14.959h6.063l-3.907 13.473zM46.659 1569.433v14.287h-14.283v-12.801l6.468-14.959h6.064l-3.908 13.473z"/></g><g fill="#C5C7C6"><path d="M104.604 1567.625v7.591h-7.591v-6.802l3.438-7.952h3.221l-2.074 7.163zM114.119 1567.625v7.591h-7.591v-6.802l3.437-7.952h3.223l-2.077 7.163z"/></g><g fill="#C5C7C6"><path d="M24.247 1525.544v10.414h-10.413v-9.332l4.715-10.906h4.42l-2.848 9.824zM37.298 1525.544v10.414h-10.413v-9.332l4.716-10.906h4.42l-2.849 9.824z"/></g><g fill="#C5C7C6"><path d="M65.604 1582.625v7.591h-7.591v-6.802l3.438-7.952h3.221l-2.074 7.163zM75.119 1582.625v7.591h-7.591v-6.802l3.437-7.952h3.223l-2.077 7.163z"/></g><path fill="#DC4437" d="M41.205 1569.996v-21.926l10.545-24.385h13.217l-5.955 20.537h7.967v25.774z"/><path fill="#fff" d="M62.305 1525.685l-5.955 20.537h8.629v21.773h-21.774v-19.512l9.859-22.799h9.241m5.324-3.999h-17.192l-1.044 2.412-9.859 22.799-.328.76v24.34h29.773v-29.773h-7.305l4.473-15.423 1.482-5.115z"/><path fill="#DC4437" d="M68.492 1569.996v-21.926l10.545-24.385h13.219l-5.957 20.537h7.965v25.774z"/><path fill="#fff" d="M89.594 1525.685l-5.957 20.537h8.627v21.773h-21.772v-19.512l9.859-22.799h9.243m5.325-3.999h-17.195l-1.044 2.412-9.859 22.799-.328.76v24.34h29.771v-29.773h-7.302l4.474-15.423 1.483-5.115z"/><path fill="#C5C7C6" d="M53.25 1309l-20.04-16h-28.77c-.655 0-1.19-.805-1.19-1.459v-40.477c0-.656.535-1.064 1.19-1.064h47.62c.655 0 1.19.408 1.19 1.064v57.936z"/><path fill="#A0C2FF" d="M64.783 1308l26.96-21.123h38.035c.866 0 1.005-1.094 1.005-1.959v-53.512c0-.865-.139-1.529-1.005-1.529h-62.954c-.867 0-2.041.664-2.041 1.529v76.594z"/><g fill="#fff"><path d="M18.858 1262.66l2.054 6.322h6.647l-5.378 3.908 2.055 6.32-5.378-3.906-5.378 3.906 2.054-6.32-5.378-3.908h6.649zM36.03 1262.66l2.054 6.322h6.648l-5.378 3.908 2.054 6.32-5.378-3.906-5.378 3.906 2.056-6.32-5.378-3.908h6.647z"/></g><path fill="#4385F5" d="M96.233 1258.673v14.012h-14.011v-12.557l6.345-14.672h5.947l-3.833 13.217h5.552zm19.297 0v14.012h-14.01v-12.557l6.346-14.672h5.947l-3.833 13.217h5.55z"/><path fill="#C5C7C6" d="M72.496 1708.031c0-4.988-4.043-9.031-9.031-9.031h-33.938c-4.988 0-9.031 4.043-9.031 9.031v59.938c0 4.988 4.043 9.031 9.031 9.031h33.938c4.988 0 9.031-4.043 9.031-9.031v-59.938zm-26.443 65.086c-1.994 0-3.613-1.615-3.613-3.611 0-1.994 1.619-3.613 3.613-3.613s3.613 1.619 3.613 3.613c0 1.995-1.619 3.611-3.613 3.611zm19.443-10.117h-38v-56h38v56z"/><path fill="#DD4B39" d="M46.482 1714.857c-6.576 0-11.904 5.328-11.904 11.902 0 1.684.352 3.285.982 4.736.553 1.686 2.158 4.373 4 6.863 0 0 6.141 9.098 6.178 18.713 0 0 .033.619.744.619.75 0 .686-.785.678-.828.125-9.537 6.174-18.504 6.174-18.504 1.639-2.451 3.17-4.639 3.785-6.26.807-1.607 1.266-3.42 1.266-5.34 0-6.573-5.33-11.901-11.903-11.901zm0 16.051c-2.293 0-4.15-1.857-4.15-4.148 0-2.293 1.857-4.15 4.15-4.15 2.291 0 4.148 1.857 4.148 4.15.001 2.29-1.857 4.148-4.148 4.148z"/><path fill="#C5C7C6" d="M79.783 1738.876v34h17v-15h8v15h5v-34h-30zm14 26h-11v-7h11v7z"/><g fill="#E57368"><path d="M76.219 1750.876l-.006.325c0 2.047 1.66 3.804 3.707 3.804s3.707-1.806 3.707-3.853l-.006-.276h-7.402zM83.633 1750.876l-.006.325c0 2.047 1.658 3.804 3.707 3.804 2.047 0 3.707-1.806 3.707-3.853l-.006-.276h-7.402zM91.047 1750.876l-.006.325c0 2.047 1.658 3.804 3.705 3.804 2.049 0 3.707-1.806 3.707-3.853l-.006-.276h-7.4zM98.461 1750.876l-.008.325c0 2.047 1.66 3.804 3.707 3.804s3.707-1.806 3.707-3.853l-.006-.276h-7.4zM105.873 1750.876l-.006.325c0 2.047 1.66 3.804 3.707 3.804s3.707-1.806 3.707-3.853l-.006-.276h-7.402z"/></g><path fill="#ED9C98" d="M109.83 1743.876h-30.422l-3.066 7h36.81z"/><g fill="#666"><path d="M21.307 85.81l-3.727-10.731h-.07c.1 1.594.15 3.088.15 4.482v6.249h-1.908v-12.85h2.963l3.568 10.222h.053l3.674-10.222h2.971v12.85h-2.021v-6.354c0-.639.016-1.471.048-2.496s.06-1.646.083-1.863h-.07l-3.859 10.713h-1.855zM30.668 76.089h2.25l1.977 5.511c.299.785.498 1.523.598 2.215h.07c.053-.322.15-.713.291-1.173s.885-2.644 2.232-6.552h2.232l-4.158 11.012c-.756 2.021-2.016 3.032-3.779 3.032-.457 0-.902-.05-1.336-.149v-1.635c.311.07.666.105 1.064.105.996 0 1.695-.577 2.1-1.731l.361-.914-3.902-9.721zM46.689 72.96h3.814c1.77 0 3.049.258 3.837.773s1.183 1.33 1.183 2.443c0 .75-.193 1.374-.58 1.872s-.943.812-1.67.94v.088c.902.17 1.565.505 1.99 1.006s.637 1.179.637 2.035c0 1.154-.402 2.058-1.208 2.711s-1.927.98-3.362.98h-4.641v-12.848zm2.102 5.309h2.021c.879 0 1.52-.139 1.924-.417s.607-.751.607-1.419c0-.604-.219-1.04-.655-1.31s-1.13-.404-2.079-.404h-1.818v3.55zm0 1.705v4.069h2.232c.879 0 1.542-.168 1.99-.505s.672-.869.672-1.595c0-.668-.229-1.163-.686-1.485s-1.15-.483-2.082-.483h-2.126zM65.209 85.81l-.291-1.274h-.105c-.287.451-.695.806-1.226 1.063s-1.136.387-1.815.387c-1.178 0-2.057-.293-2.637-.879s-.869-1.474-.869-2.663v-6.354h2.082v5.994c0 .744.152 1.302.457 1.674s.783.558 1.434.558c.867 0 1.504-.259 1.911-.778s.61-1.387.61-2.606v-4.843h2.074v9.721h-1.625zM76.309 83.042c0 .949-.346 1.677-1.037 2.184s-1.682.76-2.971.76c-1.295 0-2.334-.196-3.119-.589v-1.784c1.143.527 2.205.791 3.189.791 1.271 0 1.908-.384 1.908-1.151 0-.246-.07-.451-.211-.615s-.373-.334-.695-.51-.77-.375-1.344-.598c-1.119-.434-1.877-.867-2.272-1.301s-.593-.996-.593-1.688c0-.832.335-1.478 1.006-1.938s1.584-.69 2.738-.69c1.143 0 2.223.231 3.242.694l-.668 1.556c-1.049-.434-1.93-.65-2.645-.65-1.09 0-1.635.311-1.635.932 0 .305.142.562.426.773s.904.501 1.859.87c.803.311 1.385.595 1.748.853s.633.555.809.892.265.74.265 1.209zM78.418 73.514c0-.369.102-.653.304-.853s.491-.299.866-.299c.363 0 .646.1.848.299s.303.483.303.853c0 .352-.101.628-.303.831s-.484.303-.848.303c-.375 0-.664-.101-.866-.303s-.304-.479-.304-.831zm2.189 12.296h-2.066v-9.721h2.066v9.721zM92.111 85.81h-2.074v-5.977c0-.75-.15-1.31-.452-1.679s-.78-.554-1.437-.554c-.873 0-1.512.258-1.916.773s-.607 1.38-.607 2.593v4.843h-2.064v-9.721h1.617l.289 1.274h.105c.293-.463.709-.82 1.248-1.072s1.137-.378 1.793-.378c2.332 0 3.498 1.187 3.498 3.56v6.338zM99.23 85.986c-1.512 0-2.693-.441-3.546-1.323s-1.278-2.096-1.278-3.643c0-1.588.395-2.836 1.186-3.744s1.879-1.362 3.262-1.362c1.283 0 2.297.39 3.041 1.169s1.115 1.852 1.115 3.217v1.116h-6.477c.029.943.283 1.668.764 2.175s1.158.76 2.031.76c.574 0 1.108-.054 1.604-.163s1.027-.289 1.596-.541v1.679c-.504.24-1.014.41-1.529.51s-1.106.15-1.769.15zm-.376-8.508c-.656 0-1.183.208-1.578.624s-.631 1.022-.707 1.819h4.412c-.012-.803-.205-1.411-.58-1.824s-.891-.619-1.547-.619zM111.887 83.042c0 .949-.346 1.677-1.037 2.184s-1.682.76-2.971.76c-1.295 0-2.334-.196-3.119-.589v-1.784c1.143.527 2.205.791 3.189.791 1.271 0 1.908-.384 1.908-1.151 0-.246-.07-.451-.211-.615s-.373-.334-.695-.51-.77-.375-1.344-.598c-1.119-.434-1.877-.867-2.272-1.301s-.593-.996-.593-1.688c0-.832.335-1.478 1.006-1.938s1.584-.69 2.738-.69c1.143 0 2.223.231 3.242.694l-.668 1.556c-1.049-.434-1.93-.65-2.645-.65-1.09 0-1.635.311-1.635.932 0 .305.142.562.426.773s.904.501 1.859.87c.803.311 1.385.595 1.748.853s.633.555.809.892.265.74.265 1.209zM120.65 83.042c0 .949-.346 1.677-1.037 2.184s-1.682.76-2.971.76c-1.295 0-2.336-.196-3.121-.589v-1.784c1.143.527 2.207.791 3.191.791 1.271 0 1.906-.384 1.906-1.151 0-.246-.07-.451-.211-.615s-.371-.334-.693-.51-.771-.375-1.346-.598c-1.119-.434-1.876-.867-2.271-1.301s-.594-.996-.594-1.688c0-.832.336-1.478 1.007-1.938s1.583-.69 2.737-.69c1.143 0 2.225.231 3.244.694l-.668 1.556c-1.049-.434-1.932-.65-2.646-.65-1.09 0-1.635.311-1.635.932 0 .305.143.562.427.773s.903.501 1.858.87c.803.311 1.387.595 1.75.853s.633.555.809.892.264.74.264 1.209z"/></g><g fill="#666"><path d="M40.265 173.051h4.729v6.451c-.773.252-1.517.431-2.228.536-.713.105-1.481.158-2.308.158-1.945 0-3.445-.576-4.5-1.727-1.055-1.152-1.582-2.776-1.582-4.874 0-2.068.595-3.687 1.784-4.856 1.189-1.168 2.827-1.753 4.913-1.753 1.342 0 2.613.258 3.814.773l-.738 1.749c-1.043-.48-2.086-.721-3.129-.721-1.371 0-2.455.431-3.252 1.292s-1.195 2.039-1.195 3.533c0 1.57.358 2.765 1.077 3.581.717.818 1.75 1.227 3.098 1.227.68 0 1.406-.085 2.18-.255v-3.313h-2.663v-1.801zM56.48 175.143c0 1.588-.407 2.827-1.222 3.718s-1.948 1.336-3.401 1.336c-.908 0-1.711-.205-2.408-.615s-1.233-.999-1.608-1.767-.562-1.658-.562-2.672c0-1.576.404-2.807 1.213-3.691s1.948-1.327 3.419-1.327c1.406 0 2.52.453 3.34 1.357.819.906 1.229 2.126 1.229 3.661zm-7.075 0c0 2.244.829 3.366 2.487 3.366 1.641 0 2.461-1.122 2.461-3.366 0-2.221-.826-3.331-2.479-3.331-.867 0-1.496.287-1.885.861-.389.575-.584 1.398-.584 2.47zM67.476 175.143c0 1.588-.407 2.827-1.222 3.718s-1.948 1.336-3.401 1.336c-.908 0-1.711-.205-2.408-.615s-1.233-.999-1.608-1.767-.562-1.658-.562-2.672c0-1.576.404-2.807 1.213-3.691s1.948-1.327 3.419-1.327c1.406 0 2.52.453 3.34 1.357.818.906 1.229 2.126 1.229 3.661zm-7.076 0c0 2.244.829 3.366 2.487 3.366 1.641 0 2.461-1.122 2.461-3.366 0-2.221-.826-3.331-2.479-3.331-.867 0-1.495.287-1.886.861-.387.575-.583 1.398-.583 2.47zM78.058 170.3v1.134l-1.661.308c.152.205.278.457.378.756s.149.615.149.949c0 1.002-.346 1.79-1.037 2.364s-1.644.861-2.856.861c-.311 0-.592-.023-.844-.07-.445.275-.668.598-.668.967 0 .223.104.39.312.501.209.111.591.167 1.147.167h1.696c1.072 0 1.887.229 2.443.686s.835 1.116.835 1.978c0 1.102-.454 1.951-1.362 2.549s-2.221.896-3.938.896c-1.324 0-2.335-.234-3.032-.703s-1.046-1.137-1.046-2.004c0-.598.189-1.101.566-1.508.379-.406.907-.689 1.587-.848-.275-.117-.503-.306-.681-.566-.18-.261-.269-.535-.269-.822 0-.363.103-.671.308-.923s.51-.501.914-.747c-.504-.217-.912-.569-1.227-1.059-.312-.489-.47-1.062-.47-1.719 0-1.055.333-1.872.997-2.452.666-.58 1.613-.87 2.844-.87.275 0 .564.02.865.057.303.039.529.078.682.119h3.368zm-7.638 11.233c0 .445.201.788.602 1.028.402.24.966.36 1.692.36 1.125 0 1.963-.161 2.514-.483s.826-.75.826-1.283c0-.422-.151-.723-.452-.901-.303-.179-.863-.268-1.684-.268h-1.564c-.592 0-1.062.139-1.41.418-.35.277-.524.654-.524 1.129zm.888-8.086c0 .609.157 1.078.47 1.406.314.328.764.492 1.35.492 1.195 0 1.793-.639 1.793-1.916 0-.633-.148-1.121-.443-1.463-.297-.344-.746-.515-1.35-.515-.598 0-1.051.17-1.357.51-.31.34-.463.835-.463 1.486zM81.925 180.021h-2.065v-13.676h2.065v13.676zM89.123 180.197c-1.512 0-2.693-.44-3.547-1.322-.852-.882-1.278-2.097-1.278-3.644 0-1.588.396-2.836 1.187-3.744s1.878-1.362 3.261-1.362c1.283 0 2.297.39 3.041 1.169s1.116 1.852 1.116 3.217v1.116h-6.478c.029.943.284 1.669.765 2.176s1.157.76 2.03.76c.574 0 1.108-.054 1.604-.162.494-.108 1.026-.289 1.595-.541v1.679c-.504.24-1.014.41-1.529.51s-1.105.148-1.767.148zm-.378-8.508c-.656 0-1.183.208-1.577.624-.396.416-.632 1.022-.708 1.819h4.412c-.012-.803-.205-1.41-.58-1.824-.375-.412-.891-.619-1.547-.619zM98.114 174.458h-3.498v-1.564h3.498v-3.586h1.582v3.586h3.507v1.564h-3.507v3.568h-1.582v-3.568z"/></g><g fill-rule="evenodd" clip-rule="evenodd" fill="#DD4B39"><path d="M60.786 148.336c-2.139.051-4.109-.454-5.822-1.785-3.083-2.396-3.17-6.377-.198-8.896 3.538-2.999 9.746-2.881 12.851.243 2.953 2.97 2.168 7.577-1.6 9.399-1.424.688-3.176 1.036-5.231 1.039zM55.089 118.781c.008-1.192.217-2.322.755-3.388 1.252-2.487 3.94-3.293 6.328-1.845 2.056 1.246 3.13 3.206 3.729 5.453.393 1.474.533 2.979.187 4.488-.663 2.889-2.937 4.218-5.756 3.276-2.894-.967-4.349-3.205-5.005-6.049-.144-.63-.162-1.289-.238-1.935zM97.206 108.333c.017-4.009-3.337-7.128-7.135-7.108-14.445.077-29.891.078-44.337-.003-3.349-.019-7.192 2.464-7.196 7.135l.001 43.407c.007 4.658 3.857 7.167 7.22 7.113 7.21-.117 15.422-.036 22.633-.036 7.234 0 14.471-.07 21.703.029 3.773.052 7.13-3.094 7.112-7.13-.063-14.469-.061-28.938-.001-43.407zm-27.195 39.648c-1.895 1.382-4.05 2.084-6.344 2.391-3.475.465-6.886.242-10.18-1.053-1.338-.525-2.545-1.265-3.559-2.298-2.909-2.964-1.932-7.656.719-9.931 1.798-1.542 3.943-2.282 6.228-2.639 1.511-.237 3.044-.334 4.44-.48-.361-.762-.929-1.549-1.088-2.411-.156-.846.104-1.769.186-2.713-.647-.071-1.43-.134-2.203-.248-3.586-.528-6.312-2.885-7.136-6.146-1.3-5.155 1.594-9.837 6.925-11.103 1.124-.267 2.303-.392 3.459-.409 3.594-.052 7.188-.01 10.782-.01h.761l.092.162c-.799.835-1.587 1.68-2.411 2.49-.136.133-.435.129-.66.135-.675.017-1.35.005-2.112.005l.182.256c3.709 3.169 3.779 8.523.148 11.788-.711.639-1.471 1.229-2.139 1.907-1.156 1.174-1.211 2.373-.105 3.584.672.735 1.492 1.332 2.246 1.991 1.018.888 2.129 1.691 3.035 2.681 3.405 3.725 2.814 9.074-1.266 12.051zm18.758-28.507h-5.603v5.603h-2.661v-5.603h-5.602v-2.661h5.602v-5.602h2.661v5.602h5.603v2.661z"/></g><path fill="#C5C7C6" d="M11.094 823.591v-1.646c0-1.887.344-3.455 1.03-4.709.687-1.252 1.886-2.547 3.602-3.887 2.042-1.611 3.359-2.865 3.951-3.756.591-.891.888-1.957.888-3.191 0-1.443-.48-2.549-1.441-3.32s-2.342-1.156-4.144-1.156c-1.63 0-3.139.23-4.528.691-1.39.465-2.746 1.021-4.066 1.674l-2.162-4.529c3.482-1.938 7.215-2.908 11.195-2.908 3.361 0 6.031.826 8.004 2.471 1.973 1.648 2.959 3.92 2.959 6.82 0 1.287-.189 2.43-.566 3.436-.379 1.004-.949 1.961-1.711 2.871-.764.908-2.08 2.09-3.95 3.549-1.597 1.254-2.664 2.291-3.204 3.115-.541.822-.811 1.93-.811 3.318v1.158h-5.046zm-1.055 8.211c0-2.592 1.262-3.885 3.783-3.885 1.234 0 2.179.336 2.832 1.014.65.68.977 1.637.977 2.871 0 1.217-.33 2.18-.99 2.893s-1.601 1.07-2.818 1.07c-1.219 0-2.152-.348-2.805-1.043-.652-.695-.979-1.67-.979-2.92z"/><path fill="#ED9C98" d="M108.783 837.876h-77v-77h63.574l13.426 15.018z"/><path fill="#F8B3B5" d="M95.45 775.979h13.333l-13.333-15.061z"/><path fill="#BA3731" d="M108.762 775.979h-13.312l13.312 14.438z"/><g fill="#DD4B39"><path d="M84.695 788.714v-5.482h-2.328v5.482h-5.482v2.311h5.482v5.519h2.328v-5.519h5.485v-2.311zM74.847 804.716c-.334-.459-.729-.893-1.177-1.303-.456-.414-.92-.828-1.384-1.238l-1.571-1.221c-.236-.207-.486-.447-.748-.729-.26-.279-.396-.656-.396-1.16 0-.494.136-.904.396-1.24.262-.305.541-.627.831-.91.47-.352.921-.723 1.358-1.119.438-.404.834-.834 1.185-1.318.353-.486.625-1.029.832-1.641.202-.615.302-1.334.302-2.15 0-.818-.115-1.543-.352-2.195-.229-.635-.51-1.201-.828-1.684-.318-.48-.657-.889-1.009-1.225-.353-.342-.661-.605-.921-.814h2.719l2.801-1.537h-9.02c-1.199 0-2.488.15-3.875.438-1.393.297-2.709.955-3.967 1.971-.931.826-1.633 1.756-2.102 2.789-.469 1.035-.698 2.059-.698 3.074 0 .861.158 1.699.483 2.518.322.838.783 1.578 1.4 2.223.611.641 1.37 1.164 2.277 1.545.906.396 1.934.6 3.108.6.229 0 .466-.006.698-.025.235-.008.472-.037.701-.064-.116.273-.215.52-.301.771-.096.244-.136.551-.136.938 0 .674.143 1.24.415 1.689.28.449.578.881.896 1.289-.496.025-1.074.074-1.756.127-.672.059-1.387.17-2.146.314-.754.143-1.518.342-2.291.59-.772.252-1.498.568-2.168.977-1.285.768-2.166 1.648-2.652 2.652-.479 1.021-.721 1.906-.721 2.695 0 .818.188 1.592.57 2.342.383.742.963 1.414 1.748 1.988.791.588 1.777 1.055 2.957 1.398 1.18.359 2.557.527 4.141.527 1.866 0 3.518-.223 4.967-.717 1.447-.484 2.65-1.115 3.617-1.881.96-.773 1.693-1.662 2.188-2.662.494-.994.743-2.006.743-3.021 0-.76-.097-1.438-.308-2.014-.198-.585-.467-1.112-.806-1.587zm-8.302-7.55c-.928 0-1.742-.281-2.424-.828-.687-.541-1.264-1.195-1.713-1.99-.448-.789-.779-1.641-1.005-2.553-.221-.898-.326-1.727-.326-2.451 0-.592.065-1.162.196-1.723.13-.551.389-1.061.77-1.533.342-.447.795-.797 1.354-1.053.56-.266 1.121-.395 1.711-.395.902 0 1.697.27 2.383.814.687.543 1.262 1.219 1.734 2.041.465.824.816 1.695 1.045 2.633.238.938.351 1.807.351 2.596 0 .41-.056.926-.171 1.541-.121.613-.425 1.16-.922 1.664-.353.348-.799.648-1.334.873-.542.24-1.087.364-1.649.364zm4.842 16.259c-1.092.891-2.692 1.334-4.794 1.334-2.36 0-4.239-.496-5.626-1.49-1.39-.988-2.08-2.27-2.08-3.846 0-.785.154-1.447.457-1.975.307-.523.662-.967 1.072-1.311s.824-.623 1.248-.805c.432-.199.754-.34.982-.416.469-.146.947-.283 1.447-.379.5-.098.969-.164 1.402-.213.441-.041.819-.078 1.143-.092l.611-.029h.55c.128 0 .286.02.458.053.816.586 1.531 1.107 2.147 1.574.612.471 1.11.928 1.487 1.361s.664.875.85 1.334c.196.451.291.951.291 1.508.001 1.375-.548 2.508-1.645 3.392z"/></g><path fill="#C5C7C6" d="M116.938 782.148v-1.438c0-1.645.3-3.012.898-4.105.599-1.092 1.645-2.221 3.141-3.389 1.781-1.406 2.93-2.5 3.445-3.275.517-.779.774-1.707.774-2.785 0-1.258-.419-2.223-1.256-2.895-.839-.672-2.043-1.008-3.614-1.008-1.421 0-2.738.199-3.949.604-1.212.404-2.395.891-3.547 1.459l-1.885-3.951c3.037-1.689 6.292-2.535 9.763-2.535 2.933 0 5.26.719 6.981 2.154 1.719 1.438 2.58 3.42 2.58 5.947 0 1.123-.165 2.121-.494 2.998-.33.875-.827 1.709-1.492 2.502-.666.793-1.814 1.824-3.445 3.096-1.391 1.094-2.322 1.998-2.795 2.717-.471.719-.706 1.684-.706 2.895v1.01h-4.399zm-.92 7.16c0-2.26 1.1-3.387 3.3-3.387 1.076 0 1.899.293 2.469.885.567.592.853 1.426.853 2.502 0 1.062-.289 1.902-.864 2.525-.575.621-1.396.932-2.457.932-1.063 0-1.878-.305-2.446-.908-.57-.607-.855-1.457-.855-2.549zM19.164 784.298v-.705c0-.809.146-1.479.44-2.016s.808-1.09 1.542-1.664c.873-.689 1.438-1.227 1.691-1.607.252-.381.379-.838.379-1.365 0-.619-.205-1.092-.616-1.422s-1.003-.494-1.774-.494c-.697 0-1.343.098-1.938.295-.595.199-1.176.438-1.74.717l-.926-1.938c1.49-.83 3.088-1.246 4.791-1.246 1.439 0 2.582.354 3.427 1.057.845.707 1.267 1.68 1.267 2.92 0 .551-.081 1.041-.242 1.471-.162.43-.406.84-.732 1.229-.327.389-.891.895-1.691 1.52-.684.537-1.141.98-1.371 1.334-.231.352-.348.824-.348 1.42v.496h-2.159zm-.451 3.514c0-1.109.539-1.662 1.619-1.662.527 0 .932.143 1.211.434s.419.699.419 1.229c0 .521-.142.934-.425 1.238-.282.305-.685.457-1.205.457-.521 0-.922-.148-1.201-.445s-.418-.716-.418-1.251zM118.049 813.996v-.705c0-.809.146-1.479.439-2.016.295-.537.809-1.09 1.542-1.664.874-.689 1.438-1.227 1.691-1.607s.38-.838.38-1.365c0-.619-.205-1.092-.617-1.422-.411-.33-1.002-.494-1.773-.494-.697 0-1.344.098-1.938.295-.595.199-1.175.438-1.739.717l-.926-1.938c1.49-.83 3.088-1.246 4.791-1.246 1.439 0 2.582.354 3.426 1.057.845.707 1.268 1.68 1.268 2.92 0 .551-.082 1.041-.243 1.471-.162.43-.406.84-.732 1.229-.327.389-.89.895-1.69 1.52-.684.537-1.141.98-1.371 1.334-.232.352-.348.824-.348 1.42v.496h-2.16zm-.452 3.513c0-1.109.54-1.662 1.619-1.662.528 0 .933.143 1.212.434.278.291.418.699.418 1.229 0 .521-.141.934-.424 1.238s-.686.457-1.206.457c-.521 0-.921-.148-1.2-.445s-.419-.716-.419-1.251z"/></g><g><path fill="#356CC3" d="M67.628 23.474l-6.554-15.79h-19.719s-2.351-.267-2.351 2.378v19.639l15.817 6.412h12.806v-12.639z"/><path fill="#4084F1" d="M61.022 7.684h-19.667s-2.351-.267-2.351 2.378v19.639h22.018v-22.017z"/><path fill="#D1991E" d="M67.594 23.474l6.553-15.791h19.721s2.351-.267 2.351 2.378v19.639l-15.819 6.413h-12.806v-12.639z"/><path fill="#F7B425" d="M74.2 7.684h19.667s2.351-.267 2.351 2.378v19.639h-22.018v-22.017z"/><path fill="#9E9E9E" d="M67.628 48.798l-6.554 15.791h-19.719s-2.351.268-2.351-2.378v-19.639l15.817-6.412h12.806v12.638z"/><path fill="#BEBEBE" d="M61.022 64.589h-19.667s-2.351.268-2.351-2.378v-19.639h22.018v22.017z"/><path fill="#BD342C" d="M67.594 48.798l6.553 15.791h19.721s2.351.268 2.351-2.378v-19.639l-15.819-6.412h-12.806v12.638z"/><path fill="#DD4B39" d="M74.2 64.589h19.667s2.351.268 2.351-2.378v-19.639h-22.018v22.017z"/></g></svg>