<svg xmlns="http://www.w3.org/2000/svg" width="256.5" height="154.532" viewBox="0 0 256.5 154.532"><path fill="#E5E5E5" d="M0 0h257v159h-257z"/><path fill="#C6DDAF" d="M140.327 130h-61.738c-36.982 0-66.589-29.826-66.589-66.81v-95.19h-32v210h187v-20.577l-22.336-23.611-4.337-3.812zM230.325-65.816l64.838 64.838-64.838 64.838-64.838-64.838z"/><path stroke="#9CB6CD" stroke-width="35" stroke-miterlimit="10" d="M44.5-48v108.223c0 20.876 16.923 38.277 37.8 38.277h107.527c20.876 0 37.8 17.347 37.8 38.223 0 20.876-16.924 37.8-37.8 37.8" fill="none"/><circle fill="#9CB6CD" cx="209.774" cy="-.751" r="18.972"/><path stroke="#fff" stroke-width="10" stroke-miterlimit="10" fill="none" d="M152.927-7.277l150.3 150.3M12-32v95.19c0 36.984 29.607 66.81 66.589 66.81h115.411M186.35 25.812l-19.35 19.561v84.627M174.526 15.223l-44.549 44.55M103.427 35.023l-28.8 28.8"/><path stroke="#FEFB9F" stroke-width="10" stroke-miterlimit="10" fill="none" d="M-5.473-15.377l188.999 189M51.227-15.377l189 189"/><path fill="none" d="M0 0h257v159h-257z"/><path fill="#682C28" d="M114 49h22v28h-22z"/><path fill="#DD4B39" d="M126.055 40.823c-11.934 0-21.605 9.672-21.605 21.604 0 3.056.638 5.961 1.783 8.597 1.004 3.059 3.917 7.939 7.258 12.46 0 0 11.145 16.511 11.215 33.962 0 0 .059 1.124 1.349 1.124 1.362 0 1.246-1.423 1.23-1.503.229-17.311 11.205-33.583 11.205-33.583 2.974-4.451 5.755-8.418 6.869-11.366 1.468-2.916 2.298-6.206 2.298-9.691 0-11.932-9.673-21.604-21.602-21.604zm0 29.136c-4.161 0-7.533-3.373-7.533-7.533s3.372-7.533 7.533-7.533c4.158 0 7.531 3.373 7.531 7.533s-3.373 7.533-7.531 7.533z"/></svg>