<svg xmlns="http://www.w3.org/2000/svg" width="30.8" height="54.24" viewBox="0 0 30.8 54.24"><style>.style0{fill: #4385F5;}.style1{fill: #FFFFFF;}</style><path d="M25.144 23.295c.74-1.471 1.158-3.132 1.158-4.891 0-6.022-4.88-10.902-10.901-10.902-6.022 0-10.902 4.88-10.902 10.902 0 1.5.3 3 .9 4.34.506 1.5 2 4 3.7 6.3 0 0 5.6 8.3 5.7 17.138l.052-.009c.029.3.3.6.6.576.351 0 .633-.282.633-.634l-.012-.124c.115-8.736 5.654-16.947 5.654-16.947 1.451-2.244 2.874-4.244 3.374-5.749z" class="style0"/><path class="style1" d="M22.4 15.3l-1.9-1.9-7.8 7.8-2.3-2.3-1.9 1.9 4.1 4.2.1-.1v.1z"/></svg>