<svg xmlns="http://www.w3.org/2000/svg" width="272" height="50" viewBox="0 0 272 50"><path fill-rule="evenodd" clip-rule="evenodd" fill="#fff" d="M20.677 4.195c-1.486-.138-2.957-.118-4.375.504C10.404 7.275 2.605 20.71 3.216 27.275c.88 9.486 8.8 17.16 17.67 18.51.674.125 1.357.19 2.043.198 2.25.09 4.532-.237 6.75-1.058 8.462-3.132 13.798-8.47 13.696-15.752.07-11.097-11.6-23.943-22.7-24.98zM36.68 21.482c1.15 3.302 1.03 6.926-.532 9.816.02-.307.033-.617.03-.934.04-6.556-5.093-13.877-11.35-17.52 2.75.083 5.442.835 7.384 2.34.553.428 1.055.907 1.525 1.41 1.167 1.502 2.17 3.157 2.942 4.888zM15.077 33.347c-.795-.635-1.44-1.484-1.94-2.467 1.03-4.457 4.894-8.033 9.134-8.007 3.895.022 8.225 4.382 9.65 9.04-.416 1.43-1.28 2.826-2.432 4.07-4.72 1.154-10.71.323-14.412-2.636zm6.062-13.974c-.945-.088-1.883-.075-2.787.32-2.13.93-4.645 4.082-6.355 7.398-.492-3.585.33-7.678 2.545-10.42.207-.256.436-.496.678-.727 1.374-.656 2.858-1.023 4.382-1.014 4.56.027 9.596 4.844 11.65 10.247-2.762-3.136-6.48-5.466-10.112-5.804zM14.07 37.51c2.637 1.513 5.906 2.302 9.29 2.43-1.233.405-2.5.634-3.74.607-1.466-.03-2.978-.538-4.407-1.36-.037-.027-.076-.055-.113-.084-.386-.508-.733-1.04-1.03-1.593zm3.863-26.95H17.9c.19-.075.385-.145.58-.21-.182.068-.367.136-.547.21zm-10.04 17.2c.003-.433.026-.864.07-1.292-.015.917.042 1.8.177 2.648-.088-.324-.158-.648-.223-.973-.003-.126-.023-.255-.023-.382z"/><g fill-rule="evenodd" clip-rule="evenodd"><path fill="#FFDB00" d="M12.42 36.42c7.075 5.542 21.083 4.434 27.245-2.163.824-.883 1.54-1.838 1.846-3.053C42.78 26.15 38.04 14.5 33.533 11.64 24.89 6.152 12.15 10.18 9.12 19.843c-2.19 6.97-1.413 13.034 3.3 16.577zm2.658-3.073c-4.062-3.25-4.342-11.964-.535-16.68 3.56-4.405 12.887-5.19 17.67-1.484 5.492 4.256 6.938 12.53 3.055 17.488-3.75 4.788-14.597 5.15-20.19.677z"/><path fill="#DD0031" d="M43.376 29.175c.068-11.098-11.6-23.944-22.7-24.98-1.485-.138-2.956-.118-4.374.503C10.404 7.275 2.605 20.712 3.216 27.276 4.388 39.864 17.95 49.264 29.68 44.926c8.462-3.132 13.798-8.47 13.696-15.75zm-5.01-.274c-.103 6.427-8.405 13.284-15.888 13.128-6.994-.15-14.81-8.67-14.8-16.14.005-8.58 6.995-16.245 14.772-16.2 7.51.046 16.06 10.37 15.915 19.213z"/><path fill="#40B4E5" d="M36.177 30.364c.055-8.79-9.188-18.967-17.982-19.788-1.176-.11-2.344-.094-3.465.398C10.056 13.017 3.878 23.66 4.363 28.86c.928 9.972 11.674 17.42 20.963 13.98 6.707-2.48 10.93-6.708 10.85-12.476zm-3.97-.216c-.083 5.09-6.66 10.522-12.587 10.397C14.08 40.43 7.89 33.68 7.894 27.76 7.902 20.965 13.44 14.893 19.6 14.93c5.948.036 12.724 8.215 12.608 15.22z"/><path fill="#A9DA1E" d="M35.6 35.282c.044-7.068-7.39-15.25-14.46-15.91-.945-.09-1.883-.075-2.787.32-3.756 1.643-8.725 10.2-8.334 14.38.743 8.02 9.384 14.007 16.854 11.244 5.39-1.995 8.79-5.396 8.725-10.034zm-3.192-.174c-.066 4.094-5.354 8.46-10.12 8.36-4.456-.095-9.433-5.52-9.43-10.28.007-5.465 4.46-10.347 9.413-10.316 4.784.028 10.23 6.603 10.138 12.236z"/></g><g fill="#fff"><path d="M67.777 26.04c-.785-.475-1.717-.86-2.77-1.144-1.03-.277-2.12-.566-3.283-.87-1.064-.254-2.105-.496-3.123-.728-.983-.223-1.872-.54-2.645-.942-.75-.393-1.367-.91-1.832-1.538-.453-.61-.684-1.445-.684-2.48 0-1.042.226-1.91.673-2.582.457-.684 1.047-1.24 1.752-1.653.717-.418 1.53-.715 2.412-.88 2.066-.39 3.986-.315 5.658.082.922.22 1.727.59 2.393 1.104.664.51 1.205 1.185 1.61 2.003.405.82.632 1.857.677 3.08l.012.302h1.328l-.016-.33c-.073-1.422-.35-2.647-.83-3.64-.483-1-1.138-1.82-1.946-2.436-.807-.613-1.752-1.063-2.818-1.338-1.05-.27-2.213-.408-3.457-.408-1.01 0-2.042.107-3.063.318-1.035.214-1.984.578-2.818 1.08-.85.507-1.55 1.202-2.083 2.06-.537.868-.81 1.956-.81 3.234 0 1.258.26 2.3.778 3.1.51.79 1.195 1.432 2.033 1.905.818.464 1.748.83 2.764 1.088.99.255 1.996.5 2.982.73.945.23 1.945.457 2.975.677.995.214 1.915.53 2.728.943.8.404 1.46.956 1.97 1.64.5.67.755 1.604.755 2.776 0 .997-.225 1.863-.666 2.57-.445.72-1.035 1.316-1.756 1.774-.726.463-1.56.805-2.48 1.016-.93.213-1.88.32-2.825.32-1.285 0-2.477-.142-3.54-.422-1.05-.276-1.966-.73-2.726-1.344-.753-.61-1.347-1.416-1.765-2.393-.42-.982-.633-2.207-.633-3.637v-.314h-1.318l-.006.31c-.023 1.608.213 3.005.703 4.15.49 1.15 1.198 2.106 2.1 2.84.9.73 1.978 1.27 3.202 1.603 1.213.33 2.553.496 3.982.496 1.082 0 2.168-.125 3.227-.37 1.073-.25 2.05-.663 2.91-1.224.866-.565 1.575-1.293 2.106-2.163.537-.878.81-1.947.81-3.18 0-1.345-.243-2.438-.72-3.244-.478-.8-1.126-1.455-1.93-1.943zM72.947 12.235h1.324v4.13h-1.323zM72.947 19.167h1.324v18.445h-1.323zM99.613 20.693c-.47-.604-1.094-1.084-1.854-1.43-.755-.34-1.708-.512-2.835-.512-1.45 0-2.727.407-3.793 1.208-.834.625-1.46 1.414-1.867 2.353-.363-.992-.938-1.808-1.717-2.432-.934-.75-2.094-1.13-3.443-1.13-.08 0-.164 0-.236.004-.73 0-1.43.13-2.077.386-.64.254-1.236.616-1.77 1.077-.53.458-.984.997-1.348 1.6-.088.148-.17.298-.246.452v-3.1h-1.325v18.446h1.324V27.21c0-.96.13-1.885.386-2.752.254-.862.62-1.627 1.096-2.277.47-.64 1.047-1.16 1.72-1.54.665-.374 1.42-.565 2.237-.565.937 0 1.704.15 2.28.45.57.296 1.02.7 1.334 1.205.322.516.547 1.13.666 1.827.123.72.188 1.496.188 2.303v11.753h1.322V25.998c0-.795.123-1.56.365-2.273.24-.71.594-1.346 1.053-1.89.455-.542 1.014-.975 1.662-1.29.648-.31 1.385-.47 2.186-.47.922 0 1.69.13 2.285.39.58.254 1.052.617 1.4 1.08.35.467.6 1.044.74 1.712.144.692.218 1.475.218 2.326v12.03h1.324v-12.03c0-.99-.098-1.906-.287-2.723-.193-.838-.53-1.567-.992-2.167zM117.755 21.505c-.684-.864-1.523-1.547-2.5-2.028-.975-.482-2.09-.726-3.31-.726-.93 0-1.812.14-2.614.417-.808.276-1.532.674-2.16 1.18-.622.502-1.167 1.103-1.622 1.785-.182.274-.35.56-.498.857v-3.823h-1.324v24.547h1.324V33.91c.48 1 1.156 1.85 2.018 2.542 1.277 1.023 2.918 1.542 4.877 1.542 1.27 0 2.416-.263 3.404-.78.985-.518 1.82-1.23 2.48-2.12.653-.88 1.16-1.917 1.507-3.08.342-1.156.514-2.388.514-3.66 0-1.364-.18-2.642-.534-3.8-.356-1.165-.88-2.19-1.56-3.05zm-8.716-.772c.85-.437 1.83-.66 2.905-.66 1.098 0 2.068.222 2.885.657.818.437 1.506 1.04 2.04 1.793.542.763.958 1.65 1.237 2.64.28.997.42 2.07.42 3.19 0 1.008-.13 2.025-.387 3.023-.256.99-.656 1.89-1.188 2.676-.525.777-1.21 1.424-2.033 1.917-.813.486-1.813.733-2.976.733-2.066 0-3.75-.716-4.998-2.13-1.258-1.424-1.896-3.517-1.896-6.22 0-1.12.158-2.196.47-3.2.312-.998.767-1.884 1.353-2.638.582-.742 1.308-1.342 2.166-1.782zM121.994 12.235h1.324v25.377h-1.324zM133.28 35.51l-6.845-16.343h-1.412l7.553 17.96-1.236 3.175c-.197.5-.408.9-.63 1.188-.212.27-.454.475-.722.604-.275.132-.61.215-.998.246-.418.034-.928.05-1.518.05h-.314v1.325h.314c.54 0 1.055-.02 1.53-.053.505-.037.976-.145 1.4-.318.43-.177.825-.452 1.18-.817.35-.364.653-.872.9-1.51l8.376-21.85h-1.404l-6.173 16.344zM165.072 25.892c-.57-.545-1.244-.975-2.008-1.28-.252-.098-.508-.183-.768-.252.2-.07.393-.152.582-.245.668-.328 1.254-.766 1.742-1.3.484-.535.87-1.16 1.15-1.864.28-.704.42-1.455.42-2.23 0-1.082-.19-2.036-.566-2.837-.377-.802-.906-1.486-1.576-2.034-.664-.544-1.445-.954-2.326-1.22-.87-.262-1.816-.395-2.812-.395h-10.957v25.377h10.54c1.204 0 2.337-.15 3.362-.445 1.04-.3 1.945-.74 2.69-1.318.753-.583 1.35-1.327 1.772-2.21.422-.885.637-1.916.637-3.066 0-.986-.172-1.885-.512-2.672s-.8-1.464-1.37-2.01zM149.277 13.56h9.633c.844 0 1.643.105 2.373.316.72.207 1.354.526 1.885.95.523.417.943.95 1.246 1.586.3.636.455 1.413.455 2.308 0 .823-.165 1.556-.485 2.178-.324.626-.762 1.157-1.3 1.578-.546.424-1.18.744-1.89.95-.717.212-1.486.317-2.285.317h-9.633V13.56zm15.787 14.46c.377.69.566 1.562.566 2.59 0 .962-.176 1.808-.52 2.51-.35.706-.825 1.3-1.42 1.765-.6.47-1.32.823-2.144 1.054-.836.232-1.758.352-2.74.352h-9.53V25.065h9.634c.85 0 1.69.102 2.506.303.803.197 1.525.52 2.148.957.616.432 1.122 1.003 1.5 1.696zM181.89 29.568c0 .956-.136 1.882-.403 2.75-.266.858-.66 1.622-1.176 2.27-.51.643-1.157 1.162-1.92 1.543-.763.382-1.66.574-2.67.574-.726 0-1.423-.105-2.07-.313-.634-.203-1.2-.53-1.685-.972-.482-.44-.87-1.01-1.152-1.69-.283-.687-.426-1.538-.426-2.53v-12.03h-1.324V31.3c0 1.074.166 2.04.49 2.87.328.838.797 1.552 1.393 2.123.598.573 1.312 1.005 2.127 1.284.803.274 1.695.414 2.648.414 1.825 0 3.333-.48 4.48-1.423.72-.59 1.284-1.285 1.69-2.08v3.122h1.32V19.167h-1.32v10.4zM197.502 29.095c-.564-.36-1.21-.647-1.918-.852-.686-.197-1.375-.39-2.07-.574-.97-.255-1.82-.476-2.55-.66-.712-.18-1.38-.397-1.983-.644-.546-.23-.985-.564-1.308-.992-.314-.414-.473-1.033-.473-1.837 0-.078.015-.285.128-.796.082-.365.28-.747.596-1.135.316-.39.814-.744 1.484-1.057.672-.313 1.617-.473 2.81-.473.825 0 1.585.09 2.263.267.66.173 1.23.45 1.704.826.467.37.832.85 1.088 1.424.258.58.39 1.306.39 2.158v.315h1.32v-.315c0-2.078-.622-3.62-1.854-4.58-1.205-.94-2.857-1.418-4.908-1.418-1.14 0-2.12.146-2.914.435-.797.29-1.46.672-1.977 1.137-.52.47-.897 1-1.12 1.575-.223.565-.336 1.117-.336 1.638 0 1.025.19 1.86.566 2.485.38.632.975 1.13 1.768 1.477.52.236 1.12.452 1.777.64.643.184 1.404.383 2.266.593.763.185 1.513.37 2.25.554.712.178 1.345.42 1.886.716.52.288.955.66 1.285 1.106.315.427.476 1.006.476 1.72 0 .693-.162 1.287-.484 1.764-.33.492-.758.897-1.27 1.207-.523.316-1.115.55-1.76.69-.656.145-1.303.218-1.926.218-2.018 0-3.576-.448-4.633-1.33-1.04-.87-1.568-2.274-1.568-4.178v-.315h-1.322v.315c0 2.327.648 4.063 1.93 5.16 1.266 1.087 3.148 1.637 5.594 1.637.783 0 1.58-.09 2.373-.268.81-.182 1.543-.482 2.182-.893.65-.417 1.186-.965 1.59-1.626.41-.67.617-1.495.617-2.45 0-.91-.185-1.667-.552-2.25-.36-.57-.834-1.045-1.416-1.415zM201.75 12.235h1.322v4.13h-1.322zM201.75 19.167h1.322v18.445h-1.322zM218.174 20.485c-.596-.572-1.31-1.01-2.12-1.3-.806-.288-1.698-.434-2.655-.434-.91 0-1.75.13-2.493.38-.748.254-1.416.616-1.986 1.077-.567.46-1.044 1-1.42 1.604-.097.154-.185.313-.267.474v-3.118h-1.322V37.61h1.323v-10.4c0-.957.135-1.88.4-2.748.266-.86.662-1.622 1.178-2.27.513-.643 1.16-1.163 1.92-1.543.765-.38 1.66-.575 2.67-.575.726 0 1.42.106 2.07.314.636.205 1.202.53 1.685.972.484.44.87 1.007 1.152 1.69.283.686.428 1.537.428 2.53v12.03h1.322V25.478c0-1.074-.164-2.04-.49-2.87-.327-.836-.796-1.55-1.393-2.123zM236.27 21.793c-.66-.913-1.526-1.656-2.57-2.208-1.044-.553-2.302-.833-3.733-.833-1.033 0-2.057.22-3.04.65-.98.432-1.858 1.07-2.6 1.898-.74.822-1.345 1.84-1.794 3.026-.45 1.187-.68 2.553-.68 4.063 0 1.337.154 2.606.46 3.77.31 1.177.792 2.217 1.438 3.088.653.883 1.503 1.574 2.53 2.057.973.457 2.146.69 3.492.69.066 0 .133 0 .193-.002 2.098 0 3.895-.602 5.33-1.788 1.445-1.19 2.31-2.887 2.574-5.04l.042-.354h-1.32l-.04.27c-.288 1.873-1.024 3.293-2.19 4.22-1.172.933-2.674 1.404-4.465 1.404-1.217 0-2.254-.21-3.084-.625-.826-.414-1.512-.988-2.033-1.707-.53-.728-.928-1.596-1.182-2.58-.234-.908-.373-1.9-.414-2.95h14.883l.014-.304c.048-1.25-.08-2.47-.374-3.626-.296-1.164-.78-2.215-1.435-3.12zm.484 5.728H223.2c.085-1.078.304-2.062.647-2.93.377-.955.877-1.78 1.484-2.453.603-.668 1.313-1.185 2.112-1.535s1.672-.528 2.592-.528c1.102 0 2.082.205 2.914.61.832.404 1.535.964 2.092 1.663.562.705.992 1.54 1.28 2.478.262.854.407 1.758.434 2.696zM251.334 29.095c-.566-.36-1.213-.647-1.92-.852-.684-.197-1.373-.39-2.07-.574-.97-.255-1.82-.476-2.55-.66-.71-.18-1.378-.397-1.983-.644-.546-.23-.985-.564-1.308-.992-.314-.414-.475-1.033-.475-1.837 0-.078.018-.285.13-.796.083-.365.284-.747.597-1.135.316-.39.814-.744 1.484-1.057.672-.313 1.617-.473 2.812-.473.822 0 1.584.09 2.26.267.658.173 1.232.45 1.703.826.467.37.832.85 1.088 1.424.26.58.39 1.306.39 2.158v.315h1.322v-.315c0-2.078-.623-3.62-1.854-4.58-1.207-.94-2.857-1.418-4.908-1.418-1.14 0-2.12.146-2.916.435-.795.29-1.46.672-1.975 1.137-.52.47-.897 1-1.122 1.575-.223.565-.334 1.117-.334 1.638 0 1.025.19 1.86.564 2.485.38.632.975 1.13 1.77 1.477.518.236 1.115.452 1.775.64.643.184 1.404.383 2.266.593.76.185 1.51.37 2.25.554.71.178 1.345.42 1.882.716.523.288.957.66 1.287 1.106.313.427.474 1.006.474 1.72 0 .693-.162 1.287-.482 1.764-.332.492-.76.897-1.27 1.207-.524.316-1.114.55-1.76.69-.655.145-1.304.218-1.927.218-2.016 0-3.574-.448-4.633-1.33-1.04-.87-1.568-2.274-1.568-4.178v-.315h-1.322v.315c0 2.327.648 4.063 1.93 5.16 1.266 1.087 3.148 1.637 5.594 1.637.783 0 1.582-.09 2.375-.268.808-.182 1.542-.482 2.183-.893.648-.417 1.184-.965 1.588-1.626.41-.67.62-1.495.62-2.45 0-.91-.186-1.667-.553-2.25-.358-.57-.835-1.045-1.413-1.415zM268.45 30.51c-.36-.568-.835-1.045-1.415-1.415-.566-.36-1.21-.647-1.92-.852-.684-.197-1.373-.39-2.07-.574-.97-.255-1.82-.476-2.55-.66-.71-.18-1.378-.397-1.98-.644-.548-.23-.99-.564-1.312-.992-.314-.414-.473-1.033-.473-1.837 0-.078.016-.285.13-.796.08-.365.282-.747.597-1.135.314-.39.812-.744 1.482-1.057.67-.313 1.618-.473 2.81-.473.823 0 1.585.09 2.26.267.66.173 1.233.45 1.704.826.47.37.832.85 1.088 1.424.258.58.39 1.306.39 2.158v.315h1.323v-.315c0-2.078-.625-3.62-1.855-4.58-1.207-.94-2.857-1.418-4.908-1.418-1.14 0-2.12.146-2.916.435-.795.29-1.46.672-1.975 1.137-.52.47-.895 1-1.12 1.575-.223.565-.334 1.117-.334 1.638 0 1.025.19 1.86.564 2.485.38.632.977 1.13 1.77 1.477.52.236 1.117.452 1.775.64.645.184 1.404.383 2.266.593.765.185 1.515.37 2.253.554.71.178 1.344.42 1.883.716.523.288.955.66 1.285 1.106.317.427.478 1.006.478 1.72 0 .693-.164 1.287-.484 1.764-.33.492-.76.897-1.27 1.207-.522.316-1.114.55-1.76.69-.655.145-1.302.218-1.925.218-2.02 0-3.577-.448-4.636-1.33-1.04-.87-1.566-2.274-1.566-4.178v-.315h-1.324v.315c0 2.327.648 4.063 1.93 5.16 1.266 1.087 3.148 1.637 5.596 1.637.78 0 1.58-.09 2.373-.268.81-.182 1.54-.482 2.182-.893.65-.417 1.186-.965 1.59-1.626.41-.67.617-1.495.617-2.45-.002-.913-.186-1.67-.553-2.25z"/></g></svg>