<svg id="Calque_1" data-name="Calque 1" xmlns="http://www.w3.org/2000/svg" viewBox="0 0 113.84 101.99"><defs><style>.cls-1,.cls-6{fill:#111118;}.cls-1,.cls-4,.cls-5{stroke:#111118;}.cls-1,.cls-2,.cls-4,.cls-5{stroke-linejoin:round;stroke-width:1.99px;}.cls-2,.cls-5{fill:none;stroke-linecap:round;}.cls-2{stroke:#fff;}.cls-3,.cls-4{fill:#fff;}</style></defs><title>dual_bubbles</title><path class="cls-1" d="M53.12,73.22c3,1.63,7.08,1.77,10.56,1.44a19,19,0,0,0,2.06-8.55,18.62,18.62,0,0,0-.5-4.25l11.48-6.59-14.19.26c-5.23-8.14-16.3-13.75-29.12-13.75C15.55,41.77,1.07,52.66,1.07,66.1,1.07,76.61,9.93,85.56,22.32,89c.57,3.88,2.13,9,6.35,12-.77-3.84-1.32-7.74-.85-10.93a42.94,42.94,0,0,0,5.59.37c10.85,0,20.44-4,26.3-10.2C57,78.6,54,76.16,53.12,73.22Z" transform="translate(-0.08 0)"/><path class="cls-2" d="M19.36,50.79C13,54.17,8.31,59.25,6.49,65.15" transform="translate(-0.08 0)"/><path class="cls-2" d="M29.77,47.14a39.13,39.13,0,0,0-6.1,1.72" transform="translate(-0.08 0)"/><ellipse class="cls-3" cx="52.87" cy="55.26" rx="1.92" ry="3.75" transform="translate(-7.88 8.7) rotate(-8.77)"/><path class="cls-4" d="M87.06,1C77,1,68.29,5.52,64,12.13c0,0-5.46,4.37-11.14,5.55,2.29,1.71,5.85,2.7,8.33,3.22,0,.16,0,.32,0,.48a16.39,16.39,0,0,0,1,5.57c3.37.46,7.67.51,11.1-1.2a37.9,37.9,0,0,1-7.11,7.65c4.71,5.07,12.31,8.36,20.89,8.36a32.53,32.53,0,0,0,6.24-.6c1.33,6.8,1.63,17.15-6.24,24,12-5.83,15.33-18.33,15.27-27.31,6.42-3.71,10.6-9.69,10.6-16.45C112.93,10.13,101.34,1,87.06,1Z" transform="translate(-0.08 0)"/><path class="cls-5" d="M95.92,6.19a25.3,25.3,0,0,0-5.08-1.26" transform="translate(-0.08 0)"/><path class="cls-5" d="M107.86,18.06A16.31,16.31,0,0,0,101.28,9" transform="translate(-0.08 0)"/><ellipse class="cls-6" cx="70.15" cy="13.51" rx="2.42" ry="1.23" transform="translate(50.06 82.09) rotate(-84.64)"/></svg>