<svg xmlns="http://www.w3.org/2000/svg" xmlns:xlink="http://www.w3.org/1999/xlink" version="1.1" id="Artwork" x="0px" y="0px" viewBox="0 0 120 195" style="enable-background:new 0 0 120 195;" xml:space="preserve">
<style type="text/css">
	.st0{fill:none;}
	.st1{fill:none;stroke:rgba(242, 251, 252, 1);stroke-width:1.6694;stroke-linejoin:round;}
	.st2{fill:rgba(242, 251, 252, 1);}
	.st3{fill:url(#SVGID_1_);}
</style>
<pattern x="-1058" y="-1104" width="120" height="195" patternUnits="userSpaceOnUse" id="Refer_A_Friend_Line" viewBox="75.4 -256.9 120 195" style="overflow:visible;">
	<g>
		<rect x="75.4" y="-256.9" class="st0" width="120" height="195"/>
		<g>
			<g>
				<path class="st1" d="M258.3-34c1.2-13.3-12.3-25.4-30.3-27.1c-15.1-1.4-28.5,5-33.2,15v0l-14,3l12.5,7.1c0.3,2.2,1,4.3,2,6.3      c3.2,0.4,7.3,0.4,10.6-1c-1.8,2.9-4.3,5-6.8,6.5c5.5,6,14.2,10.3,24.4,11.2c2.1,0.2,4.1,0.2,6.1,0.1l0,0      c3.7,6.1,7.9,11,15.1,12.1c-5.6-7.1-5.9-10.4-2.8-14.5l0,0C251-18.8,257.5-25.7,258.3-34z"/>
			</g>
			<g>
				<g>
					<path class="st1" d="M180.5-65.6c2.6,1.4,5.9,1.5,8.9,1.2c1.1-2.2,1.7-4.6,1.7-7.2c0-1.2-0.1-2.4-0.4-3.6l9.6-5.5l-11.9,0.2       C184-87.3,174.7-92,164-92c-15,0-27.1,9.1-27.1,20.4c0,8.8,7.4,16.3,17.8,19.2c0.5,3.3,1.8,7.6,5.3,10.1       c-0.6-3.2-1.1-6.5-0.7-9.2c1.5,0.2,3.1,0.3,4.7,0.3c9.1,0,17.1-3.4,22.1-8.5C183.8-61.1,181.2-63.2,180.5-65.6z"/>
					<path class="st2" d="M141.4-71.6c-0.1,0-0.2,0-0.2,0c-0.4-0.1-0.7-0.6-0.6-1c1.6-5.1,5.5-9.5,11.2-12.5       c0.4-0.2,0.9-0.1,1.1,0.3c0.2,0.4,0.1,0.9-0.3,1.1c-5.3,2.8-8.9,6.9-10.4,11.5C142.1-71.8,141.8-71.6,141.4-71.6z"/>
					<path class="st2" d="M155.8-85.2c-0.3,0-0.7-0.2-0.8-0.5c-0.2-0.4,0.1-0.9,0.5-1.1c1.7-0.6,3.4-1.1,5.2-1.5       c0.5-0.1,0.9,0.2,1,0.7c0.1,0.5-0.2,0.9-0.7,1c-1.7,0.3-3.4,0.8-5,1.4C156-85.2,155.9-85.2,155.8-85.2z"/>
				</g>
				
					<ellipse transform="matrix(0.1525 -0.9883 0.9883 0.1525 230.8893 111.2022)" class="st2" cx="180.3" cy="-79" rx="3.1" ry="1.6"/>
			</g>
		</g>
		<g>
			<g>
				<path class="st1" d="M138.3-34c1.2-13.3-12.3-25.4-30.3-27.1c-15.1-1.4-28.5,5-33.2,15v0l-14,3l12.5,7.1c0.3,2.2,1,4.3,2,6.3      c3.2,0.4,7.3,0.4,10.6-1c-1.8,2.9-4.3,5-6.8,6.5c5.5,6,14.2,10.3,24.4,11.2c2.1,0.2,4.1,0.2,6.1,0.1l0,0      c3.7,6.1,7.9,11,15.1,12.1c-5.6-7.1-5.9-10.4-2.8-14.5l0,0C131-18.8,137.5-25.7,138.3-34z"/>
			</g>
			<g>
				<g>
					<path class="st1" d="M60.5-65.6c2.6,1.4,5.9,1.5,8.9,1.2c1.1-2.2,1.7-4.6,1.7-7.2c0-1.2-0.1-2.4-0.4-3.6l9.6-5.5l-11.9,0.2       C64-87.3,54.7-92,44-92c-15,0-27.1,9.1-27.1,20.4c0,8.8,7.4,16.3,17.8,19.2c0.5,3.3,1.8,7.6,5.3,10.1c-0.6-3.2-1.1-6.5-0.7-9.2       c1.5,0.2,3.1,0.3,4.7,0.3c9.1,0,17.1-3.4,22.1-8.5C63.8-61.1,61.2-63.2,60.5-65.6z"/>
				</g>
			</g>
			<path class="st2" d="M106.3-68.6c-0.6,0-1.1-0.3-1.4-0.7c-0.5-0.7-0.3-1.6,0.3-2.2c5.4-4.7,5.7-11.6,5-16.9     c-1.3,0.2-2.6,0.3-3.9,0.3C99-88.2,92-91,87.6-95.7c-0.3-0.3-0.5-0.8-0.4-1.3c0-0.5,0.3-0.9,0.6-1.2c0.8-0.7,1.7-1.4,2.5-2.3     c-1.5,0.1-3.2,0.1-5-0.2c-0.6-0.1-1.1-0.5-1.3-1.1c-0.5-1.4-0.8-2.9-0.9-4.3c-2.7-0.7-4.9-1.6-6.3-2.7c-0.5-0.4-0.8-1.1-0.6-1.7     c0.1-0.6,0.6-1.1,1.3-1.3c3.8-0.8,7.6-3.6,8.4-4.2c4.1-6.1,11.9-9.8,20.6-9.8c12.9,0,23.4,8.4,23.4,18.8c0,5.7-3.3,11.2-8.9,14.7     c-0.1,4.6-1.6,17.6-13.7,23.5C106.8-68.6,106.6-68.6,106.3-68.6z M110.9-90.2c0.4,0,0.8,0.3,0.8,0.7c1,5.8,0.9,13.9-5.4,19.3     c11.4-5.5,12.7-17.5,12.8-22.4c0-0.3,0.2-0.6,0.4-0.7c5.3-3.2,8.5-8.3,8.5-13.6c0-9.4-9.7-17.1-21.7-17.1     c-8.1,0-15.5,3.5-19.2,9.2c-0.1,0.1-0.1,0.1-0.2,0.2c-0.8,0.6-4.9,3.7-9.2,4.6c1.4,1,3.6,1.9,6.3,2.6c0.4,0.1,0.6,0.4,0.6,0.8     c0,1.5,0.3,3,0.8,4.4c2.6,0.3,4.8,0.3,6.8-0.1c0.4-0.1,0.7,0.1,0.9,0.4c0.2,0.3,0.2,0.7-0.1,1c-1.4,1.6-2.8,3-4.2,4.2     c4.1,4.4,10.6,7,17.5,7c1.5,0,3-0.1,4.4-0.4C110.8-90.2,110.8-90.2,110.9-90.2z M92-110.7c0,0-0.1,0-0.1,0     c-1.1-0.1-1.7-1.4-1.6-3c0.2-1.6,1.1-2.8,2.1-2.7c0,0,0,0,0,0c1.1,0.1,1.7,1.4,1.6,3C93.8-111.8,93-110.7,92-110.7z"/>
			<path class="st2" d="M124.5-109.9c-0.8-3.1-2.8-5.9-5.8-8.1c-0.4-0.3-0.9-0.2-1.2,0.2c-0.3,0.4-0.2,0.9,0.2,1.2     c2.7,1.9,4.5,4.4,5.2,7.1c0.1,0.4,0.4,0.6,0.8,0.6c0.1,0,0.1,0,0.2,0C124.4-109,124.7-109.5,124.5-109.9z"/>
			<path class="st2" d="M114-120.4c-1.4-0.5-2.9-0.9-4.4-1.1c-0.5-0.1-0.9,0.3-0.9,0.7c-0.1,0.5,0.3,0.9,0.7,0.9     c1.4,0.2,2.8,0.5,4.1,1c0.1,0,0.2,0,0.3,0c0.3,0,0.7-0.2,0.8-0.6C114.7-119.8,114.5-120.3,114-120.4z"/>
		</g>
		<g>
			<g>
				<path class="st1" d="M198.3-131.5c1.2-13.3-12.3-25.4-30.3-27.1c-15.1-1.4-28.5,5-33.2,15v0l-14,3l12.5,7.1c0.3,2.2,1,4.3,2,6.3      c3.2,0.4,7.3,0.4,10.6-1c-1.8,2.9-4.3,5-6.8,6.5c5.5,6,14.2,10.3,24.4,11.2c2.1,0.2,4.1,0.2,6.1,0.1l0,0      c3.7,6.1,7.9,11,15.1,12.1c-5.6-7.1-5.9-10.4-2.8-14.5l0,0C191-116.3,197.5-123.2,198.3-131.5z"/>
				
					<ellipse transform="matrix(0.9956 -9.370382e-02 9.370382e-02 0.9956 13.8626 12.8778)" class="st2" cx="144.1" cy="-141.2" rx="1.8" ry="3.5"/>
			</g>
			<g>
				<g>
					<path class="st1" d="M120.5-163.1c2.6,1.4,5.9,1.5,8.9,1.2c1.1-2.2,1.7-4.6,1.7-7.2c0-1.2-0.1-2.4-0.4-3.6l9.6-5.5l-11.9,0.2       c-4.4-6.8-13.7-11.5-24.4-11.5c-15,0-27.1,9.1-27.1,20.4c0,8.8,7.4,16.3,17.8,19.2c0.5,3.3,1.8,7.6,5.3,10.1       c-0.6-3.2-1.1-6.5-0.7-9.2c1.5,0.2,3.1,0.3,4.7,0.3c9.1,0,17.1-3.4,22.1-8.5C123.8-158.6,121.2-160.7,120.5-163.1z"/>
					<path class="st2" d="M81.4-169.1c-0.1,0-0.2,0-0.2,0c-0.4-0.1-0.7-0.6-0.6-1c1.6-5.1,5.5-9.5,11.2-12.5       c0.4-0.2,0.9-0.1,1.1,0.3s0.1,0.9-0.3,1.1c-5.3,2.8-8.9,6.9-10.4,11.5C82.1-169.3,81.8-169.1,81.4-169.1z"/>
					<path class="st2" d="M95.8-182.7c-0.3,0-0.7-0.2-0.8-0.5c-0.2-0.4,0.1-0.9,0.5-1.1c1.7-0.6,3.4-1.1,5.2-1.5       c0.5-0.1,0.9,0.2,1,0.7c0.1,0.5-0.2,0.9-0.7,1c-1.7,0.3-3.4,0.8-5,1.4C96-182.7,95.9-182.7,95.8-182.7z"/>
				</g>
				
					<ellipse transform="matrix(0.1525 -0.9883 0.9883 0.1525 276.3968 -30.7322)" class="st2" cx="120.3" cy="-176.5" rx="3.1" ry="1.6"/>
			</g>
			<path class="st2" d="M166.3-166.1c-0.6,0-1.1-0.3-1.4-0.7c-0.5-0.7-0.3-1.6,0.3-2.2c5.4-4.7,5.7-11.6,5-16.9     c-1.3,0.2-2.6,0.3-3.9,0.3c-7.3,0-14.3-2.8-18.7-7.5c-0.3-0.3-0.5-0.8-0.4-1.3c0-0.5,0.3-0.9,0.6-1.2c0.8-0.7,1.7-1.4,2.5-2.3     c-1.5,0.1-3.2,0.1-5-0.2c-0.6-0.1-1.1-0.5-1.3-1.1c-0.5-1.4-0.8-2.9-0.9-4.3c-2.7-0.7-4.9-1.6-6.3-2.7c-0.5-0.4-0.8-1.1-0.6-1.7     c0.1-0.6,0.6-1.1,1.3-1.3c3.8-0.8,7.6-3.6,8.4-4.2c4.1-6.1,11.9-9.8,20.6-9.8c12.9,0,23.4,8.4,23.4,18.8c0,5.7-3.3,11.2-8.9,14.7     c-0.1,4.6-1.6,17.6-13.7,23.5C166.8-166.1,166.6-166.1,166.3-166.1z M170.9-187.7c0.4,0,0.8,0.3,0.8,0.7c1,5.8,0.9,13.9-5.4,19.3     c11.4-5.5,12.7-17.5,12.8-22.4c0-0.3,0.2-0.6,0.4-0.7c5.3-3.2,8.5-8.3,8.5-13.6c0-9.4-9.7-17.1-21.7-17.1     c-8.1,0-15.5,3.5-19.2,9.2c-0.1,0.1-0.1,0.1-0.2,0.2c-0.8,0.6-4.9,3.7-9.2,4.6c1.4,1,3.6,1.9,6.3,2.6c0.4,0.1,0.6,0.4,0.6,0.8     c0,1.5,0.3,3,0.8,4.4c2.6,0.3,4.8,0.3,6.8-0.1c0.4-0.1,0.7,0.1,0.9,0.4c0.2,0.3,0.2,0.7-0.1,1c-1.4,1.6-2.8,3-4.2,4.2     c4.1,4.4,10.6,7,17.5,7c1.5,0,3-0.1,4.4-0.4C170.8-187.7,170.8-187.7,170.9-187.7z M152-208.2c0,0-0.1,0-0.1,0     c-1.1-0.1-1.7-1.4-1.6-3c0.2-1.6,1.1-2.8,2.1-2.7c0,0,0,0,0,0c1.1,0.1,1.7,1.4,1.6,3C153.8-209.3,153-208.2,152-208.2z"/>
			<path class="st2" d="M184.5-207.4c-0.8-3.1-2.8-5.9-5.8-8.1c-0.4-0.3-0.9-0.2-1.2,0.2c-0.3,0.4-0.2,0.9,0.2,1.2     c2.7,1.9,4.5,4.4,5.2,7.1c0.1,0.4,0.4,0.6,0.8,0.6c0.1,0,0.1,0,0.2,0C184.4-206.5,184.7-207,184.5-207.4z"/>
			<path class="st2" d="M174-217.9c-1.4-0.5-2.9-0.9-4.4-1.1c-0.5-0.1-0.9,0.3-0.9,0.7c-0.1,0.5,0.3,0.9,0.7,0.9     c1.4,0.2,2.8,0.5,4.1,1c0.1,0,0.2,0,0.3,0c0.3,0,0.7-0.2,0.8-0.6C174.7-217.3,174.5-217.8,174-217.9z"/>
		</g>
		<g>
			<g>
				<path class="st1" d="M78.3-131.5c1.2-13.3-12.3-25.4-30.3-27.1c-15.1-1.4-28.5,5-33.2,15v0l-14,3l12.5,7.1c0.3,2.2,1,4.3,2,6.3      c3.2,0.4,7.3,0.4,10.6-1c-1.8,2.9-4.3,5-6.8,6.5c5.5,6,14.2,10.3,24.4,11.2c2.1,0.2,4.1,0.2,6.1,0.1l0,0      c3.7,6.1,7.9,11,15.1,12.1c-5.6-7.1-5.9-10.4-2.8-14.5l0,0C71-116.3,77.5-123.2,78.3-131.5z"/>
			</g>
		</g>
		<g>
			<g>
				<path class="st1" d="M258.3-229c1.2-13.3-12.3-25.4-30.3-27.1c-15.1-1.4-28.5,5-33.2,15v0l-14,3l12.5,7.1c0.3,2.2,1,4.3,2,6.3      c3.2,0.4,7.3,0.4,10.6-1c-1.8,2.9-4.3,5-6.8,6.5c5.5,6,14.2,10.3,24.4,11.2c2.1,0.2,4.1,0.2,6.1,0.1l0,0      c3.7,6.1,7.9,11,15.1,12.1c-5.6-7.1-5.9-10.4-2.8-14.5l0,0C251-213.8,257.5-220.7,258.3-229z"/>
			</g>
			<g>
				<g>
					<path class="st1" d="M180.5-260.6c2.6,1.4,5.9,1.5,8.9,1.2c1.1-2.2,1.7-4.6,1.7-7.2c0-1.2-0.1-2.4-0.4-3.6l9.6-5.5l-11.9,0.2       C184-282.3,174.7-287,164-287c-15,0-27.1,9.1-27.1,20.4c0,8.8,7.4,16.3,17.8,19.2c0.5,3.3,1.8,7.6,5.3,10.1       c-0.6-3.2-1.1-6.5-0.7-9.2c1.5,0.2,3.1,0.3,4.7,0.3c9.1,0,17.1-3.4,22.1-8.5C183.8-256.1,181.2-258.2,180.5-260.6z"/>
				</g>
			</g>
		</g>
		<g>
			<g>
				<path class="st1" d="M138.3-229c1.2-13.3-12.3-25.4-30.3-27.1c-15.1-1.4-28.5,5-33.2,15v0l-14,3l12.5,7.1c0.3,2.2,1,4.3,2,6.3      c3.2,0.4,7.3,0.4,10.6-1c-1.8,2.9-4.3,5-6.8,6.5c5.5,6,14.2,10.3,24.4,11.2c2.1,0.2,4.1,0.2,6.1,0.1l0,0      c3.7,6.1,7.9,11,15.1,12.1c-5.6-7.1-5.9-10.4-2.8-14.5l0,0C131-213.8,137.5-220.7,138.3-229z"/>
				
					<ellipse transform="matrix(0.9956 -9.370382e-02 9.370382e-02 0.9956 22.7348 6.8266)" class="st2" cx="84.1" cy="-238.7" rx="1.8" ry="3.5"/>
			</g>
			<g>
				<g>
					<path class="st1" d="M60.5-260.6c2.6,1.4,5.9,1.5,8.9,1.2c1.1-2.2,1.7-4.6,1.7-7.2c0-1.2-0.1-2.4-0.4-3.6l9.6-5.5l-11.9,0.2       C64-282.3,54.7-287,44-287c-15,0-27.1,9.1-27.1,20.4c0,8.8,7.4,16.3,17.8,19.2c0.5,3.3,1.8,7.6,5.3,10.1       c-0.6-3.2-1.1-6.5-0.7-9.2c1.5,0.2,3.1,0.3,4.7,0.3c9.1,0,17.1-3.4,22.1-8.5C63.8-256.1,61.2-258.2,60.5-260.6z"/>
				</g>
			</g>
		</g>
	</g>
</pattern>
<pattern id="SVGID_1_" xlink:href="#Refer_A_Friend_Line" patternTransform="matrix(1 0 0 0.9999 38.75 66.7882)">
</pattern>
<rect class="st3" width="120" height="195"/>
</svg>
